<svg xmlns="http://www.w3.org/2000/svg" xmlns:xlink="http://www.w3.org/1999/xlink" contentStyleType="text/css" data-diagram-type="CLASS" height="787px" preserveAspectRatio="none" style="width:282px;height:787px;background:#FFFFFF;" version="1.1" viewBox="0 0 282 787" width="282px" zoomAndPan="magnify"><title>Agent to Agent Card Structure</title><defs/><g><g class="title" data-source-line="1"><text fill="#000000" font-family="sans-serif" font-size="14" font-weight="bold" lengthAdjust="spacing" textLength="218.2646" x="25.2973" y="23.5352">Agent to Agent Card Structure</text></g><!--class Agent1Card--><g class="entity" data-entity="Agent1Card" data-source-line="3" data-uid="ent0002" id="entity_Agent1Card"><rect fill="#F1F1F1" height="278.3477" rx="2.5" ry="2.5" style="stroke:#181818;stroke-width:0.5;" width="185.6875" x="35.55" y="44.4883"/><ellipse cx="83.6818" cy="60.4883" fill="#ADD1B2" rx="11" ry="11" style="stroke:#181818;stroke-width:1;"/><path d="M86.155,66.6313 Q85.5739,66.9302 84.9348,67.0796 Q84.2956,67.229 83.59,67.229 Q81.0832,67.229 79.7634,65.5771 Q78.4436,63.9253 78.4436,60.8042 Q78.4436,57.6748 79.7634,56.0229 Q81.0832,54.3711 83.59,54.3711 Q84.2956,54.3711 84.9431,54.5205 Q85.5905,54.6699 86.155,54.9688 L86.155,57.6914 Q85.5241,57.1104 84.9306,56.8406 Q84.3371,56.5708 83.7063,56.5708 Q82.3615,56.5708 81.6767,57.6375 Q80.9919,58.7041 80.9919,60.8042 Q80.9919,62.896 81.6767,63.9626 Q82.3615,65.0293 83.7063,65.0293 Q84.3371,65.0293 84.9306,64.7595 Q85.5241,64.4897 86.155,63.9087 Z " fill="#000000"/><text fill="#000000" font-family="sans-serif" font-size="14" lengthAdjust="spacing" textLength="80.9238" x="104.1818" y="65.7793">Agent1Card</text><line style="stroke:#181818;stroke-width:0.5;" x1="36.55" x2="220.2375" y1="76.4883" y2="76.4883"/><text fill="#000000" font-family="sans-serif" font-size="14" lengthAdjust="spacing" textLength="153.084" x="41.55" y="94.0234">Name: praxis-agent-1</text><text fill="#000000" font-family="sans-serif" font-size="14" lengthAdjust="spacing" textLength="95.4297" x="41.55" y="110.5117">Version: 1.0.0</text><text fill="#000000" font-family="sans-serif" font-size="14" lengthAdjust="spacing" textLength="173.6875" x="41.55" y="127">PeerID: 12D3KooWLE4h...</text><line style="stroke:#181818;stroke-width:1;" x1="36.55" x2="220.2375" y1="133.9531" y2="133.9531"/><text fill="#000000" font-family="sans-serif" font-size="14" lengthAdjust="spacing" textLength="83.5625" x="55.55" y="151.4883">Capabilities:</text><rect fill="none" height="6" style="stroke:#C82930;stroke-width:1;" width="6" x="43.55" y="161.1855"/><text fill="#000000" font-family="sans-serif" font-size="14" lengthAdjust="spacing" textLength="29.0527" x="55.55" y="167.9766">mcp</text><rect fill="none" height="6" style="stroke:#C82930;stroke-width:1;" width="6" x="43.55" y="177.6738"/><text fill="#000000" font-family="sans-serif" font-size="14" lengthAdjust="spacing" textLength="19.9951" x="55.55" y="184.4648">dsl</text><rect fill="none" height="6" style="stroke:#C82930;stroke-width:1;" width="6" x="43.55" y="194.1621"/><text fill="#000000" font-family="sans-serif" font-size="14" lengthAdjust="spacing" textLength="26.4756" x="55.55" y="200.9531">p2p</text><rect fill="none" height="6" style="stroke:#C82930;stroke-width:1;" width="6" x="43.55" y="210.6504"/><text fill="#000000" font-family="sans-serif" font-size="14" lengthAdjust="spacing" textLength="21.1641" x="55.55" y="217.4414">llm</text><line style="stroke:#181818;stroke-width:1;" x1="36.55" x2="220.2375" y1="224.3945" y2="224.3945"/><text fill="#000000" font-family="sans-serif" font-size="14" lengthAdjust="spacing" textLength="41.665" x="55.55" y="241.9297">Tools:</text><rect fill="none" height="6" style="stroke:#C82930;stroke-width:1;" width="6" x="43.55" y="251.627"/><text fill="#000000" font-family="sans-serif" font-size="14" lengthAdjust="spacing" textLength="78.333" x="55.55" y="258.418">analyze_dsl</text><rect fill="none" height="6" style="stroke:#C82930;stroke-width:1;" width="6" x="43.55" y="268.1152"/><text fill="#000000" font-family="sans-serif" font-size="14" lengthAdjust="spacing" textLength="145.7354" x="55.55" y="274.9063">orchestrate_workflow</text><rect fill="none" height="6" style="stroke:#C82930;stroke-width:1;" width="6" x="43.55" y="284.6035"/><text fill="#000000" font-family="sans-serif" font-size="14" lengthAdjust="spacing" textLength="87.6777" x="55.55" y="291.3945">llm_generate</text><line style="stroke:#181818;stroke-width:1;" x1="36.55" x2="220.2375" y1="298.3477" y2="298.3477"/><text fill="#000000" font-family="sans-serif" font-size="14" lengthAdjust="spacing" textLength="173.1406" x="41.55" y="315.8828">Timestamp: 1755885935</text></g><!--class Agent2Card--><g class="entity" data-entity="Agent2Card" data-source-line="22" data-uid="ent0003" id="entity_Agent2Card"><rect fill="#F1F1F1" height="294.8359" rx="2.5" ry="2.5" style="stroke:#181818;stroke-width:0.5;" width="185.5029" x="35.64" y="399.8283"/><ellipse cx="83.6796" cy="415.8283" fill="#ADD1B2" rx="11" ry="11" style="stroke:#181818;stroke-width:1;"/><path d="M86.1527,421.9713 Q85.5716,422.2702 84.9325,422.4196 Q84.2933,422.569 83.5878,422.569 Q81.0809,422.569 79.7611,420.9171 Q78.4413,419.2653 78.4413,416.1442 Q78.4413,413.0148 79.7611,411.3629 Q81.0809,409.7111 83.5878,409.7111 Q84.2933,409.7111 84.9408,409.8605 Q85.5882,410.0099 86.1527,410.3088 L86.1527,413.0314 Q85.5218,412.4504 84.9283,412.1806 Q84.3348,411.9108 83.704,411.9108 Q82.3592,411.9108 81.6744,412.9775 Q80.9896,414.0441 80.9896,416.1442 Q80.9896,418.236 81.6744,419.3026 Q82.3592,420.3693 83.704,420.3693 Q84.3348,420.3693 84.9283,420.0995 Q85.5218,419.8297 86.1527,419.2487 Z " fill="#000000"/><text fill="#000000" font-family="sans-serif" font-size="14" lengthAdjust="spacing" textLength="80.9238" x="104.1796" y="421.1193">Agent2Card</text><line style="stroke:#181818;stroke-width:0.5;" x1="36.64" x2="220.1429" y1="431.8283" y2="431.8283"/><text fill="#000000" font-family="sans-serif" font-size="14" lengthAdjust="spacing" textLength="153.084" x="41.64" y="449.3634">Name: praxis-agent-2</text><text fill="#000000" font-family="sans-serif" font-size="14" lengthAdjust="spacing" textLength="95.4297" x="41.64" y="465.8517">Version: 1.0.0</text><text fill="#000000" font-family="sans-serif" font-size="14" lengthAdjust="spacing" textLength="173.5029" x="41.64" y="482.34">PeerID: 12D3KooWPcnb...</text><line style="stroke:#181818;stroke-width:1;" x1="36.64" x2="220.1429" y1="489.2931" y2="489.2931"/><text fill="#000000" font-family="sans-serif" font-size="14" lengthAdjust="spacing" textLength="83.5625" x="55.64" y="506.8283">Capabilities:</text><rect fill="none" height="6" style="stroke:#C82930;stroke-width:1;" width="6" x="43.64" y="516.5255"/><text fill="#000000" font-family="sans-serif" font-size="14" lengthAdjust="spacing" textLength="29.0527" x="55.64" y="523.3166">mcp</text><rect fill="none" height="6" style="stroke:#C82930;stroke-width:1;" width="6" x="43.64" y="533.0138"/><text fill="#000000" font-family="sans-serif" font-size="14" lengthAdjust="spacing" textLength="19.9951" x="55.64" y="539.8048">dsl</text><rect fill="none" height="6" style="stroke:#C82930;stroke-width:1;" width="6" x="43.64" y="549.5021"/><text fill="#000000" font-family="sans-serif" font-size="14" lengthAdjust="spacing" textLength="26.4756" x="55.64" y="556.2931">p2p</text><rect fill="none" height="6" style="stroke:#C82930;stroke-width:1;" width="6" x="43.64" y="565.9904"/><text fill="#000000" font-family="sans-serif" font-size="14" lengthAdjust="spacing" textLength="68.7354" x="55.64" y="572.7814">filesystem</text><line style="stroke:#181818;stroke-width:1;" x1="36.64" x2="220.1429" y1="579.7345" y2="579.7345"/><text fill="#000000" font-family="sans-serif" font-size="14" lengthAdjust="spacing" textLength="41.665" x="55.64" y="597.2697">Tools:</text><rect fill="none" height="6" style="stroke:#C82930;stroke-width:1;" width="6" x="43.64" y="606.967"/><text fill="#000000" font-family="sans-serif" font-size="14" lengthAdjust="spacing" textLength="61.6396" x="55.64" y="613.758">write_file</text><rect fill="none" height="6" style="stroke:#C82930;stroke-width:1;" width="6" x="43.64" y="623.4552"/><text fill="#000000" font-family="sans-serif" font-size="14" lengthAdjust="spacing" textLength="58.1123" x="55.64" y="630.2463">read_file</text><rect fill="none" height="6" style="stroke:#C82930;stroke-width:1;" width="6" x="43.64" y="639.9435"/><text fill="#000000" font-family="sans-serif" font-size="14" lengthAdjust="spacing" textLength="55.6445" x="55.64" y="646.7345">list_files</text><rect fill="none" height="6" style="stroke:#C82930;stroke-width:1;" width="6" x="43.64" y="656.4318"/><text fill="#000000" font-family="sans-serif" font-size="14" lengthAdjust="spacing" textLength="69.5352" x="55.64" y="663.2228">delete_file</text><line style="stroke:#181818;stroke-width:1;" x1="36.64" x2="220.1429" y1="670.1759" y2="670.1759"/><text fill="#000000" font-family="sans-serif" font-size="14" lengthAdjust="spacing" textLength="173.1406" x="41.64" y="687.7111">Timestamp: 1755885936</text></g><g class="entity" data-entity="GMN5" data-source-line="44" data-uid="ent0006" id="entity_GMN5"><path d="M6,755.6683 L6,780.9788 A0,0 0 0 0 6,780.9788 L250.7803,780.9788 A0,0 0 0 0 250.7803,780.9788 L250.7803,765.6683 L240.7803,755.6683 L132.39,755.6683 L128.39,694.9783 L124.39,755.6683 L6,755.6683 A0,0 0 0 0 6,755.6683" fill="#FEFFDD" style="stroke:#181818;stroke-width:0.5;"/><path d="M240.7803,755.6683 L240.7803,765.6683 L250.7803,765.6683 L240.7803,755.6683" fill="#FEFFDD" style="stroke:#181818;stroke-width:0.5;"/><text fill="#000000" font-family="sans-serif" font-size="13" lengthAdjust="spacing" textLength="223.7803" x="12" y="773.2366">Has filesystem tools for remote use</text></g><!--link Agent1Card to Agent2Card--><g class="link" data-entity-1="Agent1Card" data-entity-2="Agent2Card" data-source-line="42" data-uid="lnk4" id="link_Agent1Card_Agent2Card"><path codeLine="42" d="M128.39,329.1683 C128.39,354.1783 128.39,368.3283 128.39,393.5583" fill="none" id="Agent1Card-Agent2Card" style="stroke:#181818;stroke-width:1;"/><polygon fill="#181818" points="128.39,323.1683,124.39,332.1683,128.39,328.1683,132.39,332.1683,128.39,323.1683" style="stroke:#181818;stroke-width:1;"/><polygon fill="#181818" points="128.39,399.5583,132.39,390.5583,128.39,394.5583,124.39,390.5583,128.39,399.5583" style="stroke:#181818;stroke-width:1;"/><text fill="#000000" font-family="sans-serif" font-size="13" lengthAdjust="spacing" textLength="145.4692" x="129.39" y="366.3966">Exchange on Discovery</text></g><!--SRC=[dP9XIyCm48Q_vrVS7sZPEgkpY23RG55aeEZ7SSkkMp39bIHpc-9_D-rMhQ0YVadotljUk2TjK44JN2p91WXyE8pGBU0kkBKCQqT2I8tUxxr-uxqAW5iqL43bSAjyWhMNz6FvWPnNR0lefxsq5mjJ8dSrZZeR3wwP7sycHwiqJQEJ974POOLpfLLGv8kw24PMpRxmkjchRA-rDctJFRC-fD6YthtGh4spaolomM6WsORTKwbvqxRFufHKEn_tA1EpQAeutacU3uVvwI0NRr-8iz-8ixyGJwMT_ukuL9hypWVw3dpZL4Ii8urqX8jFfPKFZVBxYqbJ9_mJ-d6DtldCPqbotds40YPRkKAx960BO-KbFvFR2M4v4Cmv13R0PQUbW4lq7OxuZqK0ADd5WKtTjVOatW40]--></g></svg>