<svg xmlns="http://www.w3.org/2000/svg" xmlns:xlink="http://www.w3.org/1999/xlink" contentStyleType="text/css" data-diagram-type="SEQUENCE" height="464px" preserveAspectRatio="none" style="width:513px;height:464px;background:#FFFFFF;" version="1.1" viewBox="0 0 513 464" width="513px" zoomAndPan="magnify"><defs/><g><g><title>Agent 1</title><rect fill="#000000" fill-opacity="0.00000" height="391.7925" width="8" x="50.4155" y="37.0146"/><line style="stroke:#000000;stroke-width:1;" x1="54" x2="54" y1="37.0146" y2="428.8071"/></g><g><title>P2P Stream</title><rect fill="#000000" fill-opacity="0.00000" height="391.7925" width="8" x="232.9673" y="37.0146"/><line style="stroke:#000000;stroke-width:1;" x1="236.9004" x2="236.9004" y1="37.0146" y2="428.8071"/></g><g><title>Agent 2</title><rect fill="#000000" fill-opacity="0.00000" height="391.7925" width="8" x="358.6948" y="37.0146"/><line style="stroke:#000000;stroke-width:1;" x1="362.2793" x2="362.2793" y1="37.0146" y2="428.8071"/></g><g class="participant participant-head" data-participant="A1"><rect fill="#FFFFFF" height="31.0146" rx="2.5" ry="2.5" style="stroke:#000000;stroke-width:1;" width="68.8311" x="20" y="5"/><text fill="#000000" font-family="Verdana" font-size="14" lengthAdjust="spacing" textLength="54.8311" x="27" y="26.0752">Agent 1</text></g><g class="participant participant-tail" data-participant="A1"><rect fill="#FFFFFF" height="31.0146" rx="2.5" ry="2.5" style="stroke:#000000;stroke-width:1;" width="68.8311" x="20" y="427.8071"/><text fill="#000000" font-family="Verdana" font-size="14" lengthAdjust="spacing" textLength="54.8311" x="27" y="448.8823">Agent 1</text></g><g class="participant participant-head" data-participant="Stream"><rect fill="#FFFFFF" height="31.0146" rx="2.5" ry="2.5" style="stroke:#000000;stroke-width:1;" width="96.1338" x="188.9004" y="5"/><text fill="#000000" font-family="Verdana" font-size="14" lengthAdjust="spacing" textLength="82.1338" x="195.9004" y="26.0752">P2P Stream</text></g><g class="participant participant-tail" data-participant="Stream"><rect fill="#FFFFFF" height="31.0146" rx="2.5" ry="2.5" style="stroke:#000000;stroke-width:1;" width="96.1338" x="188.9004" y="427.8071"/><text fill="#000000" font-family="Verdana" font-size="14" lengthAdjust="spacing" textLength="82.1338" x="195.9004" y="448.8823">P2P Stream</text></g><g class="participant participant-head" data-participant="A2"><rect fill="#FFFFFF" height="31.0146" rx="2.5" ry="2.5" style="stroke:#000000;stroke-width:1;" width="68.8311" x="328.2793" y="5"/><text fill="#000000" font-family="Verdana" font-size="14" lengthAdjust="spacing" textLength="54.8311" x="335.2793" y="26.0752">Agent 2</text></g><g class="participant participant-tail" data-participant="A2"><rect fill="#FFFFFF" height="31.0146" rx="2.5" ry="2.5" style="stroke:#000000;stroke-width:1;" width="68.8311" x="328.2793" y="427.8071"/><text fill="#000000" font-family="Verdana" font-size="14" lengthAdjust="spacing" textLength="54.8311" x="335.2793" y="448.8823">Agent 2</text></g><g class="message" data-participant-1="A1" data-participant-2="Stream"><polygon fill="#000000" points="224.9673,64.814,234.9673,68.814,224.9673,72.814,228.9673,68.814" style="stroke:#000000;stroke-width:1;"/><line style="stroke:#000000;stroke-width:1;" x1="54.4155" x2="230.9673" y1="68.814" y2="68.814"/><text fill="#000000" font-family="Verdana" font-size="13" lengthAdjust="spacing" textLength="158.5518" x="61.4155" y="64.0845">Open /praxis/card/1.0.0</text></g><g class="message" data-participant-1="A1" data-participant-2="Stream"><polygon fill="#000000" points="224.9673,94.6133,234.9673,98.6133,224.9673,102.6133,228.9673,98.6133" style="stroke:#000000;stroke-width:1;"/><line style="stroke:#000000;stroke-width:1;" x1="54.4155" x2="230.9673" y1="98.6133" y2="98.6133"/><text fill="#000000" font-family="Verdana" font-size="13" lengthAdjust="spacing" textLength="101.7275" x="61.4155" y="93.8838">Send Own Card</text></g><g class="message" data-participant-1="Stream" data-participant-2="A2"><polygon fill="#000000" points="350.6948,124.4126,360.6948,128.4126,350.6948,132.4126,354.6948,128.4126" style="stroke:#000000;stroke-width:1;"/><line style="stroke:#000000;stroke-width:1;" x1="236.9673" x2="356.6948" y1="128.4126" y2="128.4126"/><text fill="#000000" font-family="Verdana" font-size="13" lengthAdjust="spacing" textLength="86.0171" x="243.9673" y="123.6831">Agent 1 Card</text></g><g class="message" data-participant-1="A2" data-participant-2="A2"><line style="stroke:#000000;stroke-width:1;" x1="362.6948" x2="404.6948" y1="158.2119" y2="158.2119"/><line style="stroke:#000000;stroke-width:1;" x1="404.6948" x2="404.6948" y1="158.2119" y2="171.2119"/><line style="stroke:#000000;stroke-width:1;" x1="363.6948" x2="404.6948" y1="171.2119" y2="171.2119"/><polygon fill="#000000" points="373.6948,167.2119,363.6948,171.2119,373.6948,175.2119,369.6948,171.2119" style="stroke:#000000;stroke-width:1;"/><text fill="#000000" font-family="Verdana" font-size="13" lengthAdjust="spacing" textLength="70.2939" x="369.6948" y="153.4824">Store Card</text></g><g class="message" data-participant-1="A2" data-participant-2="Stream"><polygon fill="#000000" points="247.9673,197.0112,237.9673,201.0112,247.9673,205.0112,243.9673,201.0112" style="stroke:#000000;stroke-width:1;"/><line style="stroke:#000000;stroke-width:1;" x1="241.9673" x2="361.6948" y1="201.0112" y2="201.0112"/><text fill="#000000" font-family="Verdana" font-size="13" lengthAdjust="spacing" textLength="101.7275" x="253.9673" y="196.2817">Send Own Card</text></g><g class="message" data-participant-1="Stream" data-participant-2="A1"><polygon fill="#000000" points="65.4155,226.8105,55.4155,230.8105,65.4155,234.8105,61.4155,230.8105" style="stroke:#000000;stroke-width:1;"/><line style="stroke:#000000;stroke-width:1;" x1="59.4155" x2="235.9673" y1="230.8105" y2="230.8105"/><text fill="#000000" font-family="Verdana" font-size="13" lengthAdjust="spacing" textLength="86.0171" x="71.4155" y="226.0811">Agent 2 Card</text></g><g class="message" data-participant-1="A1" data-participant-2="A1"><line style="stroke:#000000;stroke-width:1;" x1="54.4155" x2="96.4155" y1="260.6099" y2="260.6099"/><line style="stroke:#000000;stroke-width:1;" x1="96.4155" x2="96.4155" y1="260.6099" y2="273.6099"/><line style="stroke:#000000;stroke-width:1;" x1="55.4155" x2="96.4155" y1="273.6099" y2="273.6099"/><polygon fill="#000000" points="65.4155,269.6099,55.4155,273.6099,65.4155,277.6099,61.4155,273.6099" style="stroke:#000000;stroke-width:1;"/><text fill="#000000" font-family="Verdana" font-size="13" lengthAdjust="spacing" textLength="70.2939" x="61.4155" y="255.8804">Store Card</text></g><g class="message" data-participant-1="A1" data-participant-2="A1"><line style="stroke:#000000;stroke-width:1;" x1="54.4155" x2="96.4155" y1="303.4092" y2="303.4092"/><line style="stroke:#000000;stroke-width:1;" x1="96.4155" x2="96.4155" y1="303.4092" y2="316.4092"/><line style="stroke:#000000;stroke-width:1;" x1="55.4155" x2="96.4155" y1="316.4092" y2="316.4092"/><polygon fill="#000000" points="65.4155,312.4092,55.4155,316.4092,65.4155,320.4092,61.4155,316.4092" style="stroke:#000000;stroke-width:1;"/><text fill="#000000" font-family="Verdana" font-size="13" lengthAdjust="spacing" textLength="136.4746" x="61.4155" y="298.6797">Update Tool Registry</text></g><g class="message" data-participant-1="A2" data-participant-2="A2"><line style="stroke:#000000;stroke-width:1;" x1="362.6948" x2="404.6948" y1="346.2085" y2="346.2085"/><line style="stroke:#000000;stroke-width:1;" x1="404.6948" x2="404.6948" y1="346.2085" y2="359.2085"/><line style="stroke:#000000;stroke-width:1;" x1="363.6948" x2="404.6948" y1="359.2085" y2="359.2085"/><polygon fill="#000000" points="373.6948,355.2085,363.6948,359.2085,373.6948,363.2085,369.6948,359.2085" style="stroke:#000000;stroke-width:1;"/><text fill="#000000" font-family="Verdana" font-size="13" lengthAdjust="spacing" textLength="136.4746" x="369.6948" y="341.479">Update Tool Registry</text></g><path d="M12,372.2085 L12,413.2085 L404,413.2085 L404,382.2085 L394,372.2085 L12,372.2085" fill="#FFFFFF" style="stroke:#000000;stroke-width:1;"/><path d="M394,372.2085 L394,382.2085 L404,382.2085 L394,372.2085" fill="#FFFFFF" style="stroke:#000000;stroke-width:1;"/><text fill="#000000" font-family="Verdana" font-size="13" lengthAdjust="spacing" textLength="148.8398" x="125.0632" y="390.2783">Both agents now know</text><text fill="#000000" font-family="Verdana" font-size="13" lengthAdjust="spacing" textLength="156.9839" x="125.0632" y="406.0776">each other's capabilities</text><!--SRC=[XOv1JiCm44NtFiMd6pRGr5vsWMGuG2i2EpP3CceiKjkoHssvFGv9K42LsDZMUt_- -4OwFZ9YJyuh5Ic9QrmaBrZP0vTBhq0PLlzsUxD7BOdf-At7vxLnCuuRfQp6_SEKt68NsQEAYIukLmsbjjBhpNhp9rMpRx4xUpoLX1hfuAtPOlhUgAoPSIqXyHB-swNdBZEDwHalktxWQsn962yXz7ZcWykIFXVxhshbGs7XnAbKt0snno0TQ5YRuSCP7-LuyqnDXs8utMOq5EdTzKuSP_K5]--></g></svg>