<svg xmlns="http://www.w3.org/2000/svg" xmlns:xlink="http://www.w3.org/1999/xlink" contentStyleType="text/css" data-diagram-type="CLASS" height="354px" preserveAspectRatio="none" style="width:670px;height:354px;background:#FFFFFF;" version="1.1" viewBox="0 0 670 354" width="670px" zoomAndPan="magnify"><defs/><g><!--class AgentCard--><g class="entity" data-entity="AgentCard" data-source-line="3" data-uid="ent0002" id="entity_AgentCard"><rect fill="#FFFFFF" height="146.0879" rx="2.5" ry="2.5" style="stroke:#000000;stroke-width:1;" width="168.7578" x="229.12" y="12"/><ellipse cx="272.8041" cy="26" fill="#FFFFFF" rx="9" ry="9" style="stroke:#000000;stroke-width:1;"/><path d="M275.2772,32.1431 Q274.6962,32.4419 274.057,32.5913 Q273.4179,32.7407 272.7123,32.7407 Q270.2054,32.7407 268.8856,31.0889 Q267.5658,29.437 267.5658,26.3159 Q267.5658,23.1865 268.8856,21.5347 Q270.2054,19.8828 272.7123,19.8828 Q273.4179,19.8828 274.0653,20.0322 Q274.7128,20.1816 275.2772,20.4805 L275.2772,23.2031 Q274.6464,22.6221 274.0529,22.3523 Q273.4594,22.0825 272.8285,22.0825 Q271.4838,22.0825 270.799,23.1492 Q270.1141,24.2158 270.1141,26.3159 Q270.1141,28.4077 270.799,29.4744 Q271.4838,30.541 272.8285,30.541 Q273.4594,30.541 274.0529,30.2712 Q274.6464,30.0015 275.2772,29.4204 Z " fill="#000000"/><text fill="#000000" font-family="Verdana" font-size="14" lengthAdjust="spacing" textLength="73.8896" x="290.3041" y="31.5679">AgentCard</text><line style="stroke:#000000;stroke-width:1;" x1="230.12" x2="396.8778" y1="40" y2="40"/><ellipse cx="240.12" cy="54.0073" fill="none" rx="3" ry="3" style="stroke:#000000;stroke-width:1;"/><text fill="#000000" font-family="Verdana" font-size="14" lengthAdjust="spacing" textLength="92.3262" x="247.12" y="58.0752">Name: string</text><ellipse cx="240.12" cy="71.022" fill="none" rx="3" ry="3" style="stroke:#000000;stroke-width:1;"/><text fill="#000000" font-family="Verdana" font-size="14" lengthAdjust="spacing" textLength="103.8652" x="247.12" y="75.0898">Version: string</text><ellipse cx="240.12" cy="88.0366" fill="none" rx="3" ry="3" style="stroke:#000000;stroke-width:1;"/><text fill="#000000" font-family="Verdana" font-size="14" lengthAdjust="spacing" textLength="99.2646" x="247.12" y="92.1045">PeerID: string</text><ellipse cx="240.12" cy="105.0513" fill="none" rx="3" ry="3" style="stroke:#000000;stroke-width:1;"/><text fill="#000000" font-family="Verdana" font-size="14" lengthAdjust="spacing" textLength="144.7578" x="247.12" y="109.1191">Capabilities: []string</text><ellipse cx="240.12" cy="122.0659" fill="none" rx="3" ry="3" style="stroke:#000000;stroke-width:1;"/><text fill="#000000" font-family="Verdana" font-size="14" lengthAdjust="spacing" textLength="100.96" x="247.12" y="126.1338">Tools: []string</text><ellipse cx="240.12" cy="139.0806" fill="none" rx="3" ry="3" style="stroke:#000000;stroke-width:1;"/><text fill="#000000" font-family="Verdana" font-size="14" lengthAdjust="spacing" textLength="125.2822" x="247.12" y="143.1484">Timestamp: int64</text><line style="stroke:#000000;stroke-width:1;" x1="230.12" x2="396.8778" y1="150.0879" y2="150.0879"/></g><!--class Agent1Card--><g class="entity" data-entity="Agent1Card" data-source-line="12" data-uid="ent0003" id="entity_Agent1Card"><rect fill="#FFFFFF" height="129.0732" rx="2.5" ry="2.5" style="stroke:#000000;stroke-width:1;" width="260.9922" x="12" y="218.09"/><ellipse cx="97.3511" cy="232.09" fill="#FFFFFF" rx="9" ry="9" style="stroke:#000000;stroke-width:1;"/><path d="M99.8242,238.2331 Q99.2432,238.5319 98.604,238.6813 Q97.9648,238.8307 97.2593,238.8307 Q94.7524,238.8307 93.4326,237.1789 Q92.1128,235.527 92.1128,232.4059 Q92.1128,229.2765 93.4326,227.6247 Q94.7524,225.9728 97.2593,225.9728 Q97.9648,225.9728 98.6123,226.1222 Q99.2598,226.2716 99.8242,226.5705 L99.8242,229.2931 Q99.1934,228.7121 98.5999,228.4423 Q98.0063,228.1725 97.3755,228.1725 Q96.0308,228.1725 95.3459,229.2392 Q94.6611,230.3058 94.6611,232.4059 Q94.6611,234.4977 95.3459,235.5644 Q96.0308,236.631 97.3755,236.631 Q98.0063,236.631 98.5999,236.3612 Q99.1934,236.0915 99.8242,235.5104 Z " fill="#000000"/><text fill="#000000" font-family="Verdana" font-size="14" lengthAdjust="spacing" textLength="82.79" x="114.8511" y="237.6579">Agent1Card</text><line style="stroke:#000000;stroke-width:1;" x1="13" x2="271.9922" y1="246.09" y2="246.09"/><text fill="#000000" font-family="Verdana" font-size="14" lengthAdjust="spacing" textLength="178.9785" x="18" y="264.1652">Name = "praxis-agent-1"</text><text fill="#000000" font-family="Verdana" font-size="14" lengthAdjust="spacing" textLength="123.416" x="18" y="281.1798">Version = "1.0.0"</text><text fill="#000000" font-family="Verdana" font-size="14" lengthAdjust="spacing" textLength="175.2324" x="18" y="298.1945">PeerID = "12D3KooW..."</text><text fill="#000000" font-family="Verdana" font-size="14" lengthAdjust="spacing" textLength="248.9922" x="18" y="315.2091">Capabilities = ["mcp", "dsl", "p2p"]</text><text fill="#000000" font-family="Verdana" font-size="14" lengthAdjust="spacing" textLength="165.8809" x="18" y="332.2238">Tools = ["analyze_dsl"]</text><line style="stroke:#000000;stroke-width:1;" x1="13" x2="271.9922" y1="339.1632" y2="339.1632"/></g><!--class Agent2Card--><g class="entity" data-entity="Agent2Card" data-source-line="20" data-uid="ent0004" id="entity_Agent2Card"><rect fill="#FFFFFF" height="129.0732" rx="2.5" ry="2.5" style="stroke:#000000;stroke-width:1;" width="355.1504" x="307.92" y="218.09"/><ellipse cx="440.3502" cy="232.09" fill="#FFFFFF" rx="9" ry="9" style="stroke:#000000;stroke-width:1;"/><path d="M442.8233,238.2331 Q442.2423,238.5319 441.6031,238.6813 Q440.9639,238.8307 440.2584,238.8307 Q437.7515,238.8307 436.4317,237.1789 Q435.1119,235.527 435.1119,232.4059 Q435.1119,229.2765 436.4317,227.6247 Q437.7515,225.9728 440.2584,225.9728 Q440.9639,225.9728 441.6114,226.1222 Q442.2589,226.2716 442.8233,226.5705 L442.8233,229.2931 Q442.1925,228.7121 441.599,228.4423 Q441.0054,228.1725 440.3746,228.1725 Q439.0299,228.1725 438.345,229.2392 Q437.6602,230.3058 437.6602,232.4059 Q437.6602,234.4977 438.345,235.5644 Q439.0299,236.631 440.3746,236.631 Q441.0054,236.631 441.599,236.3612 Q442.1925,236.0915 442.8233,235.5104 Z " fill="#000000"/><text fill="#000000" font-family="Verdana" font-size="14" lengthAdjust="spacing" textLength="82.79" x="457.8502" y="237.6579">Agent2Card</text><line style="stroke:#000000;stroke-width:1;" x1="308.92" x2="662.0704" y1="246.09" y2="246.09"/><text fill="#000000" font-family="Verdana" font-size="14" lengthAdjust="spacing" textLength="178.9785" x="313.92" y="264.1652">Name = "praxis-agent-2"</text><text fill="#000000" font-family="Verdana" font-size="14" lengthAdjust="spacing" textLength="123.416" x="313.92" y="281.1798">Version = "1.0.0"</text><text fill="#000000" font-family="Verdana" font-size="14" lengthAdjust="spacing" textLength="175.2324" x="313.92" y="298.1945">PeerID = "12D3KooW..."</text><text fill="#000000" font-family="Verdana" font-size="14" lengthAdjust="spacing" textLength="343.1504" x="313.92" y="315.2091">Capabilities = ["mcp", "dsl", "p2p", "filesystem"]</text><text fill="#000000" font-family="Verdana" font-size="14" lengthAdjust="spacing" textLength="313.2568" x="313.92" y="332.2238">Tools = ["write_file", "read_file", "list_files"]</text><line style="stroke:#000000;stroke-width:1;" x1="308.92" x2="662.0704" y1="339.1632" y2="339.1632"/></g><!--reverse link AgentCard to Agent1Card--><g class="link" data-entity-1="AgentCard" data-entity-2="Agent1Card" data-source-line="28" data-uid="lnk5" id="link_AgentCard_Agent1Card"><path codeLine="28" d="M238.4628,171.8616 C221.4328,191.3416 214.98,198.72 198.38,217.71" fill="none" id="AgentCard-backto-Agent1Card" style="stroke:#000000;stroke-width:1;"/><polygon fill="none" points="250.31,158.31,233.9456,167.9125,242.98,175.8106,250.31,158.31" style="stroke:#000000;stroke-width:1;"/></g><!--reverse link AgentCard to Agent2Card--><g class="link" data-entity-1="AgentCard" data-entity-2="Agent2Card" data-source-line="29" data-uid="lnk6" id="link_AgentCard_Agent2Card"><path codeLine="29" d="M388.9365,171.8271 C406.0665,191.3071 412.59,198.72 429.29,217.71" fill="none" id="AgentCard-backto-Agent2Card" style="stroke:#000000;stroke-width:1;"/><polygon fill="none" points="377.05,158.31,384.4307,175.7893,393.4422,167.865,377.05,158.31" style="stroke:#000000;stroke-width:1;"/></g><!--SRC=[fP4zJyCm48Pt_uh3AoHg0cA8OAZQ1I4X1WH35LL7SxGdsOxbimJbuxyJfwWDKSN2T7hVvuRdx9Eu8KlW3R9JQcLG1APhSd66eO4F1N1wXvOga1ZOhLD-f23Skc5rJnHkviDcXXwVsN1aaWeMzO4yjAqPLsn98bfV0RjuUQ6-VgaKUvUa0jUWVS0tbWmJpGhTaH-f18jyaazIjxFggt9-VjksJtcU9p2Kw_12svNNPw0RCMduqkkwM-jDUuuEpVQTbccX7jcLVzkLH-q0_kdNZHSs95k9P4Ushu4ZBHDEQu6msGV34liWkpiENttrcMM3vpvA-bFLDm00]--></g></svg>
