<svg xmlns="http://www.w3.org/2000/svg" xmlns:xlink="http://www.w3.org/1999/xlink" contentStyleType="text/css" data-diagram-type="SEQUENCE" height="870px" preserveAspectRatio="none" style="width:1160px;height:870px;background:#FFFFFF;" version="1.1" viewBox="0 0 1160 870" width="1160px" zoomAndPan="magnify"><title>Complete System Flow</title><defs/><g><text fill="#000000" font-family="Verdana" font-size="22" font-weight="bold" lengthAdjust="spacing" textLength="280.876" x="443.7542" y="37.1182">Complete System Flow</text><g><title>User</title><rect fill="#000000" fill-opacity="0.00000" height="657.7856" width="8" x="40.9277" y="130.752"/><line style="stroke:#000000;stroke-width:1;" x1="44" x2="44" y1="130.752" y2="788.5376"/></g><g><title>Agent 1 API</title><rect fill="#000000" fill-opacity="0.00000" height="657.7856" width="8" x="166.541" y="130.752"/><line style="stroke:#000000;stroke-width:1;" x1="169.7119" x2="169.7119" y1="130.752" y2="788.5376"/></g><g><title>DSL Parser</title><rect fill="#000000" fill-opacity="0.00000" height="657.7856" width="8" x="303.8848" y="130.752"/><line style="stroke:#000000;stroke-width:1;" x1="307.1318" x2="307.1318" y1="130.752" y2="788.5376"/></g><g><title>Agent 1 Core</title><rect fill="#000000" fill-opacity="0.00000" height="657.7856" width="8" x="448.0649" y="130.752"/><line style="stroke:#000000;stroke-width:1;" x1="451.895" x2="451.895" y1="130.752" y2="788.5376"/></g><g><title>P2P Network</title><rect fill="#000000" fill-opacity="0.00000" height="657.7856" width="8" x="582.8599" y="130.752"/><line style="stroke:#000000;stroke-width:1;" x1="586.2349" x2="586.2349" y1="130.752" y2="788.5376"/></g><g><title>Agent 2 Core</title><rect fill="#000000" fill-opacity="0.00000" height="657.7856" width="8" x="717.6548" y="130.752"/><line style="stroke:#000000;stroke-width:1;" x1="721.4849" x2="721.4849" y1="130.752" y2="788.5376"/></g><g><title>MCP Server</title><rect fill="#000000" fill-opacity="0.00000" height="657.7856" width="8" x="848.5361" y="130.752"/><line style="stroke:#000000;stroke-width:1;" x1="851.8247" x2="851.8247" y1="130.752" y2="788.5376"/></g><g><title>File System</title><rect fill="#000000" fill-opacity="0.00000" height="657.7856" width="8" x="974.0547" y="130.752"/><line style="stroke:#000000;stroke-width:1;" x1="977.2476" x2="977.2476" y1="130.752" y2="788.5376"/></g><g><title>Shared Volume</title><rect fill="#000000" fill-opacity="0.00000" height="657.7856" width="8" x="1098.623" y="130.752"/><line style="stroke:#000000;stroke-width:1;" x1="1101.8618" x2="1101.8618" y1="130.752" y2="788.5376"/></g><g class="participant participant-head" data-participant="User"><text fill="#000000" font-family="Verdana" font-size="14" lengthAdjust="spacing" textLength="31.8555" x="26" y="127.8125">User</text><ellipse cx="44.9277" cy="61.7373" fill="#FFFFFF" rx="8" ry="8" style="stroke:#000000;stroke-width:1;"/><path d="M44.9277,69.7373 L44.9277,96.7373 M31.9277,77.7373 L57.9277,77.7373 M44.9277,96.7373 L31.9277,111.7373 M44.9277,96.7373 L57.9277,111.7373" fill="none" style="stroke:#000000;stroke-width:1;"/></g><g class="participant participant-tail" data-participant="User"><text fill="#000000" font-family="Verdana" font-size="14" lengthAdjust="spacing" textLength="31.8555" x="26" y="801.6128">User</text><ellipse cx="44.9277" cy="813.5522" fill="#FFFFFF" rx="8" ry="8" style="stroke:#000000;stroke-width:1;"/><path d="M44.9277,821.5522 L44.9277,848.5522 M31.9277,829.5522 L57.9277,829.5522 M44.9277,848.5522 L31.9277,863.5522 M44.9277,848.5522 L57.9277,863.5522" fill="none" style="stroke:#000000;stroke-width:1;"/></g><g class="participant participant-head" data-participant="API1"><rect fill="#FFFFFF" height="31.0146" rx="2.5" ry="2.5" style="stroke:#000000;stroke-width:1;" width="97.6582" x="121.7119" y="98.7373"/><text fill="#000000" font-family="Verdana" font-size="14" lengthAdjust="spacing" textLength="83.6582" x="128.7119" y="119.8125">Agent 1 API</text></g><g class="participant participant-tail" data-participant="API1"><rect fill="#FFFFFF" height="31.0146" rx="2.5" ry="2.5" style="stroke:#000000;stroke-width:1;" width="97.6582" x="121.7119" y="787.5376"/><text fill="#000000" font-family="Verdana" font-size="14" lengthAdjust="spacing" textLength="83.6582" x="128.7119" y="808.6128">Agent 1 API</text></g><g class="participant participant-head" data-participant="DSL1"><rect fill="#FFFFFF" height="31.0146" rx="2.5" ry="2.5" style="stroke:#000000;stroke-width:1;" width="91.5059" x="262.1318" y="98.7373"/><text fill="#000000" font-family="Verdana" font-size="14" lengthAdjust="spacing" textLength="77.5059" x="269.1318" y="119.8125">DSL Parser</text></g><g class="participant participant-tail" data-participant="DSL1"><rect fill="#FFFFFF" height="31.0146" rx="2.5" ry="2.5" style="stroke:#000000;stroke-width:1;" width="91.5059" x="262.1318" y="787.5376"/><text fill="#000000" font-family="Verdana" font-size="14" lengthAdjust="spacing" textLength="77.5059" x="269.1318" y="808.6128">DSL Parser</text></g><g class="participant participant-head" data-participant="Core1"><rect fill="#FFFFFF" height="31.0146" rx="2.5" ry="2.5" style="stroke:#000000;stroke-width:1;" width="106.3398" x="398.895" y="98.7373"/><text fill="#000000" font-family="Verdana" font-size="14" lengthAdjust="spacing" textLength="92.3398" x="405.895" y="119.8125">Agent 1 Core</text></g><g class="participant participant-tail" data-participant="Core1"><rect fill="#FFFFFF" height="31.0146" rx="2.5" ry="2.5" style="stroke:#000000;stroke-width:1;" width="106.3398" x="398.895" y="787.5376"/><text fill="#000000" font-family="Verdana" font-size="14" lengthAdjust="spacing" textLength="92.3398" x="405.895" y="808.6128">Agent 1 Core</text></g><g class="participant participant-head" data-participant="P2P"><rect fill="#FFFFFF" height="31.0146" rx="2.5" ry="2.5" style="stroke:#000000;stroke-width:1;" width="103.25" x="535.2349" y="98.7373"/><text fill="#000000" font-family="Verdana" font-size="14" lengthAdjust="spacing" textLength="89.25" x="542.2349" y="119.8125">P2P Network</text></g><g class="participant participant-tail" data-participant="P2P"><rect fill="#FFFFFF" height="31.0146" rx="2.5" ry="2.5" style="stroke:#000000;stroke-width:1;" width="103.25" x="535.2349" y="787.5376"/><text fill="#000000" font-family="Verdana" font-size="14" lengthAdjust="spacing" textLength="89.25" x="542.2349" y="808.6128">P2P Network</text></g><g class="participant participant-head" data-participant="Core2"><rect fill="#FFFFFF" height="31.0146" rx="2.5" ry="2.5" style="stroke:#000000;stroke-width:1;" width="106.3398" x="668.4849" y="98.7373"/><text fill="#000000" font-family="Verdana" font-size="14" lengthAdjust="spacing" textLength="92.3398" x="675.4849" y="119.8125">Agent 2 Core</text></g><g class="participant participant-tail" data-participant="Core2"><rect fill="#FFFFFF" height="31.0146" rx="2.5" ry="2.5" style="stroke:#000000;stroke-width:1;" width="106.3398" x="668.4849" y="787.5376"/><text fill="#000000" font-family="Verdana" font-size="14" lengthAdjust="spacing" textLength="92.3398" x="675.4849" y="808.6128">Agent 2 Core</text></g><g class="participant participant-head" data-participant="MCP2"><rect fill="#FFFFFF" height="31.0146" rx="2.5" ry="2.5" style="stroke:#000000;stroke-width:1;" width="95.4229" x="804.8247" y="98.7373"/><text fill="#000000" font-family="Verdana" font-size="14" lengthAdjust="spacing" textLength="81.4229" x="811.8247" y="119.8125">MCP Server</text></g><g class="participant participant-tail" data-participant="MCP2"><rect fill="#FFFFFF" height="31.0146" rx="2.5" ry="2.5" style="stroke:#000000;stroke-width:1;" width="95.4229" x="804.8247" y="787.5376"/><text fill="#000000" font-family="Verdana" font-size="14" lengthAdjust="spacing" textLength="81.4229" x="811.8247" y="808.6128">MCP Server</text></g><g class="participant participant-head" data-participant="FS2"><rect fill="#FFFFFF" height="31.0146" rx="2.5" ry="2.5" style="stroke:#000000;stroke-width:1;" width="95.6143" x="930.2476" y="98.7373"/><text fill="#000000" font-family="Verdana" font-size="14" lengthAdjust="spacing" textLength="81.6143" x="937.2476" y="119.8125">File System</text></g><g class="participant participant-tail" data-participant="FS2"><rect fill="#FFFFFF" height="31.0146" rx="2.5" ry="2.5" style="stroke:#000000;stroke-width:1;" width="95.6143" x="930.2476" y="787.5376"/><text fill="#000000" font-family="Verdana" font-size="14" lengthAdjust="spacing" textLength="81.6143" x="937.2476" y="808.6128">File System</text></g><g class="participant participant-head" data-participant="Volume"><text fill="#000000" font-family="Verdana" font-size="14" lengthAdjust="spacing" textLength="107.5225" x="1045.8618" y="127.8125">Shared Volume</text><path d="M1084.623,77.7373 C1084.623,67.7373 1102.623,67.7373 1102.623,67.7373 C1102.623,67.7373 1120.623,67.7373 1120.623,77.7373 L1120.623,103.7373 C1120.623,113.7373 1102.623,113.7373 1102.623,113.7373 C1102.623,113.7373 1084.623,113.7373 1084.623,103.7373 L1084.623,77.7373" fill="#FFFFFF" style="stroke:#000000;stroke-width:1;"/><path d="M1084.623,77.7373 C1084.623,87.7373 1102.623,87.7373 1102.623,87.7373 C1102.623,87.7373 1120.623,87.7373 1120.623,77.7373" fill="none" style="stroke:#000000;stroke-width:1;"/></g><g class="participant participant-tail" data-participant="Volume"><text fill="#000000" font-family="Verdana" font-size="14" lengthAdjust="spacing" textLength="107.5225" x="1045.8618" y="801.6128">Shared Volume</text><path d="M1084.623,814.5522 C1084.623,804.5522 1102.623,804.5522 1102.623,804.5522 C1102.623,804.5522 1120.623,804.5522 1120.623,814.5522 L1120.623,840.5522 C1120.623,850.5522 1102.623,850.5522 1102.623,850.5522 C1102.623,850.5522 1084.623,850.5522 1084.623,840.5522 L1084.623,814.5522" fill="#FFFFFF" style="stroke:#000000;stroke-width:1;"/><path d="M1084.623,814.5522 C1084.623,824.5522 1102.623,824.5522 1102.623,824.5522 C1102.623,824.5522 1120.623,824.5522 1120.623,814.5522" fill="none" style="stroke:#000000;stroke-width:1;"/></g><path d="M391,145.752 L391,170.752 L781,170.752 L781,155.752 L771,145.752 L391,145.752" fill="#FFFFFF" style="stroke:#000000;stroke-width:1;"/><path d="M771,145.752 L771,155.752 L781,155.752 L771,145.752" fill="#FFFFFF" style="stroke:#000000;stroke-width:1;"/><text fill="#000000" font-family="Verdana" font-size="13" lengthAdjust="spacing" textLength="123.3032" x="520.3132" y="163.8218">Initialization Phase</text><g class="message" data-participant-1="Core1" data-participant-2="P2P"><polygon fill="#000000" points="574.8599,194.3506,584.8599,198.3506,574.8599,202.3506,578.8599,198.3506" style="stroke:#000000;stroke-width:1;"/><line style="stroke:#000000;stroke-width:1;" x1="452.0649" x2="580.8599" y1="198.3506" y2="198.3506"/><text fill="#000000" font-family="Verdana" font-size="13" lengthAdjust="spacing" textLength="100.7563" x="459.0649" y="193.6211">Start Discovery</text></g><g class="message" data-participant-1="Core2" data-participant-2="P2P"><polygon fill="#000000" points="597.8599,224.1499,587.8599,228.1499,597.8599,232.1499,593.8599,228.1499" style="stroke:#000000;stroke-width:1;"/><line style="stroke:#000000;stroke-width:1;" x1="591.8599" x2="720.6548" y1="228.1499" y2="228.1499"/><text fill="#000000" font-family="Verdana" font-size="13" lengthAdjust="spacing" textLength="100.7563" x="603.8599" y="223.4204">Start Discovery</text></g><g class="message" data-participant-1="Core1" data-participant-2="Core2"><polygon fill="#000000" points="463.0649,253.9492,453.0649,257.9492,463.0649,261.9492,459.0649,257.9492" style="stroke:#000000;stroke-width:1;"/><polygon fill="#000000" points="709.6548,253.9492,719.6548,257.9492,709.6548,261.9492,713.6548,257.9492" style="stroke:#000000;stroke-width:1;"/><line style="stroke:#000000;stroke-width:1;" x1="457.0649" x2="715.6548" y1="257.9492" y2="257.9492"/><text fill="#000000" font-family="Verdana" font-size="13" lengthAdjust="spacing" textLength="104.6665" x="469.0649" y="253.2197">Exchange Cards</text></g><path d="M10,270.9492 L10,295.9492 L1138,295.9492 L1138,280.9492 L1128,270.9492 L10,270.9492" fill="#FFFFFF" style="stroke:#000000;stroke-width:1;"/><path d="M1128,270.9492 L1128,280.9492 L1138,280.9492 L1128,270.9492" fill="#FFFFFF" style="stroke:#000000;stroke-width:1;"/><text fill="#000000" font-family="Verdana" font-size="13" lengthAdjust="spacing" textLength="138.3535" x="500.5154" y="289.019">Tool Execution Phase</text><g class="message" data-participant-1="User" data-participant-2="API1"><polygon fill="#000000" points="158.541,319.5479,168.541,323.5479,158.541,327.5479,162.541,323.5479" style="stroke:#000000;stroke-width:1;"/><line style="stroke:#000000;stroke-width:1;" x1="44.9277" x2="164.541" y1="323.5479" y2="323.5479"/><text fill="#000000" font-family="Verdana" font-size="13" lengthAdjust="spacing" textLength="96.4907" x="51.9277" y="318.8184">POST /execute</text></g><g class="message" data-participant-1="API1" data-participant-2="DSL1"><polygon fill="#000000" points="295.8848,349.3472,305.8848,353.3472,295.8848,357.3472,299.8848,353.3472" style="stroke:#000000;stroke-width:1;"/><line style="stroke:#000000;stroke-width:1;" x1="170.541" x2="301.8848" y1="353.3472" y2="353.3472"/><text fill="#000000" font-family="Verdana" font-size="13" lengthAdjust="spacing" textLength="66.4219" x="177.541" y="348.6177">Parse DSL</text></g><g class="message" data-participant-1="DSL1" data-participant-2="Core1"><polygon fill="#000000" points="440.0649,379.1465,450.0649,383.1465,440.0649,387.1465,444.0649,383.1465" style="stroke:#000000;stroke-width:1;"/><line style="stroke:#000000;stroke-width:1;" x1="307.8848" x2="446.0649" y1="383.1465" y2="383.1465"/><text fill="#000000" font-family="Verdana" font-size="13" lengthAdjust="spacing" textLength="120.1802" x="314.8848" y="378.417">Execute command</text></g><g class="message" data-participant-1="Core1" data-participant-2="P2P"><polygon fill="#000000" points="574.8599,408.9458,584.8599,412.9458,574.8599,416.9458,578.8599,412.9458" style="stroke:#000000;stroke-width:1;"/><line style="stroke:#000000;stroke-width:1;" x1="452.0649" x2="580.8599" y1="412.9458" y2="412.9458"/><text fill="#000000" font-family="Verdana" font-size="13" lengthAdjust="spacing" textLength="107.3579" x="459.0649" y="408.2163">Send to Agent-2</text></g><g class="message" data-participant-1="P2P" data-participant-2="Core2"><polygon fill="#000000" points="709.6548,438.7451,719.6548,442.7451,709.6548,446.7451,713.6548,442.7451" style="stroke:#000000;stroke-width:1;"/><line style="stroke:#000000;stroke-width:1;" x1="586.8599" x2="715.6548" y1="442.7451" y2="442.7451"/><text fill="#000000" font-family="Verdana" font-size="13" lengthAdjust="spacing" textLength="84.6777" x="593.8599" y="438.0156">Tool Request</text></g><g class="message" data-participant-1="Core2" data-participant-2="MCP2"><polygon fill="#000000" points="840.5361,468.5444,850.5361,472.5444,840.5361,476.5444,844.5361,472.5444" style="stroke:#000000;stroke-width:1;"/><line style="stroke:#000000;stroke-width:1;" x1="721.6548" x2="846.5361" y1="472.5444" y2="472.5444"/><text fill="#000000" font-family="Verdana" font-size="13" lengthAdjust="spacing" textLength="106.6597" x="728.6548" y="467.8149">Process Request</text></g><g class="message" data-participant-1="MCP2" data-participant-2="FS2"><polygon fill="#000000" points="966.0547,498.3438,976.0547,502.3438,966.0547,506.3438,970.0547,502.3438" style="stroke:#000000;stroke-width:1;"/><line style="stroke:#000000;stroke-width:1;" x1="852.5361" x2="972.0547" y1="502.3438" y2="502.3438"/><text fill="#000000" font-family="Verdana" font-size="13" lengthAdjust="spacing" textLength="83.4526" x="859.5361" y="497.6143">Execute Tool</text></g><g class="message" data-participant-1="FS2" data-participant-2="Volume"><polygon fill="#000000" points="1090.623,528.1431,1100.623,532.1431,1090.623,536.1431,1094.623,532.1431" style="stroke:#000000;stroke-width:1;"/><line style="stroke:#000000;stroke-width:1;" x1="978.0547" x2="1096.623" y1="532.1431" y2="532.1431"/><text fill="#000000" font-family="Verdana" font-size="13" lengthAdjust="spacing" textLength="67.063" x="985.0547" y="527.4136">Create file</text></g><g class="message" data-participant-1="Volume" data-participant-2="FS2"><polygon fill="#000000" points="989.0547,557.9424,979.0547,561.9424,989.0547,565.9424,985.0547,561.9424" style="stroke:#000000;stroke-width:1;"/><line style="stroke:#000000;stroke-width:1;stroke-dasharray:2,2;" x1="983.0547" x2="1101.623" y1="561.9424" y2="561.9424"/><text fill="#000000" font-family="Verdana" font-size="13" lengthAdjust="spacing" textLength="51.9492" x="995.0547" y="557.2129">Success</text></g><g class="message" data-participant-1="FS2" data-participant-2="MCP2"><polygon fill="#000000" points="863.5361,587.7417,853.5361,591.7417,863.5361,595.7417,859.5361,591.7417" style="stroke:#000000;stroke-width:1;"/><line style="stroke:#000000;stroke-width:1;stroke-dasharray:2,2;" x1="857.5361" x2="977.0547" y1="591.7417" y2="591.7417"/><text fill="#000000" font-family="Verdana" font-size="13" lengthAdjust="spacing" textLength="40.4727" x="869.5361" y="587.0122">Result</text></g><g class="message" data-participant-1="MCP2" data-participant-2="Core2"><polygon fill="#000000" points="732.6548,617.541,722.6548,621.541,732.6548,625.541,728.6548,621.541" style="stroke:#000000;stroke-width:1;"/><line style="stroke:#000000;stroke-width:1;stroke-dasharray:2,2;" x1="726.6548" x2="851.5361" y1="621.541" y2="621.541"/><text fill="#000000" font-family="Verdana" font-size="13" lengthAdjust="spacing" textLength="62.2896" x="738.6548" y="616.8115">Response</text></g><g class="message" data-participant-1="Core2" data-participant-2="P2P"><polygon fill="#000000" points="597.8599,647.3403,587.8599,651.3403,597.8599,655.3403,593.8599,651.3403" style="stroke:#000000;stroke-width:1;"/><line style="stroke:#000000;stroke-width:1;stroke-dasharray:2,2;" x1="591.8599" x2="720.6548" y1="651.3403" y2="651.3403"/><text fill="#000000" font-family="Verdana" font-size="13" lengthAdjust="spacing" textLength="99.8169" x="603.8599" y="646.6108">Send Response</text></g><g class="message" data-participant-1="P2P" data-participant-2="Core1"><polygon fill="#000000" points="463.0649,677.1396,453.0649,681.1396,463.0649,685.1396,459.0649,681.1396" style="stroke:#000000;stroke-width:1;"/><line style="stroke:#000000;stroke-width:1;stroke-dasharray:2,2;" x1="457.0649" x2="585.8599" y1="681.1396" y2="681.1396"/><text fill="#000000" font-family="Verdana" font-size="13" lengthAdjust="spacing" textLength="72.4014" x="469.0649" y="676.4102">Tool Result</text></g><g class="message" data-participant-1="Core1" data-participant-2="DSL1"><polygon fill="#000000" points="318.8848,706.939,308.8848,710.939,318.8848,714.939,314.8848,710.939" style="stroke:#000000;stroke-width:1;"/><line style="stroke:#000000;stroke-width:1;stroke-dasharray:2,2;" x1="312.8848" x2="451.0649" y1="710.939" y2="710.939"/><text fill="#000000" font-family="Verdana" font-size="13" lengthAdjust="spacing" textLength="51.9492" x="324.8848" y="706.2095">Success</text></g><g class="message" data-participant-1="DSL1" data-participant-2="API1"><polygon fill="#000000" points="181.541,736.7383,171.541,740.7383,181.541,744.7383,177.541,740.7383" style="stroke:#000000;stroke-width:1;"/><line style="stroke:#000000;stroke-width:1;stroke-dasharray:2,2;" x1="175.541" x2="306.8848" y1="740.7383" y2="740.7383"/><text fill="#000000" font-family="Verdana" font-size="13" lengthAdjust="spacing" textLength="113.3438" x="187.541" y="736.0088">Format Response</text></g><g class="message" data-participant-1="API1" data-participant-2="User"><polygon fill="#000000" points="55.9277,766.5376,45.9277,770.5376,55.9277,774.5376,51.9277,770.5376" style="stroke:#000000;stroke-width:1;"/><line style="stroke:#000000;stroke-width:1;stroke-dasharray:2,2;" x1="49.9277" x2="169.541" y1="770.5376" y2="770.5376"/><text fill="#000000" font-family="Verdana" font-size="13" lengthAdjust="spacing" textLength="101.6133" x="61.9277" y="765.8081">JSON Response</text></g><!--SRC=[VL7BJkGm4BpxAvevpmWbnmYjX0P60kqE4MRtxaqQniAnW-qiZw_VRZiFPeGusUugLtLtdSK3TWYzKTgAgAD1sBgkDnWHv7k8sC7Ek5SXL1ETXzy1lUYLZxhHlR8HLfTFI4S1b_ND2bJWipXcNCcVK2jFFnE1diNN4bldCL7uSiAfonhs65-TVquKUdybKXwBbCUSNziQ9Ff_OoVqF27ij9d6JeoTB4Mhelgh0i9A7fJ75luuCtJP8r-5i8xMvKWtjxvEtXNSM1srClf3HUqir0UI4Oa1cnyyGWKoaZzSwT3mz_U4bj-Y1LmGF3fSlpK7PPyeDENRyBaHJcgT-wlWmJb3N6o6JuqmWvquiGhgE_a0vvWuABZ668TLvVJuBlWDetrHZP88ZUiwPTlJsT2s41saQ3Qbu0oNrbDFz_WoO8ZBs9m96NhNO0Wpp5L6AO_5b0K4LHYO1jrwL0GzKeuYrs0p_PD3mwBvosnrZs4mayFI7PLxPyUuChBCD8DfecKTuqX9S5p5lCF9FMzmNllE-Kx5HJ4ldc1Efu9RURTVmFy0]--></g></svg>
