<svg xmlns="http://www.w3.org/2000/svg" xmlns:xlink="http://www.w3.org/1999/xlink" contentStyleType="text/css" data-diagram-type="DESCRIPTION" height="584px" preserveAspectRatio="none" style="width:1015px;height:584px;background:#FFFFFF;" version="1.1" viewBox="0 0 1015 584" width="1015px" zoomAndPan="magnify"><title>Praxis Agent Components</title><defs/><g><g class="title" data-source-line="1"><text fill="#000000" font-family="sans-serif" font-size="14" font-weight="bold" lengthAdjust="spacing" textLength="186.6553" x="407.1724" y="23.5352">Praxis Agent Components</text></g><!--cluster Praxis Agent--><g class="cluster" data-entity="Praxis Agent" data-source-line="3" data-uid="ent0002" id="cluster_Praxis Agent"><rect fill="none" height="498.95" rx="2.5" ry="2.5" style="stroke:#181818;stroke-width:1;" width="1002" x="7" y="79.4297"/><rect fill="none" height="10" style="stroke:#181818;stroke-width:1;" width="15" x="989" y="84.4297"/><rect fill="none" height="2" style="stroke:#181818;stroke-width:1;" width="4" x="987" y="86.4297"/><rect fill="none" height="2" style="stroke:#181818;stroke-width:1;" width="4" x="987" y="90.4297"/><text fill="#000000" font-family="sans-serif" font-size="14" font-weight="bold" lengthAdjust="spacing" textLength="91.1504" x="462.4248" y="105.9648">Praxis Agent</text></g><!--cluster Core--><g class="cluster" data-entity="Core" data-source-line="9" data-uid="ent0006" id="cluster_Core"><rect fill="none" height="310.46" rx="2.5" ry="2.5" style="stroke:#181818;stroke-width:1;" width="498" x="31" y="122.4297"/><rect fill="none" height="10" style="stroke:#181818;stroke-width:1;" width="15" x="509" y="127.4297"/><rect fill="none" height="2" style="stroke:#181818;stroke-width:1;" width="4" x="507" y="129.4297"/><rect fill="none" height="2" style="stroke:#181818;stroke-width:1;" width="4" x="507" y="133.4297"/><text fill="#000000" font-family="sans-serif" font-size="14" font-weight="bold" lengthAdjust="spacing" textLength="33.4824" x="263.2588" y="148.9648">Core</text></g><!--cluster Registries--><g class="cluster" data-entity="Registries" data-source-line="17" data-uid="ent0012" id="cluster_Registries"><rect fill="none" height="96.49" rx="2.5" ry="2.5" style="stroke:#181818;stroke-width:1;" width="432" x="553" y="335.8997"/><rect fill="none" height="10" style="stroke:#181818;stroke-width:1;" width="15" x="965" y="340.8997"/><rect fill="none" height="2" style="stroke:#181818;stroke-width:1;" width="4" x="963" y="342.8997"/><rect fill="none" height="2" style="stroke:#181818;stroke-width:1;" width="4" x="963" y="346.8997"/><text fill="#000000" font-family="sans-serif" font-size="14" font-weight="bold" lengthAdjust="spacing" textLength="72.2764" x="732.8618" y="362.4348">Registries</text></g><!--cluster Tools--><g class="cluster" data-entity="Tools" data-source-line="23" data-uid="ent0016" id="cluster_Tools"><rect fill="none" height="97.49" rx="2.5" ry="2.5" style="stroke:#181818;stroke-width:1;" width="543" x="356" y="456.8897"/><rect fill="none" height="10" style="stroke:#181818;stroke-width:1;" width="15" x="879" y="461.8897"/><rect fill="none" height="2" style="stroke:#181818;stroke-width:1;" width="4" x="877" y="463.8897"/><rect fill="none" height="2" style="stroke:#181818;stroke-width:1;" width="4" x="877" y="467.8897"/><text fill="#000000" font-family="sans-serif" font-size="14" font-weight="bold" lengthAdjust="spacing" textLength="40.0107" x="607.4946" y="483.4248">Tools</text></g><g class="entity" data-entity="HTTP" data-source-line="5" data-uid="ent0003" id="entity_HTTP"><text fill="#000000" font-family="sans-serif" font-size="14" lengthAdjust="spacing" textLength="75.5713" x="414.3844" y="58.4766">HTTP 8000</text><rect fill="#F1F1F1" height="12" style="stroke:#181818;stroke-width:1.5;" width="12" x="446.17" y="73.4297"/></g><g class="entity" data-entity="P2PPort" data-source-line="6" data-uid="ent0004" id="entity_P2PPort"><text fill="#000000" font-family="sans-serif" font-size="14" lengthAdjust="spacing" textLength="64.1689" x="672.9155" y="58.4766">P2P 4001</text><rect fill="#F1F1F1" height="12" style="stroke:#181818;stroke-width:1.5;" width="12" x="699" y="73.4297"/></g><g class="entity" data-entity="SSE" data-source-line="7" data-uid="ent0005" id="entity_SSE"><text fill="#000000" font-family="sans-serif" font-size="14" lengthAdjust="spacing" textLength="62.5078" x="585.0761" y="58.4766">SSE 8090</text><rect fill="#F1F1F1" height="12" style="stroke:#181818;stroke-width:1.5;" width="12" x="610.33" y="73.4297"/></g><!--entity AgentCore--><g class="entity" data-entity="AgentCore" data-source-line="10" data-uid="ent0007" id="entity_AgentCore"><rect fill="#F1F1F1" height="46.4883" rx="2.5" ry="2.5" style="stroke:#181818;stroke-width:0.5;" width="116.3574" x="290.82" y="157.4297"/><rect fill="#F1F1F1" height="10" style="stroke:#181818;stroke-width:0.5;" width="15" x="387.1774" y="162.4297"/><rect fill="#F1F1F1" height="2" style="stroke:#181818;stroke-width:0.5;" width="4" x="385.1774" y="164.4297"/><rect fill="#F1F1F1" height="2" style="stroke:#181818;stroke-width:0.5;" width="4" x="385.1774" y="168.4297"/><text fill="#000000" font-family="sans-serif" font-size="14" lengthAdjust="spacing" textLength="76.3574" x="305.82" y="190.9648">Agent Core</text></g><!--entity DSL--><g class="entity" data-entity="DSL" data-source-line="11" data-uid="ent0008" id="entity_DSL"><rect fill="#F1F1F1" height="46.4883" rx="2.5" ry="2.5" style="stroke:#181818;stroke-width:0.5;" width="155.582" x="47.21" y="263.9197"/><rect fill="#F1F1F1" height="10" style="stroke:#181818;stroke-width:0.5;" width="15" x="182.792" y="268.9197"/><rect fill="#F1F1F1" height="2" style="stroke:#181818;stroke-width:0.5;" width="4" x="180.792" y="270.9197"/><rect fill="#F1F1F1" height="2" style="stroke:#181818;stroke-width:0.5;" width="4" x="180.792" y="274.9197"/><text fill="#000000" font-family="sans-serif" font-size="14" lengthAdjust="spacing" textLength="115.582" x="62.21" y="297.4548">DSL Orchestrator</text></g><!--entity MCP--><g class="entity" data-entity="MCP" data-source-line="12" data-uid="ent0009" id="entity_MCP"><rect fill="#F1F1F1" height="46.4883" rx="2.5" ry="2.5" style="stroke:#181818;stroke-width:0.5;" width="115.7559" x="238.12" y="263.9197"/><rect fill="#F1F1F1" height="10" style="stroke:#181818;stroke-width:0.5;" width="15" x="333.8759" y="268.9197"/><rect fill="#F1F1F1" height="2" style="stroke:#181818;stroke-width:0.5;" width="4" x="331.8759" y="270.9197"/><rect fill="#F1F1F1" height="2" style="stroke:#181818;stroke-width:0.5;" width="4" x="331.8759" y="274.9197"/><text fill="#000000" font-family="sans-serif" font-size="14" lengthAdjust="spacing" textLength="75.7559" x="253.12" y="297.4548">MCP Server</text></g><!--entity Proto--><g class="entity" data-entity="Proto" data-source-line="13" data-uid="ent0010" id="entity_Proto"><rect fill="#F1F1F1" height="46.4883" rx="2.5" ry="2.5" style="stroke:#181818;stroke-width:0.5;" width="124.4785" x="388.76" y="263.9197"/><rect fill="#F1F1F1" height="10" style="stroke:#181818;stroke-width:0.5;" width="15" x="493.2385" y="268.9197"/><rect fill="#F1F1F1" height="2" style="stroke:#181818;stroke-width:0.5;" width="4" x="491.2385" y="270.9197"/><rect fill="#F1F1F1" height="2" style="stroke:#181818;stroke-width:0.5;" width="4" x="491.2385" y="274.9197"/><text fill="#000000" font-family="sans-serif" font-size="14" lengthAdjust="spacing" textLength="84.4785" x="403.76" y="297.4548">P2P Protocol</text></g><!--entity LLM--><g class="entity" data-entity="LLM" data-source-line="14" data-uid="ent0011" id="entity_LLM"><rect fill="#F1F1F1" height="46.4883" rx="2.5" ry="2.5" style="stroke:#181818;stroke-width:0.5;" width="110.9229" x="69.54" y="370.3997"/><rect fill="#F1F1F1" height="10" style="stroke:#181818;stroke-width:0.5;" width="15" x="160.4629" y="375.3997"/><rect fill="#F1F1F1" height="2" style="stroke:#181818;stroke-width:0.5;" width="4" x="158.4629" y="377.3997"/><rect fill="#F1F1F1" height="2" style="stroke:#181818;stroke-width:0.5;" width="4" x="158.4629" y="381.3997"/><text fill="#000000" font-family="sans-serif" font-size="14" lengthAdjust="spacing" textLength="70.9229" x="84.54" y="403.9348">LLM Client</text></g><!--entity ToolReg--><g class="entity" data-entity="ToolReg" data-source-line="18" data-uid="ent0013" id="entity_ToolReg"><path d="M569.31,380.8997 C569.31,370.8997 623.9965,370.8997 623.9965,370.8997 C623.9965,370.8997 678.683,370.8997 678.683,380.8997 L678.683,406.388 C678.683,416.388 623.9965,416.388 623.9965,416.388 C623.9965,416.388 569.31,416.388 569.31,406.388 L569.31,380.8997" fill="#F1F1F1" style="stroke:#181818;stroke-width:0.5;"/><path d="M569.31,380.8997 C569.31,390.8997 623.9965,390.8997 623.9965,390.8997 C623.9965,390.8997 678.683,390.8997 678.683,380.8997" fill="none" style="stroke:#181818;stroke-width:0.5;"/><text fill="#000000" font-family="sans-serif" font-size="14" lengthAdjust="spacing" textLength="89.373" x="579.31" y="408.4348">Tool Registry</text></g><!--entity PeerReg--><g class="entity" data-entity="PeerReg" data-source-line="19" data-uid="ent0014" id="entity_PeerReg"><path d="M713.83,380.8997 C713.83,370.8997 768.0004,370.8997 768.0004,370.8997 C768.0004,370.8997 822.1708,370.8997 822.1708,380.8997 L822.1708,406.388 C822.1708,416.388 768.0004,416.388 768.0004,416.388 C768.0004,416.388 713.83,416.388 713.83,406.388 L713.83,380.8997" fill="#F1F1F1" style="stroke:#181818;stroke-width:0.5;"/><path d="M713.83,380.8997 C713.83,390.8997 768.0004,390.8997 768.0004,390.8997 C768.0004,390.8997 822.1708,390.8997 822.1708,380.8997" fill="none" style="stroke:#181818;stroke-width:0.5;"/><text fill="#000000" font-family="sans-serif" font-size="14" lengthAdjust="spacing" textLength="88.3408" x="723.83" y="408.4348">Peer Registry</text></g><!--entity CardReg--><g class="entity" data-entity="CardReg" data-source-line="20" data-uid="ent0015" id="entity_CardReg"><path d="M857.38,380.8997 C857.38,370.8997 912.9962,370.8997 912.9962,370.8997 C912.9962,370.8997 968.6124,370.8997 968.6124,380.8997 L968.6124,406.388 C968.6124,416.388 912.9962,416.388 912.9962,416.388 C912.9962,416.388 857.38,416.388 857.38,406.388 L857.38,380.8997" fill="#F1F1F1" style="stroke:#181818;stroke-width:0.5;"/><path d="M857.38,380.8997 C857.38,390.8997 912.9962,390.8997 912.9962,390.8997 C912.9962,390.8997 968.6124,390.8997 968.6124,380.8997" fill="none" style="stroke:#181818;stroke-width:0.5;"/><text fill="#000000" font-family="sans-serif" font-size="14" lengthAdjust="spacing" textLength="91.2324" x="867.38" y="408.4348">Card Registry</text></g><!--entity T1--><g class="entity" data-entity="T1" data-source-line="24" data-uid="ent0017" id="entity_T1"><rect fill="#F1F1F1" height="46.4883" rx="2.5" ry="2.5" style="stroke:#181818;stroke-width:0.5;" width="101.6396" x="372.18" y="491.8897"/><rect fill="#F1F1F1" height="10" style="stroke:#181818;stroke-width:0.5;" width="15" x="453.8196" y="496.8897"/><rect fill="#F1F1F1" height="2" style="stroke:#181818;stroke-width:0.5;" width="4" x="451.8196" y="498.8897"/><rect fill="#F1F1F1" height="2" style="stroke:#181818;stroke-width:0.5;" width="4" x="451.8196" y="502.8897"/><text fill="#000000" font-family="sans-serif" font-size="14" lengthAdjust="spacing" textLength="61.6396" x="387.18" y="525.4248">write_file</text></g><!--entity T2--><g class="entity" data-entity="T2" data-source-line="25" data-uid="ent0018" id="entity_T2"><rect fill="#F1F1F1" height="46.4883" rx="2.5" ry="2.5" style="stroke:#181818;stroke-width:0.5;" width="98.1123" x="508.94" y="491.8897"/><rect fill="#F1F1F1" height="10" style="stroke:#181818;stroke-width:0.5;" width="15" x="587.0523" y="496.8897"/><rect fill="#F1F1F1" height="2" style="stroke:#181818;stroke-width:0.5;" width="4" x="585.0523" y="498.8897"/><rect fill="#F1F1F1" height="2" style="stroke:#181818;stroke-width:0.5;" width="4" x="585.0523" y="502.8897"/><text fill="#000000" font-family="sans-serif" font-size="14" lengthAdjust="spacing" textLength="58.1123" x="523.94" y="525.4248">read_file</text></g><!--entity T3--><g class="entity" data-entity="T3" data-source-line="26" data-uid="ent0019" id="entity_T3"><rect fill="#F1F1F1" height="46.4883" rx="2.5" ry="2.5" style="stroke:#181818;stroke-width:0.5;" width="95.6445" x="642.18" y="491.8897"/><rect fill="#F1F1F1" height="10" style="stroke:#181818;stroke-width:0.5;" width="15" x="717.8245" y="496.8897"/><rect fill="#F1F1F1" height="2" style="stroke:#181818;stroke-width:0.5;" width="4" x="715.8245" y="498.8897"/><rect fill="#F1F1F1" height="2" style="stroke:#181818;stroke-width:0.5;" width="4" x="715.8245" y="502.8897"/><text fill="#000000" font-family="sans-serif" font-size="14" lengthAdjust="spacing" textLength="55.6445" x="657.18" y="525.4248">list_files</text></g><!--entity T4--><g class="entity" data-entity="T4" data-source-line="27" data-uid="ent0020" id="entity_T4"><rect fill="#F1F1F1" height="46.4883" rx="2.5" ry="2.5" style="stroke:#181818;stroke-width:0.5;" width="109.5352" x="773.23" y="491.8897"/><rect fill="#F1F1F1" height="10" style="stroke:#181818;stroke-width:0.5;" width="15" x="862.7652" y="496.8897"/><rect fill="#F1F1F1" height="2" style="stroke:#181818;stroke-width:0.5;" width="4" x="860.7652" y="498.8897"/><rect fill="#F1F1F1" height="2" style="stroke:#181818;stroke-width:0.5;" width="4" x="860.7652" y="502.8897"/><text fill="#000000" font-family="sans-serif" font-size="14" lengthAdjust="spacing" textLength="69.5352" x="788.23" y="525.4248">delete_file</text></g><!--link HTTP to AgentCore--><g class="link" data-entity-1="HTTP" data-entity-2="AgentCore" data-source-line="30" data-uid="lnk21" id="link_HTTP_AgentCore"><path d="M446.44,84.7497 C436.89,89.3297 422.08,97.1697 411,106.4297 C393.23,121.2797 380.0795,136.7893 368.4795,152.2593" fill="none" id="HTTP-to-AgentCore" style="stroke:#181818;stroke-width:1;"/><polygon fill="#181818" points="364.88,157.0597,373.4795,152.2588,367.8796,153.0594,367.079,147.4595,364.88,157.0597" style="stroke:#181818;stroke-width:1;"/></g><!--link P2PPort to Proto--><g class="link" data-entity-1="P2PPort" data-entity-2="Proto" data-source-line="31" data-uid="lnk22" id="link_P2PPort_Proto"><path d="M708.37,85.3397 C713.07,103.3897 726.77,166.9297 698,203.9197 C654.43,259.9297 577.3706,277.5768 519.6706,283.3068" fill="none" id="P2PPort-to-Proto" style="stroke:#181818;stroke-width:1;"/><polygon fill="#181818" points="513.7,283.8997,523.0512,286.9907,518.6755,283.4056,522.2607,279.0299,513.7,283.8997" style="stroke:#181818;stroke-width:1;"/></g><!--link SSE to MCP--><g class="link" data-entity-1="SSE" data-entity-2="MCP" data-source-line="32" data-uid="lnk23" id="link_SSE_MCP"><path d="M625.45,83.2397 C642.54,89.6997 683.12,105.1397 684,106.4297 C696.19,124.3297 697.8,187.2197 684,203.9197 C593.76,313.0897 508.62,230.3997 371,263.9197 C365.46,265.2597 365.5067,265.1841 359.7767,266.7541" fill="none" id="SSE-to-MCP" style="stroke:#181818;stroke-width:1;"/><polygon fill="#181818" points="353.99,268.3397,363.7271,269.8192,358.8123,267.0184,361.613,262.1036,353.99,268.3397" style="stroke:#181818;stroke-width:1;"/></g><!--link AgentCore to DSL--><g class="link" data-entity-1="AgentCore" data-entity-2="DSL" data-source-line="34" data-uid="lnk24" id="link_AgentCore_DSL"><path d="M300.4,204.3397 C262.82,221.8697 216.4978,243.484 178.9478,260.994" fill="none" id="AgentCore-to-DSL" style="stroke:#181818;stroke-width:1;"/><polygon fill="#181818" points="173.51,263.5297,183.3572,263.3513,178.0415,261.4166,179.9763,256.1009,173.51,263.5297" style="stroke:#181818;stroke-width:1;"/></g><!--link AgentCore to MCP--><g class="link" data-entity-1="AgentCore" data-entity-2="MCP" data-source-line="35" data-uid="lnk25" id="link_AgentCore_MCP"><path d="M337.5,204.3397 C328.61,221.8697 319.0738,240.6685 310.1938,258.1785" fill="none" id="AgentCore-to-MCP" style="stroke:#181818;stroke-width:1;"/><polygon fill="#181818" points="307.48,263.5297,315.1182,257.3121,309.7415,259.0704,307.9832,253.6937,307.48,263.5297" style="stroke:#181818;stroke-width:1;"/></g><!--link AgentCore to Proto--><g class="link" data-entity-1="AgentCore" data-entity-2="Proto" data-source-line="36" data-uid="lnk26" id="link_AgentCore_Proto"><path d="M371.13,204.3397 C388.24,221.8697 407.6179,241.7271 424.7179,259.2371" fill="none" id="AgentCore-to-Proto" style="stroke:#181818;stroke-width:1;"/><polygon fill="#181818" points="428.91,263.5297,425.4836,254.2961,425.4166,259.9525,419.7601,259.8855,428.91,263.5297" style="stroke:#181818;stroke-width:1;"/></g><!--link DSL to LLM--><g class="link" data-entity-1="DSL" data-entity-2="LLM" data-source-line="37" data-uid="lnk27" id="link_DSL_LLM"><path d="M125,310.8297 C125,328.3597 125,346.4997 125,364.0197" fill="none" id="DSL-to-LLM" style="stroke:#181818;stroke-width:1;"/><polygon fill="#181818" points="125,370.0197,129,361.0197,125,365.0197,121,361.0197,125,370.0197" style="stroke:#181818;stroke-width:1;"/></g><!--link Proto to PeerReg--><g class="link" data-entity-1="Proto" data-entity-2="PeerReg" data-source-line="39" data-uid="lnk28" id="link_Proto_PeerReg"><path d="M513.53,288.6597 C564.84,291.2897 638.19,300.2197 696,327.8997 C716.92,337.9197 732.1477,351.5341 745.4877,366.0341" fill="none" id="Proto-to-PeerReg" style="stroke:#181818;stroke-width:1;"/><polygon fill="#181818" points="749.55,370.4497,746.4002,361.1181,746.1647,366.77,740.5128,366.5345,749.55,370.4497" style="stroke:#181818;stroke-width:1;"/></g><!--link Proto to CardReg--><g class="link" data-entity-1="Proto" data-entity-2="CardReg" data-source-line="40" data-uid="lnk29" id="link_Proto_CardReg"><path d="M513.59,289.9097 C608.31,293.3297 783.05,302.8997 840,327.8997 C861.72,337.4397 877.4668,351.4766 890.9468,366.2566" fill="none" id="Proto-to-CardReg" style="stroke:#181818;stroke-width:1;"/><polygon fill="#181818" points="894.99,370.6897,891.8806,361.3445,891.6207,366.9954,885.9698,366.7355,894.99,370.6897" style="stroke:#181818;stroke-width:1;"/></g><!--link MCP to ToolReg--><g class="link" data-entity-1="MCP" data-entity-2="ToolReg" data-source-line="41" data-uid="lnk30" id="link_MCP_ToolReg"><path d="M354.3,306.5397 C359.91,307.9797 365.54,309.2997 371,310.3997 C440.25,324.3897 462.74,303.3897 529,327.8997 C555.02,337.5297 576.128,352.0127 594.248,366.6927" fill="none" id="MCP-to-ToolReg" style="stroke:#181818;stroke-width:1;"/><polygon fill="#181818" points="598.91,370.4697,594.4349,361.6962,595.025,367.3222,589.399,367.9123,598.91,370.4697" style="stroke:#181818;stroke-width:1;"/></g><!--link ToolReg to T1--><g class="link" data-entity-1="ToolReg" data-entity-2="T1" data-source-line="43" data-uid="lnk31" id="link_ToolReg_T1"><path d="M584.25,416.6997 C567.58,425.2297 547.74,434.4697 529,440.8897 C512.67,446.4897 506.26,440.8297 491,448.8897 C471.33,459.2897 457.3114,472.5259 444.7914,486.8959" fill="none" id="ToolReg-to-T1" style="stroke:#181818;stroke-width:1;"/><polygon fill="#181818" points="440.85,491.4197,449.778,487.2616,444.1345,487.6498,443.7463,482.0063,440.85,491.4197" style="stroke:#181818;stroke-width:1;"/></g><!--link ToolReg to T2--><g class="link" data-entity-1="ToolReg" data-entity-2="T2" data-source-line="44" data-uid="lnk32" id="link_ToolReg_T2"><path d="M611.74,416.8397 C599.96,438.1697 585.1507,464.9775 573.3207,486.3975" fill="none" id="ToolReg-to-T2" style="stroke:#181818;stroke-width:1;"/><polygon fill="#181818" points="570.42,491.6497,578.2726,485.7052,572.8373,487.2728,571.2696,481.8375,570.42,491.6497" style="stroke:#181818;stroke-width:1;"/></g><!--link ToolReg to T3--><g class="link" data-entity-1="ToolReg" data-entity-2="T3" data-source-line="45" data-uid="lnk33" id="link_ToolReg_T3"><path d="M636.26,416.8397 C648.04,438.1697 662.8493,464.9775 674.6793,486.3975" fill="none" id="ToolReg-to-T3" style="stroke:#181818;stroke-width:1;"/><polygon fill="#181818" points="677.58,491.6497,676.7304,481.8375,675.1627,487.2728,669.7274,485.7052,677.58,491.6497" style="stroke:#181818;stroke-width:1;"/></g><!--link ToolReg to T4--><g class="link" data-entity-1="ToolReg" data-entity-2="T4" data-source-line="46" data-uid="lnk34" id="link_ToolReg_T4"><path d="M652.24,416.8597 C664.93,425.7397 680.53,435.1897 696,440.8897 C720.83,450.0397 730.97,437.8097 755,448.8897 C776.3,458.7097 791.7886,472.4933 805.2886,487.1733" fill="none" id="ToolReg-to-T4" style="stroke:#181818;stroke-width:1;"/><polygon fill="#181818" points="809.35,491.5897,806.2021,482.2574,805.9655,487.9093,800.3136,487.6727,809.35,491.5897" style="stroke:#181818;stroke-width:1;"/></g><!--SRC=[PPBBQiCm44Nt_eh1-u3pMBIRGd4BNJXKrDw5KjHuaWhKA4YY3qh-lJEQs8uTq4Btt2lDMEDeeaLGNl-O0FTxF4GetUVH7MWNicpRxI6_pEJmbm7GEZfFrbFJABWfYY877O1LRwc5WbLHp9D3GX7jpRf-f6EtSeo4t7bHitGUfHR0fklEuoldasGbxaDTmRFVVc28NaVdKuQWkEjIGOt-2uMJ5CxjAU-YspgRd2J4gwerbDPGbUIG97wwwl45zuPg6WnTfwsE-bq7XBnnpi8vy9k-aWc1IKuX-d6EoNMkrBuTvvX8xhephjKtjVds9kBRpbXvlcOksADkB-X2gAKAYGR1Iy4jMXnTiXeAfvzWDhiR3UOyySIxf-MfivOXqEeF92mp6pE9Zbbt7G-UjSo7Qx8XaVuH1pOy6FyJJ8QHq3eBCUPJi9Y2vHIiibFs3m00]--></g></svg>