<svg xmlns="http://www.w3.org/2000/svg" xmlns:xlink="http://www.w3.org/1999/xlink" contentStyleType="text/css" data-diagram-type="SEQUENCE" height="823px" preserveAspectRatio="none" style="width:1826px;height:823px;background:#FFFFFF;" version="1.1" viewBox="0 0 1826 823" width="1826px" zoomAndPan="magnify"><defs/><g><g><title>Client</title><rect fill="#000000" fill-opacity="0.00000" height="716.3843" width="8" x="43.0874" y="54.0293"/><line style="stroke:#000000;stroke-width:1;" x1="47" x2="47" y1="54.0293" y2="770.4136"/></g><g><title>Agent 1</title><rect fill="#000000" fill-opacity="0.00000" height="716.3843" width="8" x="247.9004" y="54.0293"/><line style="stroke:#000000;stroke-width:1;" x1="251.3784" x2="251.3784" y1="54.0293" y2="770.4136"/></g><g><title>DSL</title><rect fill="#000000" fill-opacity="0.00000" height="716.3843" width="8" x="354.7397" y="54.0293"/><line style="stroke:#000000;stroke-width:1;" x1="358.4224" x2="358.4224" y1="54.0293" y2="770.4136"/></g><g><title>Agent 1</title><rect fill="#000000" fill-opacity="0.00000" height="716.3843" width="8" x="575.4092" y="54.0293"/><line style="stroke:#000000;stroke-width:1;" x1="578.9937" x2="578.9937" y1="54.0293" y2="770.4136"/></g><g><title>P2P</title><rect fill="#000000" fill-opacity="0.00000" height="716.3843" width="8" x="847.0122" y="54.0293"/><line style="stroke:#000000;stroke-width:1;" x1="850.7319" x2="850.7319" y1="54.0293" y2="770.4136"/></g><g><title>P2P</title><rect fill="#000000" fill-opacity="0.00000" height="716.3843" width="8" x="1008.0137" y="54.0293"/><line style="stroke:#000000;stroke-width:1;" x1="1011.7422" x2="1011.7422" y1="54.0293" y2="770.4136"/></g><g><title>Agent 2</title><rect fill="#000000" fill-opacity="0.00000" height="716.3843" width="8" x="1169.0151" y="54.0293"/><line style="stroke:#000000;stroke-width:1;" x1="1172.5996" x2="1172.5996" y1="54.0293" y2="770.4136"/></g><g><title>Agent 2</title><rect fill="#000000" fill-opacity="0.00000" height="716.3843" width="8" x="1334.7837" y="54.0293"/><line style="stroke:#000000;stroke-width:1;" x1="1338.7148" x2="1338.7148" y1="54.0293" y2="770.4136"/></g><g><title>MCP</title><rect fill="#000000" fill-opacity="0.00000" height="716.3843" width="8" x="1548.3438" y="54.0293"/><line style="stroke:#000000;stroke-width:1;" x1="1552.1016" x2="1552.1016" y1="54.0293" y2="770.4136"/></g><g><title>Filesystem</title><rect fill="#000000" fill-opacity="0.00000" height="716.3843" width="8" x="1720.3267" y="54.0293"/><line style="stroke:#000000;stroke-width:1;" x1="1724.1187" x2="1724.1187" y1="54.0293" y2="770.4136"/></g><g class="participant participant-head" data-participant="C"><rect fill="#FFFFFF" height="31.0146" rx="2.5" ry="2.5" style="stroke:#000000;stroke-width:1;" width="54.1748" x="20" y="22.0146"/><text fill="#000000" font-family="Verdana" font-size="14" lengthAdjust="spacing" textLength="40.1748" x="27" y="43.0898">Client</text></g><g class="participant participant-tail" data-participant="C"><rect fill="#FFFFFF" height="31.0146" rx="2.5" ry="2.5" style="stroke:#000000;stroke-width:1;" width="54.1748" x="20" y="769.4136"/><text fill="#000000" font-family="Verdana" font-size="14" lengthAdjust="spacing" textLength="40.1748" x="27" y="790.4888">Client</text></g><g class="participant participant-head" data-participant="A1"><rect fill="#FFFFFF" height="48.0293" rx="2.5" ry="2.5" style="stroke:#000000;stroke-width:1;" width="79.0439" x="212.3784" y="5"/><text fill="#000000" font-family="Verdana" font-size="14" lengthAdjust="spacing" textLength="54.8311" x="224.4849" y="26.0752">Agent 1</text><text fill="#000000" font-family="Verdana" font-size="14" lengthAdjust="spacing" textLength="65.0439" x="219.3784" y="43.0898">HTTP API</text></g><g class="participant participant-tail" data-participant="A1"><rect fill="#FFFFFF" height="48.0293" rx="2.5" ry="2.5" style="stroke:#000000;stroke-width:1;" width="79.0439" x="212.3784" y="769.4136"/><text fill="#000000" font-family="Verdana" font-size="14" lengthAdjust="spacing" textLength="54.8311" x="224.4849" y="790.4888">Agent 1</text><text fill="#000000" font-family="Verdana" font-size="14" lengthAdjust="spacing" textLength="65.0439" x="219.3784" y="807.5034">HTTP API</text></g><g class="participant participant-head" data-participant="DSL"><rect fill="#FFFFFF" height="48.0293" rx="2.5" ry="2.5" style="stroke:#000000;stroke-width:1;" width="74.6348" x="321.4224" y="5"/><text fill="#000000" font-family="Verdana" font-size="14" lengthAdjust="spacing" textLength="28.1504" x="344.6646" y="26.0752">DSL</text><text fill="#000000" font-family="Verdana" font-size="14" lengthAdjust="spacing" textLength="60.6348" x="328.4224" y="43.0898">Analyzer</text></g><g class="participant participant-tail" data-participant="DSL"><rect fill="#FFFFFF" height="48.0293" rx="2.5" ry="2.5" style="stroke:#000000;stroke-width:1;" width="74.6348" x="321.4224" y="769.4136"/><text fill="#000000" font-family="Verdana" font-size="14" lengthAdjust="spacing" textLength="28.1504" x="344.6646" y="790.4888">DSL</text><text fill="#000000" font-family="Verdana" font-size="14" lengthAdjust="spacing" textLength="60.6348" x="328.4224" y="807.5034">Analyzer</text></g><g class="participant participant-head" data-participant="Core1"><rect fill="#FFFFFF" height="48.0293" rx="2.5" ry="2.5" style="stroke:#000000;stroke-width:1;" width="68.8311" x="544.9937" y="5"/><text fill="#000000" font-family="Verdana" font-size="14" lengthAdjust="spacing" textLength="54.8311" x="551.9937" y="26.0752">Agent 1</text><text fill="#000000" font-family="Verdana" font-size="14" lengthAdjust="spacing" textLength="32.5869" x="563.1157" y="43.0898">Core</text></g><g class="participant participant-tail" data-participant="Core1"><rect fill="#FFFFFF" height="48.0293" rx="2.5" ry="2.5" style="stroke:#000000;stroke-width:1;" width="68.8311" x="544.9937" y="769.4136"/><text fill="#000000" font-family="Verdana" font-size="14" lengthAdjust="spacing" textLength="54.8311" x="551.9937" y="790.4888">Agent 1</text><text fill="#000000" font-family="Verdana" font-size="14" lengthAdjust="spacing" textLength="32.5869" x="563.1157" y="807.5034">Core</text></g><g class="participant participant-head" data-participant="P2P1"><rect fill="#FFFFFF" height="48.0293" rx="2.5" ry="2.5" style="stroke:#000000;stroke-width:1;" width="70.5605" x="815.7319" y="5"/><text fill="#000000" font-family="Verdana" font-size="14" lengthAdjust="spacing" textLength="25.7852" x="838.1196" y="26.0752">P2P</text><text fill="#000000" font-family="Verdana" font-size="14" lengthAdjust="spacing" textLength="56.5605" x="822.7319" y="43.0898">Protocol</text></g><g class="participant participant-tail" data-participant="P2P1"><rect fill="#FFFFFF" height="48.0293" rx="2.5" ry="2.5" style="stroke:#000000;stroke-width:1;" width="70.5605" x="815.7319" y="769.4136"/><text fill="#000000" font-family="Verdana" font-size="14" lengthAdjust="spacing" textLength="25.7852" x="838.1196" y="790.4888">P2P</text><text fill="#000000" font-family="Verdana" font-size="14" lengthAdjust="spacing" textLength="56.5605" x="822.7319" y="807.5034">Protocol</text></g><g class="participant participant-head" data-participant="Net"><rect fill="#FFFFFF" height="48.0293" rx="2.5" ry="2.5" style="stroke:#000000;stroke-width:1;" width="72.543" x="975.7422" y="5"/><text fill="#000000" font-family="Verdana" font-size="14" lengthAdjust="spacing" textLength="25.7852" x="999.1211" y="26.0752">P2P</text><text fill="#000000" font-family="Verdana" font-size="14" lengthAdjust="spacing" textLength="58.543" x="982.7422" y="43.0898">Network</text></g><g class="participant participant-tail" data-participant="Net"><rect fill="#FFFFFF" height="48.0293" rx="2.5" ry="2.5" style="stroke:#000000;stroke-width:1;" width="72.543" x="975.7422" y="769.4136"/><text fill="#000000" font-family="Verdana" font-size="14" lengthAdjust="spacing" textLength="25.7852" x="999.1211" y="790.4888">P2P</text><text fill="#000000" font-family="Verdana" font-size="14" lengthAdjust="spacing" textLength="58.543" x="982.7422" y="807.5034">Network</text></g><g class="participant participant-head" data-participant="P2P2"><rect fill="#FFFFFF" height="48.0293" rx="2.5" ry="2.5" style="stroke:#000000;stroke-width:1;" width="68.8311" x="1138.5996" y="5"/><text fill="#000000" font-family="Verdana" font-size="14" lengthAdjust="spacing" textLength="54.8311" x="1145.5996" y="26.0752">Agent 2</text><text fill="#000000" font-family="Verdana" font-size="14" lengthAdjust="spacing" textLength="25.7852" x="1160.1226" y="43.0898">P2P</text></g><g class="participant participant-tail" data-participant="P2P2"><rect fill="#FFFFFF" height="48.0293" rx="2.5" ry="2.5" style="stroke:#000000;stroke-width:1;" width="68.8311" x="1138.5996" y="769.4136"/><text fill="#000000" font-family="Verdana" font-size="14" lengthAdjust="spacing" textLength="54.8311" x="1145.5996" y="790.4888">Agent 2</text><text fill="#000000" font-family="Verdana" font-size="14" lengthAdjust="spacing" textLength="25.7852" x="1160.1226" y="807.5034">P2P</text></g><g class="participant participant-head" data-participant="Bridge"><rect fill="#FFFFFF" height="48.0293" rx="2.5" ry="2.5" style="stroke:#000000;stroke-width:1;" width="94.1377" x="1291.7148" y="5"/><text fill="#000000" font-family="Verdana" font-size="14" lengthAdjust="spacing" textLength="54.8311" x="1311.3682" y="26.0752">Agent 2</text><text fill="#000000" font-family="Verdana" font-size="14" lengthAdjust="spacing" textLength="80.1377" x="1298.7148" y="43.0898">MCP Bridge</text></g><g class="participant participant-tail" data-participant="Bridge"><rect fill="#FFFFFF" height="48.0293" rx="2.5" ry="2.5" style="stroke:#000000;stroke-width:1;" width="94.1377" x="1291.7148" y="769.4136"/><text fill="#000000" font-family="Verdana" font-size="14" lengthAdjust="spacing" textLength="54.8311" x="1311.3682" y="790.4888">Agent 2</text><text fill="#000000" font-family="Verdana" font-size="14" lengthAdjust="spacing" textLength="80.1377" x="1298.7148" y="807.5034">MCP Bridge</text></g><g class="participant participant-head" data-participant="MCP"><rect fill="#FFFFFF" height="48.0293" rx="2.5" ry="2.5" style="stroke:#000000;stroke-width:1;" width="60.4844" x="1522.1016" y="5"/><text fill="#000000" font-family="Verdana" font-size="14" lengthAdjust="spacing" textLength="30.0166" x="1537.3354" y="26.0752">MCP</text><text fill="#000000" font-family="Verdana" font-size="14" lengthAdjust="spacing" textLength="46.4844" x="1529.1016" y="43.0898">Server</text></g><g class="participant participant-tail" data-participant="MCP"><rect fill="#FFFFFF" height="48.0293" rx="2.5" ry="2.5" style="stroke:#000000;stroke-width:1;" width="60.4844" x="1522.1016" y="769.4136"/><text fill="#000000" font-family="Verdana" font-size="14" lengthAdjust="spacing" textLength="30.0166" x="1537.3354" y="790.4888">MCP</text><text fill="#000000" font-family="Verdana" font-size="14" lengthAdjust="spacing" textLength="46.4844" x="1529.1016" y="807.5034">Server</text></g><g class="participant participant-head" data-participant="FS"><rect fill="#FFFFFF" height="48.0293" rx="2.5" ry="2.5" style="stroke:#000000;stroke-width:1;" width="88.416" x="1680.1187" y="5"/><text fill="#000000" font-family="Verdana" font-size="14" lengthAdjust="spacing" textLength="74.416" x="1687.1187" y="26.0752">Filesystem</text><text fill="#000000" font-family="Verdana" font-size="14" lengthAdjust="spacing" textLength="29.4629" x="1709.5952" y="43.0898">Tool</text></g><g class="participant participant-tail" data-participant="FS"><rect fill="#FFFFFF" height="48.0293" rx="2.5" ry="2.5" style="stroke:#000000;stroke-width:1;" width="88.416" x="1680.1187" y="769.4136"/><text fill="#000000" font-family="Verdana" font-size="14" lengthAdjust="spacing" textLength="74.416" x="1687.1187" y="790.4888">Filesystem</text><text fill="#000000" font-family="Verdana" font-size="14" lengthAdjust="spacing" textLength="29.4629" x="1709.5952" y="807.5034">Tool</text></g><g class="message" data-participant-1="C" data-participant-2="A1"><polygon fill="#000000" points="239.9004,97.6279,249.9004,101.6279,239.9004,105.6279,243.9004,101.6279" style="stroke:#000000;stroke-width:1;"/><line style="stroke:#000000;stroke-width:1;" x1="47.0874" x2="245.9004" y1="101.6279" y2="101.6279"/><text fill="#000000" font-family="Verdana" font-size="13" lengthAdjust="spacing" textLength="96.4907" x="54.0874" y="81.0991">POST /execute</text><text fill="#000000" font-family="Verdana" font-size="13" lengthAdjust="spacing" textLength="180.813" x="54.0874" y="96.8984">{"dsl": "CALL write_file..."}</text></g><g class="message" data-participant-1="A1" data-participant-2="DSL"><polygon fill="#000000" points="346.7397,127.4272,356.7397,131.4272,346.7397,135.4272,350.7397,131.4272" style="stroke:#000000;stroke-width:1;"/><line style="stroke:#000000;stroke-width:1;" x1="251.9004" x2="352.7397" y1="131.4272" y2="131.4272"/><text fill="#000000" font-family="Verdana" font-size="13" lengthAdjust="spacing" textLength="66.4219" x="258.9004" y="126.6978">Parse DSL</text></g><g class="message" data-participant-1="DSL" data-participant-2="Core1"><polygon fill="#000000" points="567.4092,157.2266,577.4092,161.2266,567.4092,165.2266,571.4092,161.2266" style="stroke:#000000;stroke-width:1;"/><line style="stroke:#000000;stroke-width:1;" x1="358.7397" x2="573.4092" y1="161.2266" y2="161.2266"/><text fill="#000000" font-family="Verdana" font-size="13" lengthAdjust="spacing" textLength="196.6694" x="365.7397" y="156.4971">executeCall("write_file", args)</text></g><g class="message" data-participant-1="Core1" data-participant-2="Core1"><line style="stroke:#000000;stroke-width:1;" x1="579.4092" x2="621.4092" y1="206.8252" y2="206.8252"/><line style="stroke:#000000;stroke-width:1;" x1="621.4092" x2="621.4092" y1="206.8252" y2="219.8252"/><line style="stroke:#000000;stroke-width:1;" x1="580.4092" x2="621.4092" y1="219.8252" y2="219.8252"/><polygon fill="#000000" points="590.4092,215.8252,580.4092,219.8252,590.4092,223.8252,586.4092,219.8252" style="stroke:#000000;stroke-width:1;"/><text fill="#000000" font-family="Verdana" font-size="13" lengthAdjust="spacing" textLength="169.0571" x="586.4092" y="186.2964">HasLocalTool("write_file")</text><text fill="#000000" font-family="Verdana" font-size="13" lengthAdjust="spacing" textLength="94.0278" x="586.4092" y="202.0957">[returns false]</text></g><g class="message" data-participant-1="Core1" data-participant-2="Core1"><line style="stroke:#000000;stroke-width:1;" x1="579.4092" x2="621.4092" y1="249.6245" y2="249.6245"/><line style="stroke:#000000;stroke-width:1;" x1="621.4092" x2="621.4092" y1="249.6245" y2="262.6245"/><line style="stroke:#000000;stroke-width:1;" x1="580.4092" x2="621.4092" y1="262.6245" y2="262.6245"/><polygon fill="#000000" points="590.4092,258.6245,580.4092,262.6245,590.4092,266.6245,586.4092,262.6245" style="stroke:#000000;stroke-width:1;"/><text fill="#000000" font-family="Verdana" font-size="13" lengthAdjust="spacing" textLength="206.6479" x="586.4092" y="244.895">FindAgentWithTool("write_file")</text></g><g class="message" data-participant-1="Core1" data-participant-2="P2P1"><polygon fill="#000000" points="839.0122,288.4238,849.0122,292.4238,839.0122,296.4238,843.0122,292.4238" style="stroke:#000000;stroke-width:1;"/><line style="stroke:#000000;stroke-width:1;" x1="579.4092" x2="845.0122" y1="292.4238" y2="292.4238"/><text fill="#000000" font-family="Verdana" font-size="13" lengthAdjust="spacing" textLength="247.603" x="586.4092" y="287.6943">InvokeTool(peerID, "write_file", args)</text></g><g class="message" data-participant-1="P2P1" data-participant-2="Net"><polygon fill="#000000" points="1000.0137,318.2231,1010.0137,322.2231,1000.0137,326.2231,1004.0137,322.2231" style="stroke:#000000;stroke-width:1;"/><line style="stroke:#000000;stroke-width:1;" x1="851.0122" x2="1006.0137" y1="322.2231" y2="322.2231"/><text fill="#000000" font-family="Verdana" font-size="13" lengthAdjust="spacing" textLength="137.0015" x="858.0122" y="317.4937">Tool Request Stream</text></g><g class="message" data-participant-1="Net" data-participant-2="P2P2"><polygon fill="#000000" points="1161.0151,348.0225,1171.0151,352.0225,1161.0151,356.0225,1165.0151,352.0225" style="stroke:#000000;stroke-width:1;"/><line style="stroke:#000000;stroke-width:1;" x1="1012.0137" x2="1167.0151" y1="352.0225" y2="352.0225"/><text fill="#000000" font-family="Verdana" font-size="13" lengthAdjust="spacing" textLength="137.0015" x="1019.0137" y="347.293">Tool Request Stream</text></g><g class="message" data-participant-1="P2P2" data-participant-2="Bridge"><polygon fill="#000000" points="1326.7837,377.8218,1336.7837,381.8218,1326.7837,385.8218,1330.7837,381.8218" style="stroke:#000000;stroke-width:1;"/><line style="stroke:#000000;stroke-width:1;" x1="1173.0151" x2="1332.7837" y1="381.8218" y2="381.8218"/><text fill="#000000" font-family="Verdana" font-size="13" lengthAdjust="spacing" textLength="141.7686" x="1180.0151" y="377.0923">ProcessMCPRequest()</text></g><g class="message" data-participant-1="Bridge" data-participant-2="MCP"><polygon fill="#000000" points="1540.3438,407.6211,1550.3438,411.6211,1540.3438,415.6211,1544.3438,411.6211" style="stroke:#000000;stroke-width:1;"/><line style="stroke:#000000;stroke-width:1;" x1="1338.7837" x2="1546.3438" y1="411.6211" y2="411.6211"/><text fill="#000000" font-family="Verdana" font-size="13" lengthAdjust="spacing" textLength="189.5601" x="1345.7837" y="406.8916">FindToolHandler("write_file")</text></g><g class="message" data-participant-1="MCP" data-participant-2="FS"><polygon fill="#000000" points="1712.3267,437.4204,1722.3267,441.4204,1712.3267,445.4204,1716.3267,441.4204" style="stroke:#000000;stroke-width:1;"/><line style="stroke:#000000;stroke-width:1;" x1="1552.3438" x2="1718.3267" y1="441.4204" y2="441.4204"/><text fill="#000000" font-family="Verdana" font-size="13" lengthAdjust="spacing" textLength="147.9829" x="1559.3438" y="436.6909">WriteFileHandler(args)</text></g><g class="message" data-participant-1="FS" data-participant-2="FS"><line style="stroke:#000000;stroke-width:1;" x1="1724.3267" x2="1766.3267" y1="471.2197" y2="471.2197"/><line style="stroke:#000000;stroke-width:1;" x1="1766.3267" x2="1766.3267" y1="471.2197" y2="484.2197"/><line style="stroke:#000000;stroke-width:1;" x1="1725.3267" x2="1766.3267" y1="484.2197" y2="484.2197"/><polygon fill="#000000" points="1735.3267,480.2197,1725.3267,484.2197,1735.3267,488.2197,1731.3267,484.2197" style="stroke:#000000;stroke-width:1;"/><text fill="#000000" font-family="Verdana" font-size="13" lengthAdjust="spacing" textLength="88.3848" x="1731.3267" y="466.4902">os.WriteFile()</text></g><g class="message" data-participant-1="FS" data-participant-2="MCP"><polygon fill="#000000" points="1563.3438,510.019,1553.3438,514.019,1563.3438,518.019,1559.3438,514.019" style="stroke:#000000;stroke-width:1;"/><line style="stroke:#000000;stroke-width:1;stroke-dasharray:2,2;" x1="1557.3438" x2="1723.3267" y1="514.019" y2="514.019"/><text fill="#000000" font-family="Verdana" font-size="13" lengthAdjust="spacing" textLength="51.9492" x="1569.3438" y="509.2896">Success</text></g><g class="message" data-participant-1="MCP" data-participant-2="Bridge"><polygon fill="#000000" points="1349.7837,539.8184,1339.7837,543.8184,1349.7837,547.8184,1345.7837,543.8184" style="stroke:#000000;stroke-width:1;"/><line style="stroke:#000000;stroke-width:1;stroke-dasharray:2,2;" x1="1343.7837" x2="1551.3438" y1="543.8184" y2="543.8184"/><text fill="#000000" font-family="Verdana" font-size="13" lengthAdjust="spacing" textLength="40.4727" x="1355.7837" y="539.0889">Result</text></g><g class="message" data-participant-1="Bridge" data-participant-2="P2P2"><polygon fill="#000000" points="1184.0151,569.6177,1174.0151,573.6177,1184.0151,577.6177,1180.0151,573.6177" style="stroke:#000000;stroke-width:1;"/><line style="stroke:#000000;stroke-width:1;stroke-dasharray:2,2;" x1="1178.0151" x2="1337.7837" y1="573.6177" y2="573.6177"/><text fill="#000000" font-family="Verdana" font-size="13" lengthAdjust="spacing" textLength="62.2896" x="1190.0151" y="568.8882">Response</text></g><g class="message" data-participant-1="P2P2" data-participant-2="Net"><polygon fill="#000000" points="1023.0137,599.417,1013.0137,603.417,1023.0137,607.417,1019.0137,603.417" style="stroke:#000000;stroke-width:1;"/><line style="stroke:#000000;stroke-width:1;stroke-dasharray:2,2;" x1="1017.0137" x2="1172.0151" y1="603.417" y2="603.417"/><text fill="#000000" font-family="Verdana" font-size="13" lengthAdjust="spacing" textLength="94.2183" x="1029.0137" y="598.6875">Tool Response</text></g><g class="message" data-participant-1="Net" data-participant-2="P2P1"><polygon fill="#000000" points="862.0122,629.2163,852.0122,633.2163,862.0122,637.2163,858.0122,633.2163" style="stroke:#000000;stroke-width:1;"/><line style="stroke:#000000;stroke-width:1;stroke-dasharray:2,2;" x1="856.0122" x2="1011.0137" y1="633.2163" y2="633.2163"/><text fill="#000000" font-family="Verdana" font-size="13" lengthAdjust="spacing" textLength="94.2183" x="868.0122" y="628.4868">Tool Response</text></g><g class="message" data-participant-1="P2P1" data-participant-2="Core1"><polygon fill="#000000" points="590.4092,659.0156,580.4092,663.0156,590.4092,667.0156,586.4092,663.0156" style="stroke:#000000;stroke-width:1;"/><line style="stroke:#000000;stroke-width:1;stroke-dasharray:2,2;" x1="584.4092" x2="850.0122" y1="663.0156" y2="663.0156"/><text fill="#000000" font-family="Verdana" font-size="13" lengthAdjust="spacing" textLength="40.4727" x="596.4092" y="658.2861">Result</text></g><g class="message" data-participant-1="Core1" data-participant-2="DSL"><polygon fill="#000000" points="369.7397,688.8149,359.7397,692.8149,369.7397,696.8149,365.7397,692.8149" style="stroke:#000000;stroke-width:1;"/><line style="stroke:#000000;stroke-width:1;stroke-dasharray:2,2;" x1="363.7397" x2="578.4092" y1="692.8149" y2="692.8149"/><text fill="#000000" font-family="Verdana" font-size="13" lengthAdjust="spacing" textLength="40.4727" x="375.7397" y="688.0854">Result</text></g><g class="message" data-participant-1="DSL" data-participant-2="A1"><polygon fill="#000000" points="262.9004,718.6143,252.9004,722.6143,262.9004,726.6143,258.9004,722.6143" style="stroke:#000000;stroke-width:1;"/><line style="stroke:#000000;stroke-width:1;stroke-dasharray:2,2;" x1="256.9004" x2="357.7397" y1="722.6143" y2="722.6143"/><text fill="#000000" font-family="Verdana" font-size="13" lengthAdjust="spacing" textLength="40.4727" x="268.9004" y="717.8848">Result</text></g><g class="message" data-participant-1="A1" data-participant-2="C"><polygon fill="#000000" points="58.0874,748.4136,48.0874,752.4136,58.0874,756.4136,54.0874,752.4136" style="stroke:#000000;stroke-width:1;"/><line style="stroke:#000000;stroke-width:1;stroke-dasharray:2,2;" x1="52.0874" x2="250.9004" y1="752.4136" y2="752.4136"/><text fill="#000000" font-family="Verdana" font-size="13" lengthAdjust="spacing" textLength="101.6133" x="64.0874" y="747.6841">JSON Response</text></g><!--SRC=[TP9DJ-Cm48Rl-HMpERKI53N77912KDIkkX2HIXp8QcMbGubmxQpjmC9g__kEFzAIKWwHd9bdNi-yus_c2NS87MUjYAAEATCsRSU4WJZdBGeJ0zEGZpFPbX8mhyLYlIuXAvSEokPZwhfQrI8JZB-zet84HRuGogL2VnCTZdJAfAn5gQIHZUGEeiWfvWRDgrJF3g7pgQiIKahAGIJv0lcHbt2bsitMz-IFOvQGMbIeNi9ez3y6YfQZVjC6TxLOoz1uKKLH3kUNv5KAvMsrXWlyWqrli1P_uutcSKg-PwiLlAhMuAz74fdDPl6_A9lRCZAGwfZIwBoapqQTPoa4fPnnFeaFzV4PCBNLqyXX7_W5qolPC6wx6nLCQ_6WqFHAQ7XaNEFFJxL5ApREhllMF7qMEF1sLIainOjyHiTrY6fvVGQdEhImBQBbfM1fkCFVFMe3bL78TX4bWcXo6h0PI_YLaLTADgWrRIU0asdaSvQYi1_5IYsOs71KHuFOfq1aKQLmR-DshGFfcowg0P1wjcScFZ5SKlMDxSFBVUZl3dNFpRwb_MmKxwJG60OwyYJad1jxZySvR-LXOU6Yi9VXAOMeUqVXLOPG5gfJ-5xTtXnq_mC0]--></g></svg>