<svg xmlns="http://www.w3.org/2000/svg" xmlns:xlink="http://www.w3.org/1999/xlink" contentStyleType="text/css" data-diagram-type="ACTIVITY" height="942px" preserveAspectRatio="none" style="width:561px;height:942px;background:#FFFFFF;" version="1.1" viewBox="0 0 561 942" width="561px" zoomAndPan="magnify"><title>Data Flow - DSL to File Creation</title><defs/><g><g class="title" data-source-line="1"><text fill="#000000" font-family="sans-serif" font-size="14" font-weight="bold" lengthAdjust="spacing" textLength="231.8135" x="163.1877" y="33.5352">Data Flow - DSL to File Creation</text></g><ellipse cx="238.7842" cy="57.4883" fill="#222222" rx="10" ry="10" style="stroke:#222222;stroke-width:1;"/><path d="M298.8926,91.8994 L298.8926,100.5547 L278.8926,104.5547 L298.8926,108.5547 L298.8926,117.21 A0,0 0 0 0 298.8926,117.21 L549.189,117.21 A0,0 0 0 0 549.189,117.21 L549.189,101.8994 L539.189,91.8994 L298.8926,91.8994 A0,0 0 0 0 298.8926,91.8994" fill="#FEFFDD" style="stroke:#181818;stroke-width:0.5;"/><path d="M539.189,91.8994 L539.189,101.8994 L549.189,101.8994 L539.189,91.8994" fill="#FEFFDD" style="stroke:#181818;stroke-width:0.5;"/><text fill="#000000" font-family="sans-serif" font-size="13" lengthAdjust="spacing" textLength="229.2964" x="304.8926" y="109.4678">CALL write_file test.txt "Hello World"</text><rect fill="#F1F1F1" height="34.1328" rx="12.5" ry="12.5" style="stroke:#181818;stroke-width:0.5;" width="80.2168" x="198.6758" y="87.4883"/><text fill="#000000" font-family="sans-serif" font-size="12" lengthAdjust="spacing" textLength="60.2168" x="208.6758" y="109.0898">User Input</text><rect fill="#F1F1F1" height="34.1328" rx="12.5" ry="12.5" style="stroke:#181818;stroke-width:0.5;" width="140.0176" x="168.7754" y="141.6211"/><text fill="#000000" font-family="sans-serif" font-size="12" lengthAdjust="spacing" textLength="120.0176" x="178.7754" y="163.2227">HTTP POST /execute</text><path d="M10,200.165 L10,225.4756 A0,0 0 0 0 10,225.4756 L180.4746,225.4756 A0,0 0 0 0 180.4746,225.4756 L180.4746,218.165 L200.4746,212.8203 L180.4746,210.165 L180.4746,210.165 L170.4746,200.165 L10,200.165 A0,0 0 0 0 10,200.165" fill="#FEFFDD" style="stroke:#181818;stroke-width:0.5;"/><path d="M170.4746,200.165 L170.4746,210.165 L180.4746,210.165 L170.4746,200.165" fill="#FEFFDD" style="stroke:#181818;stroke-width:0.5;"/><text fill="#000000" font-family="sans-serif" font-size="13" lengthAdjust="spacing" textLength="149.4746" x="16" y="217.7334">Tokenize and build AST</text><rect fill="#F1F1F1" height="34.1328" rx="12.5" ry="12.5" style="stroke:#181818;stroke-width:0.5;" width="76.6191" x="200.4746" y="195.7539"/><text fill="#000000" font-family="sans-serif" font-size="12" lengthAdjust="spacing" textLength="56.6191" x="210.4746" y="217.3555">Parse DSL</text><rect fill="#F1F1F1" height="34.1328" rx="12.5" ry="12.5" style="stroke:#181818;stroke-width:0.5;" width="129.1602" x="174.2041" y="249.8867"/><text fill="#000000" font-family="sans-serif" font-size="12" lengthAdjust="spacing" textLength="109.1602" x="184.2041" y="271.4883">Analyze Command</text><polygon fill="#F1F1F1" points="209.1438,304.0195,268.4246,304.0195,280.4246,316.0195,268.4246,328.0195,209.1438,328.0195,197.1438,316.0195,209.1438,304.0195" style="stroke:#181818;stroke-width:0.5;"/><text fill="#000000" font-family="sans-serif" font-size="11" lengthAdjust="spacing" textLength="59.2808" x="209.1438" y="320.1768">Local Tool?</text><text fill="#000000" font-family="sans-serif" font-size="11" lengthAdjust="spacing" textLength="13.5835" x="183.5603" y="313.6992">no</text><text fill="#000000" font-family="sans-serif" font-size="11" lengthAdjust="spacing" textLength="17.4829" x="280.4246" y="313.6992">yes</text><rect fill="#F1F1F1" height="34.1328" rx="12.5" ry="12.5" style="stroke:#181818;stroke-width:0.5;" width="134.1523" x="88.8325" y="338.0195"/><text fill="#000000" font-family="sans-serif" font-size="12" lengthAdjust="spacing" textLength="114.1523" x="98.8325" y="359.6211">Query Peer Registry</text><rect fill="#F1F1F1" height="34.1328" rx="12.5" ry="12.5" style="stroke:#181818;stroke-width:0.5;" width="141.125" x="85.3462" y="392.1523"/><text fill="#000000" font-family="sans-serif" font-size="12" lengthAdjust="spacing" textLength="121.125" x="95.3462" y="413.7539">Find Agent with Tool</text><rect fill="#F1F1F1" height="34.1328" rx="12.5" ry="12.5" style="stroke:#181818;stroke-width:0.5;" width="132.7109" x="89.5532" y="446.2852"/><text fill="#000000" font-family="sans-serif" font-size="12" lengthAdjust="spacing" textLength="112.7109" x="99.5532" y="467.8867">Create P2P Request</text><rect fill="#F1F1F1" height="34.1328" rx="12.5" ry="12.5" style="stroke:#181818;stroke-width:0.5;" width="109.2324" x="101.2925" y="500.418"/><text fill="#000000" font-family="sans-serif" font-size="12" lengthAdjust="spacing" textLength="89.2324" x="111.2925" y="522.0195">Send via libp2p</text><rect fill="#F1F1F1" height="34.1328" rx="12.5" ry="12.5" style="stroke:#181818;stroke-width:0.5;" width="162.7813" x="74.5181" y="554.5508"/><text fill="#000000" font-family="sans-serif" font-size="12" lengthAdjust="spacing" textLength="142.7813" x="84.5181" y="576.1523">Remote Agent Processes</text><rect fill="#F1F1F1" height="34.1328" rx="12.5" ry="12.5" style="stroke:#181818;stroke-width:0.5;" width="123.9805" x="93.9185" y="608.6836"/><text fill="#000000" font-family="sans-serif" font-size="12" lengthAdjust="spacing" textLength="103.9805" x="103.9185" y="630.2852">Execute MCP Tool</text><rect fill="#F1F1F1" height="34.1328" rx="12.5" ry="12.5" style="stroke:#181818;stroke-width:0.5;" width="130.209" x="90.8042" y="662.8164"/><text fill="#000000" font-family="sans-serif" font-size="12" lengthAdjust="spacing" textLength="110.209" x="100.8042" y="684.418">Write to Filesystem</text><rect fill="#F1F1F1" height="34.1328" rx="12.5" ry="12.5" style="stroke:#181818;stroke-width:0.5;" width="103.3203" x="104.2485" y="716.9492"/><text fill="#000000" font-family="sans-serif" font-size="12" lengthAdjust="spacing" textLength="83.3203" x="114.2485" y="738.5508">Return via P2P</text><rect fill="#F1F1F1" height="34.1328" rx="12.5" ry="12.5" style="stroke:#181818;stroke-width:0.5;" width="128.7207" x="257.2993" y="338.0195"/><text fill="#000000" font-family="sans-serif" font-size="12" lengthAdjust="spacing" textLength="108.7207" x="267.2993" y="359.6211">Execute Local Tool</text><polygon fill="#F1F1F1" points="238.7842,757.082,250.7842,769.082,238.7842,781.082,226.7842,769.082,238.7842,757.082" style="stroke:#181818;stroke-width:0.5;"/><rect fill="#F1F1F1" height="34.1328" rx="12.5" ry="12.5" style="stroke:#181818;stroke-width:0.5;" width="120.3945" x="178.5869" y="801.082"/><text fill="#000000" font-family="sans-serif" font-size="12" lengthAdjust="spacing" textLength="100.3945" x="188.5869" y="822.6836">Format Response</text><rect fill="#F1F1F1" height="34.1328" rx="12.5" ry="12.5" style="stroke:#181818;stroke-width:0.5;" width="104.0469" x="186.7607" y="855.2148"/><text fill="#000000" font-family="sans-serif" font-size="12" lengthAdjust="spacing" textLength="84.0469" x="196.7607" y="876.8164">Return to User</text><ellipse cx="238.7842" cy="920.3477" fill="none" rx="11" ry="11" style="stroke:#222222;stroke-width:1;"/><ellipse cx="238.7842" cy="920.3477" fill="#222222" rx="6" ry="6" style="stroke:#222222;stroke-width:1;"/><line style="stroke:#181818;stroke-width:1;" x1="238.7842" x2="238.7842" y1="67.4883" y2="87.4883"/><polygon fill="#181818" points="234.7842,77.4883,238.7842,87.4883,242.7842,77.4883,238.7842,81.4883" style="stroke:#181818;stroke-width:1;"/><line style="stroke:#181818;stroke-width:1;" x1="238.7842" x2="238.7842" y1="121.6211" y2="141.6211"/><polygon fill="#181818" points="234.7842,131.6211,238.7842,141.6211,242.7842,131.6211,238.7842,135.6211" style="stroke:#181818;stroke-width:1;"/><line style="stroke:#181818;stroke-width:1;" x1="238.7842" x2="238.7842" y1="175.7539" y2="195.7539"/><polygon fill="#181818" points="234.7842,185.7539,238.7842,195.7539,242.7842,185.7539,238.7842,189.7539" style="stroke:#181818;stroke-width:1;"/><line style="stroke:#181818;stroke-width:1;" x1="238.7842" x2="238.7842" y1="229.8867" y2="249.8867"/><polygon fill="#181818" points="234.7842,239.8867,238.7842,249.8867,242.7842,239.8867,238.7842,243.8867" style="stroke:#181818;stroke-width:1;"/><line style="stroke:#181818;stroke-width:1;" x1="155.9087" x2="155.9087" y1="372.1523" y2="392.1523"/><polygon fill="#181818" points="151.9087,382.1523,155.9087,392.1523,159.9087,382.1523,155.9087,386.1523" style="stroke:#181818;stroke-width:1;"/><line style="stroke:#181818;stroke-width:1;" x1="155.9087" x2="155.9087" y1="426.2852" y2="446.2852"/><polygon fill="#181818" points="151.9087,436.2852,155.9087,446.2852,159.9087,436.2852,155.9087,440.2852" style="stroke:#181818;stroke-width:1;"/><line style="stroke:#181818;stroke-width:1;" x1="155.9087" x2="155.9087" y1="480.418" y2="500.418"/><polygon fill="#181818" points="151.9087,490.418,155.9087,500.418,159.9087,490.418,155.9087,494.418" style="stroke:#181818;stroke-width:1;"/><line style="stroke:#181818;stroke-width:1;" x1="155.9087" x2="155.9087" y1="534.5508" y2="554.5508"/><polygon fill="#181818" points="151.9087,544.5508,155.9087,554.5508,159.9087,544.5508,155.9087,548.5508" style="stroke:#181818;stroke-width:1;"/><line style="stroke:#181818;stroke-width:1;" x1="155.9087" x2="155.9087" y1="588.6836" y2="608.6836"/><polygon fill="#181818" points="151.9087,598.6836,155.9087,608.6836,159.9087,598.6836,155.9087,602.6836" style="stroke:#181818;stroke-width:1;"/><line style="stroke:#181818;stroke-width:1;" x1="155.9087" x2="155.9087" y1="642.8164" y2="662.8164"/><polygon fill="#181818" points="151.9087,652.8164,155.9087,662.8164,159.9087,652.8164,155.9087,656.8164" style="stroke:#181818;stroke-width:1;"/><line style="stroke:#181818;stroke-width:1;" x1="155.9087" x2="155.9087" y1="696.9492" y2="716.9492"/><polygon fill="#181818" points="151.9087,706.9492,155.9087,716.9492,159.9087,706.9492,155.9087,710.9492" style="stroke:#181818;stroke-width:1;"/><line style="stroke:#181818;stroke-width:1;" x1="197.1438" x2="155.9087" y1="316.0195" y2="316.0195"/><line style="stroke:#181818;stroke-width:1;" x1="155.9087" x2="155.9087" y1="316.0195" y2="338.0195"/><polygon fill="#181818" points="151.9087,328.0195,155.9087,338.0195,159.9087,328.0195,155.9087,332.0195" style="stroke:#181818;stroke-width:1;"/><line style="stroke:#181818;stroke-width:1;" x1="280.4246" x2="321.6597" y1="316.0195" y2="316.0195"/><line style="stroke:#181818;stroke-width:1;" x1="321.6597" x2="321.6597" y1="316.0195" y2="338.0195"/><polygon fill="#181818" points="317.6597,328.0195,321.6597,338.0195,325.6597,328.0195,321.6597,332.0195" style="stroke:#181818;stroke-width:1;"/><line style="stroke:#181818;stroke-width:1;" x1="155.9087" x2="155.9087" y1="751.082" y2="769.082"/><line style="stroke:#181818;stroke-width:1;" x1="155.9087" x2="226.7842" y1="769.082" y2="769.082"/><polygon fill="#181818" points="216.7842,765.082,226.7842,769.082,216.7842,773.082,220.7842,769.082" style="stroke:#181818;stroke-width:1;"/><line style="stroke:#181818;stroke-width:1;" x1="321.6597" x2="321.6597" y1="372.1523" y2="769.082"/><line style="stroke:#181818;stroke-width:1;" x1="321.6597" x2="250.7842" y1="769.082" y2="769.082"/><polygon fill="#181818" points="260.7842,765.082,250.7842,769.082,260.7842,773.082,256.7842,769.082" style="stroke:#181818;stroke-width:1;"/><line style="stroke:#181818;stroke-width:1;" x1="238.7842" x2="238.7842" y1="284.0195" y2="304.0195"/><polygon fill="#181818" points="234.7842,294.0195,238.7842,304.0195,242.7842,294.0195,238.7842,298.0195" style="stroke:#181818;stroke-width:1;"/><line style="stroke:#181818;stroke-width:1;" x1="238.7842" x2="238.7842" y1="781.082" y2="801.082"/><polygon fill="#181818" points="234.7842,791.082,238.7842,801.082,242.7842,791.082,238.7842,795.082" style="stroke:#181818;stroke-width:1;"/><line style="stroke:#181818;stroke-width:1;" x1="238.7842" x2="238.7842" y1="835.2148" y2="855.2148"/><polygon fill="#181818" points="234.7842,845.2148,238.7842,855.2148,242.7842,845.2148,238.7842,849.2148" style="stroke:#181818;stroke-width:1;"/><line style="stroke:#181818;stroke-width:1;" x1="238.7842" x2="238.7842" y1="889.3477" y2="909.3477"/><polygon fill="#181818" points="234.7842,899.3477,238.7842,909.3477,242.7842,899.3477,238.7842,903.3477" style="stroke:#181818;stroke-width:1;"/><!--SRC=[JP51JyCm38Nl-HNMJji1a7PS3wZgg8PKH5YBTaHPwsuHQL8IbwtyUjniQ5oVxSz-pwJ98AmLASYDEy4ThCi2o46kMSyyAjBE2X58UH9YzHxGmxFj1qg4TOJWzU58AyZIee2JruGVxJH96EYUpWIp3HhZOEUyQMOCs5IL1FbQLl20Pwm7meHLgNp0QVMLQh1bQEK-qUeV16KRs0_QD92M5RUdLfcHzSnr7TUOe5kO5wvMXeUSULm07T72tBg505Yz3UX7aCYtR_6W0_ancVHSCpWze2KuQJh6sLY8nX7aKlB0ry1cebmYztzh1KRl-sKVjIrsqyKNYlIknX0mnDBJnI2yPFA6taqX_IKSna3ONJaqU1lfl3OHQ3YH-OXXyHzryyWTjj4jfv4xtodYGqFlR8XvNc6yPNfOCltFzU8N]--></g></svg>
