<svg xmlns="http://www.w3.org/2000/svg" xmlns:xlink="http://www.w3.org/1999/xlink" contentStyleType="text/css" data-diagram-type="ACTIVITY" height="750px" preserveAspectRatio="none" style="width:521px;height:750px;background:#FFFFFF;" version="1.1" viewBox="0 0 521 750" width="521px" zoomAndPan="magnify"><defs/><g><ellipse cx="293.0172" cy="15" fill="#FFFFFF" rx="10" ry="10" style="stroke:#000000;stroke-width:1;"/><rect fill="#FFFFFF" height="34.584" rx="12.5" ry="12.5" style="stroke:#000000;stroke-width:1;" width="135.418" x="225.3082" y="45"/><text fill="#000000" font-family="Verdana" font-size="12" lengthAdjust="spacing" textLength="115.418" x="235.3082" y="67.0645">Receive DSL String</text><path d="M367.9821,96.0767 L367.9821,112.876 L347.9821,116.876 L367.9821,120.876 L367.9821,137.6753 A0,0 0 0 0 367.9821,137.6753 L494.3024,137.6753 A0,0 0 0 0 494.3024,137.6753 L494.3024,106.0767 L484.3024,96.0767 L367.9821,96.0767 A0,0 0 0 0 367.9821,96.0767" fill="#FFFFFF" style="stroke:#000000;stroke-width:1;"/><path d="M484.3024,96.0767 L484.3024,106.0767 L494.3024,106.0767 L484.3024,96.0767" fill="#FFFFFF" style="stroke:#000000;stroke-width:1;"/><text fill="#000000" font-family="Verdana" font-size="13" lengthAdjust="spacing" textLength="102.8765" x="373.9821" y="114.1465">Split by spaces,</text><text fill="#000000" font-family="Verdana" font-size="13" lengthAdjust="spacing" textLength="105.3203" x="373.9821" y="129.9458">preserve quotes</text><rect fill="#FFFFFF" height="34.584" rx="12.5" ry="12.5" style="stroke:#000000;stroke-width:1;" width="109.9297" x="238.0524" y="99.584"/><text fill="#000000" font-family="Verdana" font-size="12" lengthAdjust="spacing" textLength="89.9297" x="248.0524" y="121.6484">Tokenize Input</text><rect fill="#FFFFFF" height="34.584" rx="12.5" ry="12.5" style="stroke:#000000;stroke-width:1;" width="99.957" x="243.0387" y="157.6753"/><text fill="#000000" font-family="Verdana" font-size="12" lengthAdjust="spacing" textLength="79.957" x="253.0387" y="179.7397">Parse Tokens</text><path d="M351.9684,216.6516 L351.9684,225.5513 L331.9684,229.5513 L351.9684,233.5513 L351.9684,242.4509 A0,0 0 0 0 351.9684,242.4509 L510.7189,242.4509 A0,0 0 0 0 510.7189,242.4509 L510.7189,226.6516 L500.7189,216.6516 L351.9684,216.6516 A0,0 0 0 0 351.9684,216.6516" fill="#FFFFFF" style="stroke:#000000;stroke-width:1;"/><path d="M500.7189,216.6516 L500.7189,226.6516 L510.7189,226.6516 L500.7189,216.6516" fill="#FFFFFF" style="stroke:#000000;stroke-width:1;"/><text fill="#000000" font-family="Verdana" font-size="13" lengthAdjust="spacing" textLength="137.7505" x="357.9684" y="234.7214">Abstract Syntax Tree</text><rect fill="#FFFFFF" height="34.584" rx="12.5" ry="12.5" style="stroke:#000000;stroke-width:1;" width="77.9023" x="254.066" y="212.2593"/><text fill="#000000" font-family="Verdana" font-size="12" lengthAdjust="spacing" textLength="57.9023" x="264.066" y="234.3237">Build AST</text><polygon fill="#FFFFFF" points="246.6486,266.8433,339.3859,266.8433,351.3859,278.8433,339.3859,290.8433,246.6486,290.8433,234.6486,278.8433,246.6486,266.8433" style="stroke:#000000;stroke-width:1;"/><text fill="#000000" font-family="Verdana" font-size="11" lengthAdjust="spacing" textLength="92.7373" x="246.6486" y="283.218">Command Type?</text><text fill="#000000" font-family="Verdana" font-size="11" lengthAdjust="spacing" textLength="27.4463" x="207.2023" y="276.5337">CALL</text><text fill="#000000" font-family="Verdana" font-size="11" lengthAdjust="spacing" textLength="31.2007" x="351.3859" y="276.5337">Other</text><rect fill="#FFFFFF" height="34.584" rx="12.5" ry="12.5" style="stroke:#000000;stroke-width:1;" width="131.4219" x="90.408" y="300.8433"/><text fill="#000000" font-family="Verdana" font-size="12" lengthAdjust="spacing" textLength="111.4219" x="100.408" y="322.9077">Extract Tool Name</text><rect fill="#FFFFFF" height="34.584" rx="12.5" ry="12.5" style="stroke:#000000;stroke-width:1;" width="122.9727" x="94.6326" y="355.4272"/><text fill="#000000" font-family="Verdana" font-size="12" lengthAdjust="spacing" textLength="102.9727" x="104.6326" y="377.4917">Parse Arguments</text><rect fill="#FFFFFF" height="34.584" rx="12.5" ry="12.5" style="stroke:#000000;stroke-width:1;" width="127.1328" x="92.5525" y="410.0112"/><text fill="#000000" font-family="Verdana" font-size="12" lengthAdjust="spacing" textLength="107.1328" x="102.5525" y="432.0757">Check Local Tools</text><polygon fill="#FFFFFF" points="93.9834,464.5952,218.2544,464.5952,230.2544,476.5952,218.2544,488.5952,93.9834,488.5952,81.9834,476.5952,93.9834,464.5952" style="stroke:#000000;stroke-width:1;"/><text fill="#000000" font-family="Verdana" font-size="11" lengthAdjust="spacing" textLength="124.271" x="93.9834" y="480.97">Tool Available Locally?</text><text fill="#000000" font-family="Verdana" font-size="11" lengthAdjust="spacing" textLength="18.7935" x="63.1899" y="474.2856">yes</text><text fill="#000000" font-family="Verdana" font-size="11" lengthAdjust="spacing" textLength="13.6372" x="230.2544" y="474.2856">no</text><rect fill="#FFFFFF" height="34.584" rx="12.5" ry="12.5" style="stroke:#000000;stroke-width:1;" width="131.9668" x="6" y="498.5952"/><text fill="#000000" font-family="Verdana" font-size="12" lengthAdjust="spacing" textLength="111.9668" x="16" y="520.6597">Execute Local Tool</text><rect fill="#FFFFFF" height="34.584" rx="12.5" ry="12.5" style="stroke:#000000;stroke-width:1;" width="135.2598" x="172.6245" y="498.5952"/><text fill="#000000" font-family="Verdana" font-size="12" lengthAdjust="spacing" textLength="115.2598" x="182.6245" y="520.6597">Find Peer with Tool</text><rect fill="#FFFFFF" height="34.584" rx="12.5" ry="12.5" style="stroke:#000000;stroke-width:1;" width="147.5762" x="166.4663" y="553.1792"/><text fill="#000000" font-family="Verdana" font-size="12" lengthAdjust="spacing" textLength="127.5762" x="176.4663" y="575.2437">Execute Remote Tool</text><polygon fill="#FFFFFF" points="156.1189,593.7632,168.1189,605.7632,156.1189,617.7632,144.1189,605.7632,156.1189,593.7632" style="stroke:#000000;stroke-width:1;"/><rect fill="#FFFFFF" height="34.584" rx="12.5" ry="12.5" style="stroke:#000000;stroke-width:1;" width="171.7461" x="344.0425" y="300.8433"/><text fill="#000000" font-family="Verdana" font-size="12" lengthAdjust="spacing" textLength="151.7461" x="354.0425" y="322.9077">Handle Other Commands</text><polygon fill="#FFFFFF" points="293.0172,623.7632,305.0172,635.7632,293.0172,647.7632,281.0172,635.7632,293.0172,623.7632" style="stroke:#000000;stroke-width:1;"/><rect fill="#FFFFFF" height="34.584" rx="12.5" ry="12.5" style="stroke:#000000;stroke-width:1;" width="102.1074" x="241.9635" y="667.7632"/><text fill="#000000" font-family="Verdana" font-size="12" lengthAdjust="spacing" textLength="82.1074" x="251.9635" y="689.8276">Return Result</text><ellipse cx="293.0172" cy="733.3472" fill="none" rx="11" ry="11" style="stroke:#000000;stroke-width:1;"/><ellipse cx="293.0172" cy="733.3472" fill="#FFFFFF" rx="6" ry="6" style="stroke:#000000;stroke-width:1;"/><line style="stroke:#000000;stroke-width:1;" x1="293.0172" x2="293.0172" y1="25" y2="45"/><polygon fill="#000000" points="289.0172,35,293.0172,45,297.0172,35,293.0172,39" style="stroke:#000000;stroke-width:1;"/><line style="stroke:#000000;stroke-width:1;" x1="293.0172" x2="293.0172" y1="79.584" y2="99.584"/><polygon fill="#000000" points="289.0172,89.584,293.0172,99.584,297.0172,89.584,293.0172,93.584" style="stroke:#000000;stroke-width:1;"/><line style="stroke:#000000;stroke-width:1;" x1="293.0172" x2="293.0172" y1="134.168" y2="157.6753"/><polygon fill="#000000" points="289.0172,147.6753,293.0172,157.6753,297.0172,147.6753,293.0172,151.6753" style="stroke:#000000;stroke-width:1;"/><line style="stroke:#000000;stroke-width:1;" x1="293.0172" x2="293.0172" y1="192.2593" y2="212.2593"/><polygon fill="#000000" points="289.0172,202.2593,293.0172,212.2593,297.0172,202.2593,293.0172,206.2593" style="stroke:#000000;stroke-width:1;"/><line style="stroke:#000000;stroke-width:1;" x1="156.1189" x2="156.1189" y1="335.4272" y2="355.4272"/><polygon fill="#000000" points="152.1189,345.4272,156.1189,355.4272,160.1189,345.4272,156.1189,349.4272" style="stroke:#000000;stroke-width:1;"/><line style="stroke:#000000;stroke-width:1;" x1="156.1189" x2="156.1189" y1="390.0112" y2="410.0112"/><polygon fill="#000000" points="152.1189,400.0112,156.1189,410.0112,160.1189,400.0112,156.1189,404.0112" style="stroke:#000000;stroke-width:1;"/><line style="stroke:#000000;stroke-width:1;" x1="240.2544" x2="240.2544" y1="533.1792" y2="553.1792"/><polygon fill="#000000" points="236.2544,543.1792,240.2544,553.1792,244.2544,543.1792,240.2544,547.1792" style="stroke:#000000;stroke-width:1;"/><line style="stroke:#000000;stroke-width:1;" x1="81.9834" x2="71.9834" y1="476.5952" y2="476.5952"/><line style="stroke:#000000;stroke-width:1;" x1="71.9834" x2="71.9834" y1="476.5952" y2="498.5952"/><polygon fill="#000000" points="67.9834,488.5952,71.9834,498.5952,75.9834,488.5952,71.9834,492.5952" style="stroke:#000000;stroke-width:1;"/><line style="stroke:#000000;stroke-width:1;" x1="230.2544" x2="240.2544" y1="476.5952" y2="476.5952"/><line style="stroke:#000000;stroke-width:1;" x1="240.2544" x2="240.2544" y1="476.5952" y2="498.5952"/><polygon fill="#000000" points="236.2544,488.5952,240.2544,498.5952,244.2544,488.5952,240.2544,492.5952" style="stroke:#000000;stroke-width:1;"/><line style="stroke:#000000;stroke-width:1;" x1="71.9834" x2="71.9834" y1="533.1792" y2="605.7632"/><line style="stroke:#000000;stroke-width:1;" x1="71.9834" x2="144.1189" y1="605.7632" y2="605.7632"/><polygon fill="#000000" points="134.1189,601.7632,144.1189,605.7632,134.1189,609.7632,138.1189,605.7632" style="stroke:#000000;stroke-width:1;"/><line style="stroke:#000000;stroke-width:1;" x1="240.2544" x2="240.2544" y1="587.7632" y2="605.7632"/><line style="stroke:#000000;stroke-width:1;" x1="240.2544" x2="168.1189" y1="605.7632" y2="605.7632"/><polygon fill="#000000" points="178.1189,601.7632,168.1189,605.7632,178.1189,609.7632,174.1189,605.7632" style="stroke:#000000;stroke-width:1;"/><line style="stroke:#000000;stroke-width:1;" x1="156.1189" x2="156.1189" y1="444.5952" y2="464.5952"/><polygon fill="#000000" points="152.1189,454.5952,156.1189,464.5952,160.1189,454.5952,156.1189,458.5952" style="stroke:#000000;stroke-width:1;"/><line style="stroke:#000000;stroke-width:1;" x1="234.6486" x2="156.1189" y1="278.8433" y2="278.8433"/><line style="stroke:#000000;stroke-width:1;" x1="156.1189" x2="156.1189" y1="278.8433" y2="300.8433"/><polygon fill="#000000" points="152.1189,290.8433,156.1189,300.8433,160.1189,290.8433,156.1189,294.8433" style="stroke:#000000;stroke-width:1;"/><line style="stroke:#000000;stroke-width:1;" x1="351.3859" x2="429.9155" y1="278.8433" y2="278.8433"/><line style="stroke:#000000;stroke-width:1;" x1="429.9155" x2="429.9155" y1="278.8433" y2="300.8433"/><polygon fill="#000000" points="425.9155,290.8433,429.9155,300.8433,433.9155,290.8433,429.9155,294.8433" style="stroke:#000000;stroke-width:1;"/><line style="stroke:#000000;stroke-width:1;" x1="156.1189" x2="156.1189" y1="617.7632" y2="635.7632"/><line style="stroke:#000000;stroke-width:1;" x1="156.1189" x2="281.0172" y1="635.7632" y2="635.7632"/><polygon fill="#000000" points="271.0172,631.7632,281.0172,635.7632,271.0172,639.7632,275.0172,635.7632" style="stroke:#000000;stroke-width:1;"/><line style="stroke:#000000;stroke-width:1;" x1="429.9155" x2="429.9155" y1="335.4272" y2="635.7632"/><line style="stroke:#000000;stroke-width:1;" x1="429.9155" x2="305.0172" y1="635.7632" y2="635.7632"/><polygon fill="#000000" points="315.0172,631.7632,305.0172,635.7632,315.0172,639.7632,311.0172,635.7632" style="stroke:#000000;stroke-width:1;"/><line style="stroke:#000000;stroke-width:1;" x1="293.0172" x2="293.0172" y1="246.8433" y2="266.8433"/><polygon fill="#000000" points="289.0172,256.8433,293.0172,266.8433,297.0172,256.8433,293.0172,260.8433" style="stroke:#000000;stroke-width:1;"/><line style="stroke:#000000;stroke-width:1;" x1="293.0172" x2="293.0172" y1="647.7632" y2="667.7632"/><polygon fill="#000000" points="289.0172,657.7632,293.0172,667.7632,297.0172,657.7632,293.0172,661.7632" style="stroke:#000000;stroke-width:1;"/><line style="stroke:#000000;stroke-width:1;" x1="293.0172" x2="293.0172" y1="702.3472" y2="722.3472"/><polygon fill="#000000" points="289.0172,712.3472,293.0172,722.3472,297.0172,712.3472,293.0172,716.3472" style="stroke:#000000;stroke-width:1;"/><!--SRC=[LP71JiCm44Jl_ehbrafyGNf0eO2A547LvCZ5JRU9LMTjx7Lf-7esJbMLwsZcpQpzm3qE2DvgGqf5re5LiSCMpHdXfQwWvc2eMwcYSISayulmJZxnIf5ZX62wdWkelJKC-n6Yrot6no_o0IC6ONmdyKLLR7M821aIXVQSZ3r0MJV_GUK-Sj0jGpqIwmiq0L6P8opMRXWq7Q0PFJujGLQJY6LLBHL0yNgPKurp5ZxqWAj9dIlBqAK1YMFMrZss9wXSgsrsPtKgoD7oh8tLUukpmuwtgX7Zr9Ixi4sCTum9WLQg5kIkfZSZMxU80NuCzpVNNNo7mtJtBKy7SrGpvLCgGxvh8oVBc2p0zGbayMoMR-8KI4WnMVcGoCwhFm00]--></g></svg>
