<svg xmlns="http://www.w3.org/2000/svg" xmlns:xlink="http://www.w3.org/1999/xlink" contentStyleType="text/css" data-diagram-type="SEQUENCE" height="357px" preserveAspectRatio="none" style="width:807px;height:357px;background:#FFFFFF;" version="1.1" viewBox="0 0 807 357" width="807px" zoomAndPan="magnify"><defs/><g><g><title>DSL Analyzer</title><rect fill="#000000" fill-opacity="0.00000" height="284.3945" width="8" x="69.8535" y="37.0146"/><line style="stroke:#000000;stroke-width:1;" x1="73" x2="73" y1="37.0146" y2="321.4092"/></g><g><title>Agent Core</title><rect fill="#000000" fill-opacity="0.00000" height="284.3945" width="8" x="299.3462" y="37.0146"/><line style="stroke:#000000;stroke-width:1;" x1="303.0874" x2="303.0874" y1="37.0146" y2="321.4092"/></g><g><title>MCP Server</title><rect fill="#000000" fill-opacity="0.00000" height="284.3945" width="8" x="521.7295" y="37.0146"/><line style="stroke:#000000;stroke-width:1;" x1="525.0181" x2="525.0181" y1="37.0146" y2="321.4092"/></g><g><title>Tool Handler</title><rect fill="#000000" fill-opacity="0.00000" height="284.3945" width="8" x="686.4443" y="37.0146"/><line style="stroke:#000000;stroke-width:1;" x1="689.9185" x2="689.9185" y1="37.0146" y2="321.4092"/></g><g class="participant participant-head" data-participant="DSL"><rect fill="#FFFFFF" height="31.0146" rx="2.5" ry="2.5" style="stroke:#000000;stroke-width:1;" width="107.707" x="20" y="5"/><text fill="#000000" font-family="Verdana" font-size="14" lengthAdjust="spacing" textLength="93.707" x="27" y="26.0752">DSL Analyzer</text></g><g class="participant participant-tail" data-participant="DSL"><rect fill="#FFFFFF" height="31.0146" rx="2.5" ry="2.5" style="stroke:#000000;stroke-width:1;" width="107.707" x="20" y="320.4092"/><text fill="#000000" font-family="Verdana" font-size="14" lengthAdjust="spacing" textLength="93.707" x="27" y="341.4844">DSL Analyzer</text></g><g class="participant participant-head" data-participant="Core"><rect fill="#FFFFFF" height="31.0146" rx="2.5" ry="2.5" style="stroke:#000000;stroke-width:1;" width="92.5176" x="257.0874" y="5"/><text fill="#000000" font-family="Verdana" font-size="14" lengthAdjust="spacing" textLength="78.5176" x="264.0874" y="26.0752">Agent Core</text></g><g class="participant participant-tail" data-participant="Core"><rect fill="#FFFFFF" height="31.0146" rx="2.5" ry="2.5" style="stroke:#000000;stroke-width:1;" width="92.5176" x="257.0874" y="320.4092"/><text fill="#000000" font-family="Verdana" font-size="14" lengthAdjust="spacing" textLength="78.5176" x="264.0874" y="341.4844">Agent Core</text></g><g class="participant participant-head" data-participant="MCP"><rect fill="#FFFFFF" height="31.0146" rx="2.5" ry="2.5" style="stroke:#000000;stroke-width:1;" width="95.4229" x="478.0181" y="5"/><text fill="#000000" font-family="Verdana" font-size="14" lengthAdjust="spacing" textLength="81.4229" x="485.0181" y="26.0752">MCP Server</text></g><g class="participant participant-tail" data-participant="MCP"><rect fill="#FFFFFF" height="31.0146" rx="2.5" ry="2.5" style="stroke:#000000;stroke-width:1;" width="95.4229" x="478.0181" y="320.4092"/><text fill="#000000" font-family="Verdana" font-size="14" lengthAdjust="spacing" textLength="81.4229" x="485.0181" y="341.4844">MCP Server</text></g><g class="participant participant-head" data-participant="Tool"><rect fill="#FFFFFF" height="31.0146" rx="2.5" ry="2.5" style="stroke:#000000;stroke-width:1;" width="103.0518" x="638.9185" y="5"/><text fill="#000000" font-family="Verdana" font-size="14" lengthAdjust="spacing" textLength="89.0518" x="645.9185" y="26.0752">Tool Handler</text></g><g class="participant participant-tail" data-participant="Tool"><rect fill="#FFFFFF" height="31.0146" rx="2.5" ry="2.5" style="stroke:#000000;stroke-width:1;" width="103.0518" x="638.9185" y="320.4092"/><text fill="#000000" font-family="Verdana" font-size="14" lengthAdjust="spacing" textLength="89.0518" x="645.9185" y="341.4844">Tool Handler</text></g><g class="message" data-participant-1="DSL" data-participant-2="Core"><polygon fill="#000000" points="291.3462,64.814,301.3462,68.814,291.3462,72.814,295.3462,68.814" style="stroke:#000000;stroke-width:1;"/><line style="stroke:#000000;stroke-width:1;" x1="73.8535" x2="297.3462" y1="68.814" y2="68.814"/><text fill="#000000" font-family="Verdana" font-size="13" lengthAdjust="spacing" textLength="205.4927" x="80.8535" y="64.0845">executeCall("tool_name", args)</text></g><g class="message" data-participant-1="Core" data-participant-2="Core"><line style="stroke:#000000;stroke-width:1;" x1="303.3462" x2="345.3462" y1="98.6133" y2="98.6133"/><line style="stroke:#000000;stroke-width:1;" x1="345.3462" x2="345.3462" y1="98.6133" y2="111.6133"/><line style="stroke:#000000;stroke-width:1;" x1="304.3462" x2="345.3462" y1="111.6133" y2="111.6133"/><polygon fill="#000000" points="314.3462,107.6133,304.3462,111.6133,314.3462,115.6133,310.3462,111.6133" style="stroke:#000000;stroke-width:1;"/><text fill="#000000" font-family="Verdana" font-size="13" lengthAdjust="spacing" textLength="177.8804" x="310.3462" y="93.8838">HasLocalTool("tool_name")</text></g><path d="M499.8804,85.314 L499.8804,110.314 L601.8804,110.314 L601.8804,95.314 L591.8804,85.314 L499.8804,85.314" fill="#FFFFFF" style="stroke:#000000;stroke-width:1;"/><path d="M591.8804,85.314 L591.8804,95.314 L601.8804,95.314 L591.8804,85.314" fill="#FFFFFF" style="stroke:#000000;stroke-width:1;"/><text fill="#000000" font-family="Verdana" font-size="13" lengthAdjust="spacing" textLength="81.8911" x="505.8804" y="103.3838">Returns true</text><g class="message" data-participant-1="Core" data-participant-2="MCP"><polygon fill="#000000" points="513.7295,137.4126,523.7295,141.4126,513.7295,145.4126,517.7295,141.4126" style="stroke:#000000;stroke-width:1;"/><line style="stroke:#000000;stroke-width:1;" x1="303.3462" x2="519.7295" y1="141.4126" y2="141.4126"/><text fill="#000000" font-family="Verdana" font-size="13" lengthAdjust="spacing" textLength="198.3833" x="310.3462" y="136.6831">FindToolHandler("tool_name")</text></g><g class="message" data-participant-1="MCP" data-participant-2="Tool"><polygon fill="#000000" points="678.4443,167.2119,688.4443,171.2119,678.4443,175.2119,682.4443,171.2119" style="stroke:#000000;stroke-width:1;"/><line style="stroke:#000000;stroke-width:1;" x1="525.7295" x2="684.4443" y1="171.2119" y2="171.2119"/><text fill="#000000" font-family="Verdana" font-size="13" lengthAdjust="spacing" textLength="140.7148" x="532.7295" y="166.4824">Handler(ctx, request)</text></g><g class="message" data-participant-1="Tool" data-participant-2="Tool"><line style="stroke:#000000;stroke-width:1;" x1="690.4443" x2="732.4443" y1="201.0112" y2="201.0112"/><line style="stroke:#000000;stroke-width:1;" x1="732.4443" x2="732.4443" y1="201.0112" y2="214.0112"/><line style="stroke:#000000;stroke-width:1;" x1="691.4443" x2="732.4443" y1="214.0112" y2="214.0112"/><polygon fill="#000000" points="701.4443,210.0112,691.4443,214.0112,701.4443,218.0112,697.4443,214.0112" style="stroke:#000000;stroke-width:1;"/><text fill="#000000" font-family="Verdana" font-size="13" lengthAdjust="spacing" textLength="103.1685" x="697.4443" y="196.2817">Process request</text></g><g class="message" data-participant-1="Tool" data-participant-2="MCP"><polygon fill="#000000" points="536.7295,239.8105,526.7295,243.8105,536.7295,247.8105,532.7295,243.8105" style="stroke:#000000;stroke-width:1;"/><line style="stroke:#000000;stroke-width:1;stroke-dasharray:2,2;" x1="530.7295" x2="689.4443" y1="243.8105" y2="243.8105"/><text fill="#000000" font-family="Verdana" font-size="13" lengthAdjust="spacing" textLength="40.4727" x="542.7295" y="239.0811">Result</text></g><g class="message" data-participant-1="MCP" data-participant-2="Core"><polygon fill="#000000" points="314.3462,269.6099,304.3462,273.6099,314.3462,277.6099,310.3462,273.6099" style="stroke:#000000;stroke-width:1;"/><line style="stroke:#000000;stroke-width:1;stroke-dasharray:2,2;" x1="308.3462" x2="524.7295" y1="273.6099" y2="273.6099"/><text fill="#000000" font-family="Verdana" font-size="13" lengthAdjust="spacing" textLength="40.4727" x="320.3462" y="268.8804">Result</text></g><g class="message" data-participant-1="Core" data-participant-2="DSL"><polygon fill="#000000" points="84.8535,299.4092,74.8535,303.4092,84.8535,307.4092,80.8535,303.4092" style="stroke:#000000;stroke-width:1;"/><line style="stroke:#000000;stroke-width:1;stroke-dasharray:2,2;" x1="78.8535" x2="302.3462" y1="303.4092" y2="303.4092"/><text fill="#000000" font-family="Verdana" font-size="13" lengthAdjust="spacing" textLength="40.4727" x="90.8535" y="298.6797">Result</text></g><!--SRC=[LP11Zy8W48Nl_8gn9vkuVw27JKoDyU0cHlU-cU2aaY3KOJ2wltwXqguz0UzzFDwma0jT2NgBnYdL8ulHfaSdK6rEUrWxjCzVuWemG1BcnBgZjBIUQV3pPWvyjGSu4TzBG3hE_M_lBUpGdMqXig1KVldZSyXhW1waer2BrYuhIVwFmojLAq3kGgqoz0_lCEozHfjptkbQEIy4RBgBD70aYUm224UQ0bAv1hR6dVFTqcaUaQT9OFQRiVLIosC5JBT8GMer33Gn1_QQGXZjuevl7Ib4Aw_KQO0YlaebDNt59Fu1]--></g></svg>