<svg xmlns="http://www.w3.org/2000/svg" xmlns:xlink="http://www.w3.org/1999/xlink" contentStyleType="text/css" data-diagram-type="SEQUENCE" height="520px" preserveAspectRatio="none" style="width:697px;height:520px;background:#FFFFFF;" version="1.1" viewBox="0 0 697 520" width="697px" zoomAndPan="magnify"><defs/><g><rect fill="#FFFFFF" height="103.3979" style="stroke:#000000;stroke-width:1;" width="676.0796" x="15" y="364.0078"/><g><title>Agent 1</title><rect fill="#000000" fill-opacity="0.00000" height="447.3911" width="8" x="65.4155" y="37.0146"/><line style="stroke:#000000;stroke-width:1;" x1="69" x2="69" y1="37.0146" y2="484.4058"/></g><g><title>mDNS</title><rect fill="#000000" fill-opacity="0.00000" height="447.3911" width="8" x="242.6987" y="37.0146"/><line style="stroke:#000000;stroke-width:1;" x1="246.4751" x2="246.4751" y1="37.0146" y2="484.4058"/></g><g><title>Network</title><rect fill="#000000" fill-opacity="0.00000" height="447.3911" width="8" x="383.959" y="37.0146"/><line style="stroke:#000000;stroke-width:1;" x1="387.6875" x2="387.6875" y1="37.0146" y2="484.4058"/></g><g><title>Agent 2</title><rect fill="#000000" fill-opacity="0.00000" height="447.3911" width="8" x="548.6104" y="37.0146"/><line style="stroke:#000000;stroke-width:1;" x1="552.1948" x2="552.1948" y1="37.0146" y2="484.4058"/></g><g class="participant participant-head" data-participant="A1"><rect fill="#FFFFFF" height="31.0146" rx="2.5" ry="2.5" style="stroke:#000000;stroke-width:1;" width="68.8311" x="35" y="5"/><text fill="#000000" font-family="Verdana" font-size="14" lengthAdjust="spacing" textLength="54.8311" x="42" y="26.0752">Agent 1</text></g><g class="participant participant-tail" data-participant="A1"><rect fill="#FFFFFF" height="31.0146" rx="2.5" ry="2.5" style="stroke:#000000;stroke-width:1;" width="68.8311" x="35" y="483.4058"/><text fill="#000000" font-family="Verdana" font-size="14" lengthAdjust="spacing" textLength="54.8311" x="42" y="504.481">Agent 1</text></g><g class="participant participant-head" data-participant="MDNS"><rect fill="#FFFFFF" height="31.0146" rx="2.5" ry="2.5" style="stroke:#000000;stroke-width:1;" width="58.4473" x="217.4751" y="5"/><text fill="#000000" font-family="Verdana" font-size="14" lengthAdjust="spacing" textLength="44.4473" x="224.4751" y="26.0752">mDNS</text></g><g class="participant participant-tail" data-participant="MDNS"><rect fill="#FFFFFF" height="31.0146" rx="2.5" ry="2.5" style="stroke:#000000;stroke-width:1;" width="58.4473" x="217.4751" y="483.4058"/><text fill="#000000" font-family="Verdana" font-size="14" lengthAdjust="spacing" textLength="44.4473" x="224.4751" y="504.481">mDNS</text></g><g class="participant participant-head" data-participant="Net"><rect fill="#FFFFFF" height="31.0146" rx="2.5" ry="2.5" style="stroke:#000000;stroke-width:1;" width="72.543" x="351.6875" y="5"/><text fill="#000000" font-family="Verdana" font-size="14" lengthAdjust="spacing" textLength="58.543" x="358.6875" y="26.0752">Network</text></g><g class="participant participant-tail" data-participant="Net"><rect fill="#FFFFFF" height="31.0146" rx="2.5" ry="2.5" style="stroke:#000000;stroke-width:1;" width="72.543" x="351.6875" y="483.4058"/><text fill="#000000" font-family="Verdana" font-size="14" lengthAdjust="spacing" textLength="58.543" x="358.6875" y="504.481">Network</text></g><g class="participant participant-head" data-participant="A2"><rect fill="#FFFFFF" height="31.0146" rx="2.5" ry="2.5" style="stroke:#000000;stroke-width:1;" width="68.8311" x="518.1948" y="5"/><text fill="#000000" font-family="Verdana" font-size="14" lengthAdjust="spacing" textLength="54.8311" x="525.1948" y="26.0752">Agent 2</text></g><g class="participant participant-tail" data-participant="A2"><rect fill="#FFFFFF" height="31.0146" rx="2.5" ry="2.5" style="stroke:#000000;stroke-width:1;" width="68.8311" x="518.1948" y="483.4058"/><text fill="#000000" font-family="Verdana" font-size="14" lengthAdjust="spacing" textLength="54.8311" x="525.1948" y="504.481">Agent 2</text></g><g class="message" data-participant-1="A1" data-participant-2="MDNS"><polygon fill="#000000" points="234.6987,64.814,244.6987,68.814,234.6987,72.814,238.6987,68.814" style="stroke:#000000;stroke-width:1;"/><line style="stroke:#000000;stroke-width:1;" x1="69.4155" x2="240.6987" y1="68.814" y2="68.814"/><text fill="#000000" font-family="Verdana" font-size="13" lengthAdjust="spacing" textLength="153.2832" x="76.4155" y="64.0845">Start Discovery Service</text></g><g class="message" data-participant-1="A2" data-participant-2="MDNS"><polygon fill="#000000" points="257.6987,94.6133,247.6987,98.6133,257.6987,102.6133,253.6987,98.6133" style="stroke:#000000;stroke-width:1;"/><line style="stroke:#000000;stroke-width:1;" x1="251.6987" x2="551.6104" y1="98.6133" y2="98.6133"/><text fill="#000000" font-family="Verdana" font-size="13" lengthAdjust="spacing" textLength="153.2832" x="263.6987" y="93.8838">Start Discovery Service</text></g><g class="message" data-participant-1="MDNS" data-participant-2="Net"><polygon fill="#000000" points="375.959,140.2119,385.959,144.2119,375.959,148.2119,379.959,144.2119" style="stroke:#000000;stroke-width:1;"/><line style="stroke:#000000;stroke-width:1;" x1="246.6987" x2="381.959" y1="144.2119" y2="144.2119"/><text fill="#000000" font-family="Verdana" font-size="13" lengthAdjust="spacing" textLength="117.2603" x="253.6987" y="123.6831">Broadcast Service</text><text fill="#000000" font-family="Verdana" font-size="13" lengthAdjust="spacing" textLength="115.21" x="253.6987" y="139.4824">"praxis-p2p-mcp"</text></g><g class="message" data-participant-1="A2" data-participant-2="Net"><polygon fill="#000000" points="398.959,170.0112,388.959,174.0112,398.959,178.0112,394.959,174.0112" style="stroke:#000000;stroke-width:1;"/><line style="stroke:#000000;stroke-width:1;" x1="392.959" x2="551.6104" y1="174.0112" y2="174.0112"/><text fill="#000000" font-family="Verdana" font-size="13" lengthAdjust="spacing" textLength="101.4673" x="404.959" y="169.2817">Listen for Peers</text></g><g class="message" data-participant-1="Net" data-participant-2="A2"><polygon fill="#000000" points="540.6104,199.8105,550.6104,203.8105,540.6104,207.8105,544.6104,203.8105" style="stroke:#000000;stroke-width:1;"/><line style="stroke:#000000;stroke-width:1;" x1="387.959" x2="546.6104" y1="203.8105" y2="203.8105"/><text fill="#000000" font-family="Verdana" font-size="13" lengthAdjust="spacing" textLength="140.6514" x="394.959" y="199.0811">Peer Found (Agent 1)</text></g><g class="message" data-participant-1="A2" data-participant-2="A1"><polygon fill="#000000" points="80.4155,229.6099,70.4155,233.6099,80.4155,237.6099,76.4155,233.6099" style="stroke:#000000;stroke-width:1;"/><line style="stroke:#000000;stroke-width:1;" x1="74.4155" x2="551.6104" y1="233.6099" y2="233.6099"/><text fill="#000000" font-family="Verdana" font-size="13" lengthAdjust="spacing" textLength="53.0601" x="86.4155" y="228.8804">Connect</text></g><g class="message" data-participant-1="A1" data-participant-2="A2"><polygon fill="#000000" points="80.4155,259.4092,70.4155,263.4092,80.4155,267.4092,76.4155,263.4092" style="stroke:#000000;stroke-width:1;"/><polygon fill="#000000" points="540.6104,259.4092,550.6104,263.4092,540.6104,267.4092,544.6104,263.4092" style="stroke:#000000;stroke-width:1;"/><line style="stroke:#000000;stroke-width:1;" x1="74.4155" x2="546.6104" y1="263.4092" y2="263.4092"/><text fill="#000000" font-family="Verdana" font-size="13" lengthAdjust="spacing" textLength="135.2749" x="86.4155" y="258.6797">Exchange A2A Cards</text></g><g class="message" data-participant-1="A1" data-participant-2="A1"><line style="stroke:#000000;stroke-width:1;" x1="69.4155" x2="111.4155" y1="293.2085" y2="293.2085"/><line style="stroke:#000000;stroke-width:1;" x1="111.4155" x2="111.4155" y1="293.2085" y2="306.2085"/><line style="stroke:#000000;stroke-width:1;" x1="70.4155" x2="111.4155" y1="306.2085" y2="306.2085"/><polygon fill="#000000" points="80.4155,302.2085,70.4155,306.2085,80.4155,310.2085,76.4155,306.2085" style="stroke:#000000;stroke-width:1;"/><text fill="#000000" font-family="Verdana" font-size="13" lengthAdjust="spacing" textLength="99.3662" x="76.4155" y="288.479">Store Peer Info</text></g><g class="message" data-participant-1="A2" data-participant-2="A2"><line style="stroke:#000000;stroke-width:1;" x1="552.6104" x2="594.6104" y1="336.0078" y2="336.0078"/><line style="stroke:#000000;stroke-width:1;" x1="594.6104" x2="594.6104" y1="336.0078" y2="349.0078"/><line style="stroke:#000000;stroke-width:1;" x1="553.6104" x2="594.6104" y1="349.0078" y2="349.0078"/><polygon fill="#000000" points="563.6104,345.0078,553.6104,349.0078,563.6104,353.0078,559.6104,349.0078" style="stroke:#000000;stroke-width:1;"/><text fill="#000000" font-family="Verdana" font-size="13" lengthAdjust="spacing" textLength="99.3662" x="559.6104" y="331.2783">Store Peer Info</text></g><path d="M15,364.0078 L91.3828,364.0078 L91.3828,371.8071 L81.3828,381.8071 L15,381.8071 L15,364.0078" fill="#FFFFFF" style="stroke:#000000;stroke-width:1;"/><rect fill="none" height="103.3979" style="stroke:#000000;stroke-width:1;" width="676.0796" x="15" y="364.0078"/><text fill="#000000" font-family="Verdana" font-size="13" font-weight="bold" lengthAdjust="spacing" textLength="31.3828" x="30" y="378.0776">loop</text><text fill="#000000" font-family="Verdana" font-size="11" font-weight="bold" lengthAdjust="spacing" textLength="119.6196" x="106.3828" y="377.0669">[Every 10 seconds]</text><g class="message" data-participant-1="A1" data-participant-2="A1"><line style="stroke:#000000;stroke-width:1;" x1="69.4155" x2="111.4155" y1="403.6064" y2="403.6064"/><line style="stroke:#000000;stroke-width:1;" x1="111.4155" x2="111.4155" y1="403.6064" y2="416.6064"/><line style="stroke:#000000;stroke-width:1;" x1="70.4155" x2="111.4155" y1="416.6064" y2="416.6064"/><polygon fill="#000000" points="80.4155,412.6064,70.4155,416.6064,80.4155,420.6064,76.4155,416.6064" style="stroke:#000000;stroke-width:1;"/><text fill="#000000" font-family="Verdana" font-size="13" lengthAdjust="spacing" textLength="119.4692" x="76.4155" y="398.877">Check Peer Status</text></g><g class="message" data-participant-1="A2" data-participant-2="A2"><line style="stroke:#000000;stroke-width:1;" x1="552.6104" x2="594.6104" y1="446.4058" y2="446.4058"/><line style="stroke:#000000;stroke-width:1;" x1="594.6104" x2="594.6104" y1="446.4058" y2="459.4058"/><line style="stroke:#000000;stroke-width:1;" x1="553.6104" x2="594.6104" y1="459.4058" y2="459.4058"/><polygon fill="#000000" points="563.6104,455.4058,553.6104,459.4058,563.6104,463.4058,559.6104,459.4058" style="stroke:#000000;stroke-width:1;"/><text fill="#000000" font-family="Verdana" font-size="13" lengthAdjust="spacing" textLength="119.4692" x="559.6104" y="441.6763">Check Peer Status</text></g><!--SRC=[XP31QiCm38RlVWejf-qGM7mCO-2b7HIwCiXr5-EeZMaZ6TljkhUVuwGRfOETBElxzHdvBlOu8BY3jYI4qpvQOvsc28NQOJgg0dG0LLspOR5fCtXBnJNQOFnalyyqrNyvvUIKGgWAokSigQ6DAGaB6moVq7z1Y_va3Geb_y-CT4ob1sjuyQmxeqEyu0ygdDTd6qedNJaOLypI75_R495WonxU4NqGgJj29UlSW5S-KWVtytyypBEggg5X8ZHnNEDfdbYUJQzfX-cYeD6-2_EIOxwDx76IhcZB5vEy9UB0x62PbwmU8Q1XIYg0NrdJezbF8-bRuZ7J7-4jHUh4Dm00]--></g></svg>