<svg xmlns="http://www.w3.org/2000/svg" xmlns:xlink="http://www.w3.org/1999/xlink" contentStyleType="text/css" data-diagram-type="DESCRIPTION" height="482px" preserveAspectRatio="none" style="width:806px;height:482px;background:#FFFFFF;" version="1.1" viewBox="0 0 806 482" width="806px" zoomAndPan="magnify"><title>P2P Protocol Stack</title><defs/><g><g class="title" data-source-line="1"><text fill="#000000" font-family="sans-serif" font-size="14" font-weight="bold" lengthAdjust="spacing" textLength="133.3008" x="329.3496" y="23.5352">P2P Protocol Stack</text></g><!--cluster Application Layer--><g class="cluster" data-entity="Application Layer" data-source-line="3" data-uid="ent0002" id="cluster_Application Layer"><path d="M8.5,43.4883 L135.2266,43.4883 A3.75,3.75 0 0 1 137.7266,45.9883 L144.7266,65.9766 L368.5,65.9766 A2.5,2.5 0 0 1 371,68.4766 L371,244.9583 A2.5,2.5 0 0 1 368.5,247.4583 L8.5,247.4583 A2.5,2.5 0 0 1 6,244.9583 L6,45.9883 A2.5,2.5 0 0 1 8.5,43.4883" fill="none" style="stroke:#000000;stroke-width:1.5;"/><line style="stroke:#000000;stroke-width:1.5;" x1="6" x2="144.7266" y1="65.9766" y2="65.9766"/><text fill="#000000" font-family="sans-serif" font-size="14" font-weight="bold" lengthAdjust="spacing" textLength="125.7266" x="10" y="59.0234">Application Layer</text></g><!--cluster Protocol Layer--><g class="cluster" data-entity="Protocol Layer" data-source-line="9" data-uid="ent0006" id="cluster_Protocol Layer"><path d="M397.5,43.4883 L501.668,43.4883 A3.75,3.75 0 0 1 504.168,45.9883 L511.168,65.9766 L796.5,65.9766 A2.5,2.5 0 0 1 799,68.4766 L799,244.9583 A2.5,2.5 0 0 1 796.5,247.4583 L397.5,247.4583 A2.5,2.5 0 0 1 395,244.9583 L395,45.9883 A2.5,2.5 0 0 1 397.5,43.4883" fill="none" style="stroke:#000000;stroke-width:1.5;"/><line style="stroke:#000000;stroke-width:1.5;" x1="395" x2="511.168" y1="65.9766" y2="65.9766"/><text fill="#000000" font-family="sans-serif" font-size="14" font-weight="bold" lengthAdjust="spacing" textLength="103.168" x="399" y="59.0234">Protocol Layer</text></g><!--cluster Transport Layer--><g class="cluster" data-entity="Transport Layer" data-source-line="15" data-uid="ent0010" id="cluster_Transport Layer"><path d="M10.5,271.4583 L126.8359,271.4583 A3.75,3.75 0 0 1 129.3359,273.9583 L136.3359,293.9466 L354.5,293.9466 A2.5,2.5 0 0 1 357,296.4466 L357,472.9383 A2.5,2.5 0 0 1 354.5,475.4383 L10.5,475.4383 A2.5,2.5 0 0 1 8,472.9383 L8,273.9583 A2.5,2.5 0 0 1 10.5,271.4583" fill="none" style="stroke:#000000;stroke-width:1.5;"/><line style="stroke:#000000;stroke-width:1.5;" x1="8" x2="136.3359" y1="293.9466" y2="293.9466"/><text fill="#000000" font-family="sans-serif" font-size="14" font-weight="bold" lengthAdjust="spacing" textLength="115.3359" x="12" y="286.9934">Transport Layer</text></g><!--cluster Network Layer--><g class="cluster" data-entity="Network Layer" data-source-line="21" data-uid="ent0014" id="cluster_Network Layer"><path d="M383.5,271.4583 L489.0967,271.4583 A3.75,3.75 0 0 1 491.5967,273.9583 L498.5967,293.9466 L723.5,293.9466 A2.5,2.5 0 0 1 726,296.4466 L726,472.9383 A2.5,2.5 0 0 1 723.5,475.4383 L383.5,475.4383 A2.5,2.5 0 0 1 381,472.9383 L381,273.9583 A2.5,2.5 0 0 1 383.5,271.4583" fill="none" style="stroke:#000000;stroke-width:1.5;"/><line style="stroke:#000000;stroke-width:1.5;" x1="381" x2="498.5967" y1="293.9466" y2="293.9466"/><text fill="#000000" font-family="sans-serif" font-size="14" font-weight="bold" lengthAdjust="spacing" textLength="104.5967" x="385" y="286.9934">Network Layer</text></g><!--entity DSL Commands--><g class="entity" data-entity="DSL Commands" data-source-line="4" data-uid="ent0003" id="entity_DSL Commands"><rect fill="#F1F1F1" height="46.4883" rx="2.5" ry="2.5" style="stroke:#181818;stroke-width:0.5;" width="146.7158" x="21.64" y="78.4883"/><rect fill="#F1F1F1" height="10" style="stroke:#181818;stroke-width:0.5;" width="15" x="148.3558" y="83.4883"/><rect fill="#F1F1F1" height="2" style="stroke:#181818;stroke-width:0.5;" width="4" x="146.3558" y="85.4883"/><rect fill="#F1F1F1" height="2" style="stroke:#181818;stroke-width:0.5;" width="4" x="146.3558" y="89.4883"/><text fill="#000000" font-family="sans-serif" font-size="14" lengthAdjust="spacing" textLength="106.7158" x="36.64" y="112.0234">DSL Commands</text></g><!--entity Tool Invocations--><g class="entity" data-entity="Tool Invocations" data-source-line="5" data-uid="ent0004" id="entity_Tool Invocations"><rect fill="#F1F1F1" height="46.4883" rx="2.5" ry="2.5" style="stroke:#181818;stroke-width:0.5;" width="151.7061" x="203.15" y="78.4883"/><rect fill="#F1F1F1" height="10" style="stroke:#181818;stroke-width:0.5;" width="15" x="334.8561" y="83.4883"/><rect fill="#F1F1F1" height="2" style="stroke:#181818;stroke-width:0.5;" width="4" x="332.8561" y="85.4883"/><rect fill="#F1F1F1" height="2" style="stroke:#181818;stroke-width:0.5;" width="4" x="332.8561" y="89.4883"/><text fill="#000000" font-family="sans-serif" font-size="14" lengthAdjust="spacing" textLength="111.7061" x="218.15" y="112.0234">Tool Invocations</text></g><!--entity Card Exchange--><g class="entity" data-entity="Card Exchange" data-source-line="6" data-uid="ent0005" id="entity_Card Exchange"><rect fill="#F1F1F1" height="46.4883" rx="2.5" ry="2.5" style="stroke:#181818;stroke-width:0.5;" width="141.3701" x="24.31" y="184.9783"/><rect fill="#F1F1F1" height="10" style="stroke:#181818;stroke-width:0.5;" width="15" x="145.6801" y="189.9783"/><rect fill="#F1F1F1" height="2" style="stroke:#181818;stroke-width:0.5;" width="4" x="143.6801" y="191.9783"/><rect fill="#F1F1F1" height="2" style="stroke:#181818;stroke-width:0.5;" width="4" x="143.6801" y="195.9783"/><text fill="#000000" font-family="sans-serif" font-size="14" lengthAdjust="spacing" textLength="101.3701" x="39.31" y="218.5134">Card Exchange</text></g><!--entity /praxis/mcp/1.0.0--><g class="entity" data-entity=".praxis.mcp.1.0.0" data-source-line="10" data-uid="ent0007" id="entity_.praxis.mcp.1.0.0"><rect fill="#F1F1F1" height="46.4883" rx="2.5" ry="2.5" style="stroke:#181818;stroke-width:0.5;" width="168.5361" x="410.73" y="78.4883"/><rect fill="#F1F1F1" height="10" style="stroke:#181818;stroke-width:0.5;" width="15" x="559.2661" y="83.4883"/><rect fill="#F1F1F1" height="2" style="stroke:#181818;stroke-width:0.5;" width="4" x="557.2661" y="85.4883"/><rect fill="#F1F1F1" height="2" style="stroke:#181818;stroke-width:0.5;" width="4" x="557.2661" y="89.4883"/><text fill="#000000" font-family="sans-serif" font-size="14" lengthAdjust="spacing" textLength="128.5361" x="425.73" y="112.0234">/praxis/mcp/1.0.0</text></g><!--entity /praxis/card/1.0.0--><g class="entity" data-entity=".praxis.card.1.0.0" data-source-line="11" data-uid="ent0008" id="entity_.praxis.card.1.0.0"><rect fill="#F1F1F1" height="46.4883" rx="2.5" ry="2.5" style="stroke:#181818;stroke-width:0.5;" width="168.9258" x="614.54" y="78.4883"/><rect fill="#F1F1F1" height="10" style="stroke:#181818;stroke-width:0.5;" width="15" x="763.4658" y="83.4883"/><rect fill="#F1F1F1" height="2" style="stroke:#181818;stroke-width:0.5;" width="4" x="761.4658" y="85.4883"/><rect fill="#F1F1F1" height="2" style="stroke:#181818;stroke-width:0.5;" width="4" x="761.4658" y="89.4883"/><text fill="#000000" font-family="sans-serif" font-size="14" lengthAdjust="spacing" textLength="128.9258" x="629.54" y="112.0234">/praxis/card/1.0.0</text></g><!--entity /praxis/tool/1.0.0--><g class="entity" data-entity=".praxis.tool.1.0.0" data-source-line="12" data-uid="ent0009" id="entity_.praxis.tool.1.0.0"><rect fill="#F1F1F1" height="46.4883" rx="2.5" ry="2.5" style="stroke:#181818;stroke-width:0.5;" width="165.9658" x="412.02" y="184.9783"/><rect fill="#F1F1F1" height="10" style="stroke:#181818;stroke-width:0.5;" width="15" x="557.9858" y="189.9783"/><rect fill="#F1F1F1" height="2" style="stroke:#181818;stroke-width:0.5;" width="4" x="555.9858" y="191.9783"/><rect fill="#F1F1F1" height="2" style="stroke:#181818;stroke-width:0.5;" width="4" x="555.9858" y="195.9783"/><text fill="#000000" font-family="sans-serif" font-size="14" lengthAdjust="spacing" textLength="125.9658" x="427.02" y="218.5134">/praxis/tool/1.0.0</text></g><!--entity libp2p Streams--><g class="entity" data-entity="libp2p Streams" data-source-line="16" data-uid="ent0011" id="entity_libp2p Streams"><rect fill="#F1F1F1" height="46.4883" rx="2.5" ry="2.5" style="stroke:#181818;stroke-width:0.5;" width="142.0537" x="23.97" y="306.4583"/><rect fill="#F1F1F1" height="10" style="stroke:#181818;stroke-width:0.5;" width="15" x="146.0237" y="311.4583"/><rect fill="#F1F1F1" height="2" style="stroke:#181818;stroke-width:0.5;" width="4" x="144.0237" y="313.4583"/><rect fill="#F1F1F1" height="2" style="stroke:#181818;stroke-width:0.5;" width="4" x="144.0237" y="317.4583"/><text fill="#000000" font-family="sans-serif" font-size="14" lengthAdjust="spacing" textLength="102.0537" x="38.97" y="339.9934">libp2p Streams</text></g><!--entity TLS Encryption--><g class="entity" data-entity="TLS Encryption" data-source-line="17" data-uid="ent0012" id="entity_TLS Encryption"><rect fill="#F1F1F1" height="46.4883" rx="2.5" ry="2.5" style="stroke:#181818;stroke-width:0.5;" width="140.1602" x="200.92" y="306.4583"/><rect fill="#F1F1F1" height="10" style="stroke:#181818;stroke-width:0.5;" width="15" x="321.0802" y="311.4583"/><rect fill="#F1F1F1" height="2" style="stroke:#181818;stroke-width:0.5;" width="4" x="319.0802" y="313.4583"/><rect fill="#F1F1F1" height="2" style="stroke:#181818;stroke-width:0.5;" width="4" x="319.0802" y="317.4583"/><text fill="#000000" font-family="sans-serif" font-size="14" lengthAdjust="spacing" textLength="100.1602" x="215.92" y="339.9934">TLS Encryption</text></g><!--entity TCP/QUIC--><g class="entity" data-entity="TCP.QUIC" data-source-line="18" data-uid="ent0013" id="entity_TCP.QUIC"><rect fill="#F1F1F1" height="46.4883" rx="2.5" ry="2.5" style="stroke:#181818;stroke-width:0.5;" width="107.915" x="41.04" y="412.9483"/><rect fill="#F1F1F1" height="10" style="stroke:#181818;stroke-width:0.5;" width="15" x="128.955" y="417.9483"/><rect fill="#F1F1F1" height="2" style="stroke:#181818;stroke-width:0.5;" width="4" x="126.955" y="419.9483"/><rect fill="#F1F1F1" height="2" style="stroke:#181818;stroke-width:0.5;" width="4" x="126.955" y="423.9483"/><text fill="#000000" font-family="sans-serif" font-size="14" lengthAdjust="spacing" textLength="67.915" x="56.04" y="446.4834">TCP/QUIC</text></g><!--entity mDNS Discovery--><g class="entity" data-entity="mDNS Discovery" data-source-line="22" data-uid="ent0015" id="entity_mDNS Discovery"><rect fill="#F1F1F1" height="46.4883" rx="2.5" ry="2.5" style="stroke:#181818;stroke-width:0.5;" width="151.3984" x="397.3" y="306.4583"/><rect fill="#F1F1F1" height="10" style="stroke:#181818;stroke-width:0.5;" width="15" x="528.6984" y="311.4583"/><rect fill="#F1F1F1" height="2" style="stroke:#181818;stroke-width:0.5;" width="4" x="526.6984" y="313.4583"/><rect fill="#F1F1F1" height="2" style="stroke:#181818;stroke-width:0.5;" width="4" x="526.6984" y="317.4583"/><text fill="#000000" font-family="sans-serif" font-size="14" lengthAdjust="spacing" textLength="111.3984" x="412.3" y="339.9934">mDNS Discovery</text></g><!--entity DHT Routing--><g class="entity" data-entity="DHT Routing" data-source-line="23" data-uid="ent0016" id="entity_DHT Routing"><rect fill="#F1F1F1" height="46.4883" rx="2.5" ry="2.5" style="stroke:#181818;stroke-width:0.5;" width="126.8984" x="583.55" y="306.4583"/><rect fill="#F1F1F1" height="10" style="stroke:#181818;stroke-width:0.5;" width="15" x="690.4484" y="311.4583"/><rect fill="#F1F1F1" height="2" style="stroke:#181818;stroke-width:0.5;" width="4" x="688.4484" y="313.4583"/><rect fill="#F1F1F1" height="2" style="stroke:#181818;stroke-width:0.5;" width="4" x="688.4484" y="317.4583"/><text fill="#000000" font-family="sans-serif" font-size="14" lengthAdjust="spacing" textLength="86.8984" x="598.55" y="339.9934">DHT Routing</text></g><!--entity NAT Traversal--><g class="entity" data-entity="NAT Traversal" data-source-line="24" data-uid="ent0017" id="entity_NAT Traversal"><rect fill="#F1F1F1" height="46.4883" rx="2.5" ry="2.5" style="stroke:#181818;stroke-width:0.5;" width="135.2861" x="405.36" y="412.9483"/><rect fill="#F1F1F1" height="10" style="stroke:#181818;stroke-width:0.5;" width="15" x="520.6461" y="417.9483"/><rect fill="#F1F1F1" height="2" style="stroke:#181818;stroke-width:0.5;" width="4" x="518.6461" y="419.9483"/><rect fill="#F1F1F1" height="2" style="stroke:#181818;stroke-width:0.5;" width="4" x="518.6461" y="423.9483"/><text fill="#000000" font-family="sans-serif" font-size="14" lengthAdjust="spacing" textLength="95.2861" x="420.36" y="446.4834">NAT Traversal</text></g><!--SRC=[RO_HYi8m44NV-nM37s1T_q1QGQ6Kkkq-BNqOO-W6aqoOP5tBil- -gLLfmPT0pcJElGagQ0dLkeAAAP0W3NL0SKuI5q_i92mspcabC2YoK60lUG6_2S1dNXUGaJ5eJxuTG4DnUsylD3uUOOPyWkrLVA7jP9lyJSJFnAarTOnNvLCZNFgsN2rNxPIAQ7k1Gqn-u6b2msYz8mwp2AsERktYFrcYkLSlQjXQmRqRceyegzB3npwR6qiPVeZFCv_9onfovGLT9FUtvNpNm3jz1sMxsxtSD13BnBb7FHZ_0G00]--></g></svg>