<svg xmlns="http://www.w3.org/2000/svg" xmlns:xlink="http://www.w3.org/1999/xlink" contentStyleType="text/css" data-diagram-type="SEQUENCE" height="417px" preserveAspectRatio="none" style="width:883px;height:417px;background:#FFFFFF;" version="1.1" viewBox="0 0 883 417" width="883px" zoomAndPan="magnify"><defs/><g><g><title>DSL Analyzer</title><rect fill="#000000" fill-opacity="0.00000" height="343.9932" width="8" x="69.8535" y="37.0146"/><line style="stroke:#000000;stroke-width:1;" x1="73" x2="73" y1="37.0146" y2="381.0078"/></g><g><title>Agent 1 Core</title><rect fill="#000000" fill-opacity="0.00000" height="343.9932" width="8" x="299.3462" y="37.0146"/><line style="stroke:#000000;stroke-width:1;" x1="303.1763" x2="303.1763" y1="37.0146" y2="381.0078"/></g><g><title>P2P Protocol</title><rect fill="#000000" fill-opacity="0.00000" height="343.9932" width="8" x="579.7725" y="37.0146"/><line style="stroke:#000000;stroke-width:1;" x1="583.1387" x2="583.1387" y1="37.0146" y2="381.0078"/></g><g><title>Agent 2</title><rect fill="#000000" fill-opacity="0.00000" height="343.9932" width="8" x="746.8994" y="37.0146"/><line style="stroke:#000000;stroke-width:1;" x1="750.4839" x2="750.4839" y1="37.0146" y2="381.0078"/></g><g><title>Tool</title><rect fill="#000000" fill-opacity="0.00000" height="343.9932" width="8" x="851.4639" y="37.0146"/><line style="stroke:#000000;stroke-width:1;" x1="854.7324" x2="854.7324" y1="37.0146" y2="381.0078"/></g><g class="participant participant-head" data-participant="DSL"><rect fill="#FFFFFF" height="31.0146" rx="2.5" ry="2.5" style="stroke:#000000;stroke-width:1;" width="107.707" x="20" y="5"/><text fill="#000000" font-family="Verdana" font-size="14" lengthAdjust="spacing" textLength="93.707" x="27" y="26.0752">DSL Analyzer</text></g><g class="participant participant-tail" data-participant="DSL"><rect fill="#FFFFFF" height="31.0146" rx="2.5" ry="2.5" style="stroke:#000000;stroke-width:1;" width="107.707" x="20" y="380.0078"/><text fill="#000000" font-family="Verdana" font-size="14" lengthAdjust="spacing" textLength="93.707" x="27" y="401.083">DSL Analyzer</text></g><g class="participant participant-head" data-participant="Core1"><rect fill="#FFFFFF" height="31.0146" rx="2.5" ry="2.5" style="stroke:#000000;stroke-width:1;" width="106.3398" x="250.1763" y="5"/><text fill="#000000" font-family="Verdana" font-size="14" lengthAdjust="spacing" textLength="92.3398" x="257.1763" y="26.0752">Agent 1 Core</text></g><g class="participant participant-tail" data-participant="Core1"><rect fill="#FFFFFF" height="31.0146" rx="2.5" ry="2.5" style="stroke:#000000;stroke-width:1;" width="106.3398" x="250.1763" y="380.0078"/><text fill="#000000" font-family="Verdana" font-size="14" lengthAdjust="spacing" textLength="92.3398" x="257.1763" y="401.083">Agent 1 Core</text></g><g class="participant participant-head" data-participant="P2P"><rect fill="#FFFFFF" height="31.0146" rx="2.5" ry="2.5" style="stroke:#000000;stroke-width:1;" width="101.2676" x="533.1387" y="5"/><text fill="#000000" font-family="Verdana" font-size="14" lengthAdjust="spacing" textLength="87.2676" x="540.1387" y="26.0752">P2P Protocol</text></g><g class="participant participant-tail" data-participant="P2P"><rect fill="#FFFFFF" height="31.0146" rx="2.5" ry="2.5" style="stroke:#000000;stroke-width:1;" width="101.2676" x="533.1387" y="380.0078"/><text fill="#000000" font-family="Verdana" font-size="14" lengthAdjust="spacing" textLength="87.2676" x="540.1387" y="401.083">P2P Protocol</text></g><g class="participant participant-head" data-participant="A2"><rect fill="#FFFFFF" height="31.0146" rx="2.5" ry="2.5" style="stroke:#000000;stroke-width:1;" width="68.8311" x="716.4839" y="5"/><text fill="#000000" font-family="Verdana" font-size="14" lengthAdjust="spacing" textLength="54.8311" x="723.4839" y="26.0752">Agent 2</text></g><g class="participant participant-tail" data-participant="A2"><rect fill="#FFFFFF" height="31.0146" rx="2.5" ry="2.5" style="stroke:#000000;stroke-width:1;" width="68.8311" x="716.4839" y="380.0078"/><text fill="#000000" font-family="Verdana" font-size="14" lengthAdjust="spacing" textLength="54.8311" x="723.4839" y="401.083">Agent 2</text></g><g class="participant participant-head" data-participant="Tool"><rect fill="#FFFFFF" height="31.0146" rx="2.5" ry="2.5" style="stroke:#000000;stroke-width:1;" width="43.4629" x="833.7324" y="5"/><text fill="#000000" font-family="Verdana" font-size="14" lengthAdjust="spacing" textLength="29.4629" x="840.7324" y="26.0752">Tool</text></g><g class="participant participant-tail" data-participant="Tool"><rect fill="#FFFFFF" height="31.0146" rx="2.5" ry="2.5" style="stroke:#000000;stroke-width:1;" width="43.4629" x="833.7324" y="380.0078"/><text fill="#000000" font-family="Verdana" font-size="14" lengthAdjust="spacing" textLength="29.4629" x="840.7324" y="401.083">Tool</text></g><g class="message" data-participant-1="DSL" data-participant-2="Core1"><polygon fill="#000000" points="291.3462,64.814,301.3462,68.814,291.3462,72.814,295.3462,68.814" style="stroke:#000000;stroke-width:1;"/><line style="stroke:#000000;stroke-width:1;" x1="73.8535" x2="297.3462" y1="68.814" y2="68.814"/><text fill="#000000" font-family="Verdana" font-size="13" lengthAdjust="spacing" textLength="205.4927" x="80.8535" y="64.0845">executeCall("tool_name", args)</text></g><g class="message" data-participant-1="Core1" data-participant-2="Core1"><line style="stroke:#000000;stroke-width:1;" x1="303.3462" x2="345.3462" y1="98.6133" y2="98.6133"/><line style="stroke:#000000;stroke-width:1;" x1="345.3462" x2="345.3462" y1="98.6133" y2="111.6133"/><line style="stroke:#000000;stroke-width:1;" x1="304.3462" x2="345.3462" y1="111.6133" y2="111.6133"/><polygon fill="#000000" points="314.3462,107.6133,304.3462,111.6133,314.3462,115.6133,310.3462,111.6133" style="stroke:#000000;stroke-width:1;"/><text fill="#000000" font-family="Verdana" font-size="13" lengthAdjust="spacing" textLength="177.8804" x="310.3462" y="93.8838">HasLocalTool("tool_name")</text></g><path d="M499.8804,85.314 L499.8804,110.314 L605.8804,110.314 L605.8804,95.314 L595.8804,85.314 L499.8804,85.314" fill="#FFFFFF" style="stroke:#000000;stroke-width:1;"/><path d="M595.8804,85.314 L595.8804,95.314 L605.8804,95.314 L595.8804,85.314" fill="#FFFFFF" style="stroke:#000000;stroke-width:1;"/><text fill="#000000" font-family="Verdana" font-size="13" lengthAdjust="spacing" textLength="85.7124" x="505.8804" y="103.3838">Returns false</text><g class="message" data-participant-1="Core1" data-participant-2="Core1"><line style="stroke:#000000;stroke-width:1;" x1="303.3462" x2="345.3462" y1="141.4126" y2="141.4126"/><line style="stroke:#000000;stroke-width:1;" x1="345.3462" x2="345.3462" y1="141.4126" y2="154.4126"/><line style="stroke:#000000;stroke-width:1;" x1="304.3462" x2="345.3462" y1="154.4126" y2="154.4126"/><polygon fill="#000000" points="314.3462,150.4126,304.3462,154.4126,314.3462,158.4126,310.3462,154.4126" style="stroke:#000000;stroke-width:1;"/><text fill="#000000" font-family="Verdana" font-size="13" lengthAdjust="spacing" textLength="215.4712" x="310.3462" y="136.6831">FindAgentWithTool("tool_name")</text></g><path d="M537.4712,128.1133 L537.4712,153.1133 L708.4712,153.1133 L708.4712,138.1133 L698.4712,128.1133 L537.4712,128.1133" fill="#FFFFFF" style="stroke:#000000;stroke-width:1;"/><path d="M698.4712,128.1133 L698.4712,138.1133 L708.4712,138.1133 L698.4712,128.1133" fill="#FFFFFF" style="stroke:#000000;stroke-width:1;"/><text fill="#000000" font-family="Verdana" font-size="13" lengthAdjust="spacing" textLength="150.5283" x="543.4712" y="146.1831">Returns Agent2 PeerID</text><g class="message" data-participant-1="Core1" data-participant-2="P2P"><polygon fill="#000000" points="571.7725,180.2119,581.7725,184.2119,571.7725,188.2119,575.7725,184.2119" style="stroke:#000000;stroke-width:1;"/><line style="stroke:#000000;stroke-width:1;" x1="303.3462" x2="577.7725" y1="184.2119" y2="184.2119"/><text fill="#000000" font-family="Verdana" font-size="13" lengthAdjust="spacing" textLength="256.4263" x="310.3462" y="179.4824">InvokeTool(peerID, "tool_name", args)</text></g><g class="message" data-participant-1="P2P" data-participant-2="A2"><polygon fill="#000000" points="738.8994,210.0112,748.8994,214.0112,738.8994,218.0112,742.8994,214.0112" style="stroke:#000000;stroke-width:1;"/><line style="stroke:#000000;stroke-width:1;" x1="583.7725" x2="744.8994" y1="214.0112" y2="214.0112"/><text fill="#000000" font-family="Verdana" font-size="13" lengthAdjust="spacing" textLength="133.5864" x="590.7725" y="209.2817">P2P Stream Request</text></g><g class="message" data-participant-1="A2" data-participant-2="Tool"><polygon fill="#000000" points="843.4639,239.8105,853.4639,243.8105,843.4639,247.8105,847.4639,243.8105" style="stroke:#000000;stroke-width:1;"/><line style="stroke:#000000;stroke-width:1;" x1="750.8994" x2="849.4639" y1="243.8105" y2="243.8105"/><text fill="#000000" font-family="Verdana" font-size="13" lengthAdjust="spacing" textLength="80.5645" x="757.8994" y="239.0811">Execute tool</text></g><g class="message" data-participant-1="Tool" data-participant-2="A2"><polygon fill="#000000" points="761.8994,269.6099,751.8994,273.6099,761.8994,277.6099,757.8994,273.6099" style="stroke:#000000;stroke-width:1;"/><line style="stroke:#000000;stroke-width:1;stroke-dasharray:2,2;" x1="755.8994" x2="854.4639" y1="273.6099" y2="273.6099"/><text fill="#000000" font-family="Verdana" font-size="13" lengthAdjust="spacing" textLength="40.4727" x="767.8994" y="268.8804">Result</text></g><g class="message" data-participant-1="A2" data-participant-2="P2P"><polygon fill="#000000" points="594.7725,299.4092,584.7725,303.4092,594.7725,307.4092,590.7725,303.4092" style="stroke:#000000;stroke-width:1;"/><line style="stroke:#000000;stroke-width:1;stroke-dasharray:2,2;" x1="588.7725" x2="749.8994" y1="303.4092" y2="303.4092"/><text fill="#000000" font-family="Verdana" font-size="13" lengthAdjust="spacing" textLength="143.127" x="600.7725" y="298.6797">P2P Stream Response</text></g><g class="message" data-participant-1="P2P" data-participant-2="Core1"><polygon fill="#000000" points="314.3462,329.2085,304.3462,333.2085,314.3462,337.2085,310.3462,333.2085" style="stroke:#000000;stroke-width:1;"/><line style="stroke:#000000;stroke-width:1;stroke-dasharray:2,2;" x1="308.3462" x2="582.7725" y1="333.2085" y2="333.2085"/><text fill="#000000" font-family="Verdana" font-size="13" lengthAdjust="spacing" textLength="40.4727" x="320.3462" y="328.479">Result</text></g><g class="message" data-participant-1="Core1" data-participant-2="DSL"><polygon fill="#000000" points="84.8535,359.0078,74.8535,363.0078,84.8535,367.0078,80.8535,363.0078" style="stroke:#000000;stroke-width:1;"/><line style="stroke:#000000;stroke-width:1;stroke-dasharray:2,2;" x1="78.8535" x2="302.3462" y1="363.0078" y2="363.0078"/><text fill="#000000" font-family="Verdana" font-size="13" lengthAdjust="spacing" textLength="40.4727" x="90.8535" y="358.2783">Result</text></g><!--SRC=[ZP4_JyCm4CLtVueZ4vNQeHup84KjY4eTeXQ94Pt2aLWujh4l2FZqs4wWZUZ05ElTUx_xaolkg2Tm6fKHmg5drIY7Xg7O7lTG6TIVN-GBm01Hc3kgbk9d3HlhAJlIOpttrBA6sbksZTNP4uLB59cBbPpN7koKIWyXqaYhcx5D2VH1pS2qGQsl2uw69uCz5Kj0tuQ5oAup-ps6lMrG9zIvVo6CPGAlsevBE10FtWHuGHte3-DEcUSyxwFYxd-WR9TG4_dTzWICPoXXPzxjAsMEo_KbN5WadJ0cAbcc51pP4_QH_pPGO579L4oC4cx7Yq1YY2J1QWeUA0nwDFyqdx62ioRkcrkTrfrIqz1HZp_WL_q6]--></g></svg>
