<svg xmlns="http://www.w3.org/2000/svg" xmlns:xlink="http://www.w3.org/1999/xlink" contentStyleType="text/css" data-diagram-type="DESCRIPTION" height="957px" preserveAspectRatio="none" style="width:1161px;height:957px;background:#FFFFFF;" version="1.1" viewBox="0 0 1161 957" width="1161px" zoomAndPan="magnify"><title>Praxis P2P Agent System Architecture</title><defs/><g><g class="title" data-source-line="1"><text fill="#000000" font-family="sans-serif" font-size="14" font-weight="bold" lengthAdjust="spacing" textLength="271.5645" x="438.0578" y="23.5352">Praxis P2P Agent System Architecture</text></g><!--cluster Agent 1--><g class="cluster" data-entity="Agent 1" data-source-line="3" data-uid="ent0002" id="cluster_Agent 1"><path d="M863.18,43.4883 L920.6448,43.4883 A3.75,3.75 0 0 1 923.1448,45.9883 L930.1448,65.9766 L1152.18,65.9766 A2.5,2.5 0 0 1 1154.68,68.4766 L1154.68,481.9483 A2.5,2.5 0 0 1 1152.18,484.4483 L863.18,484.4483 A2.5,2.5 0 0 1 860.68,481.9483 L860.68,45.9883 A2.5,2.5 0 0 1 863.18,43.4883" fill="none" style="stroke:#000000;stroke-width:1.5;"/><line style="stroke:#000000;stroke-width:1.5;" x1="860.68" x2="930.1448" y1="65.9766" y2="65.9766"/><text fill="#000000" font-family="sans-serif" font-size="14" font-weight="bold" lengthAdjust="spacing" textLength="56.4648" x="864.68" y="59.0234">Agent 1</text></g><!--cluster Agent 2--><g class="cluster" data-entity="Agent 2" data-source-line="16" data-uid="ent0012" id="cluster_Agent 2"><path d="M398.18,386.9583 L455.6448,386.9583 A3.75,3.75 0 0 1 458.1448,389.4583 L465.1448,409.4466 L724.18,409.4466 A2.5,2.5 0 0 1 726.68,411.9466 L726.68,845.4083 A2.5,2.5 0 0 1 724.18,847.9083 L398.18,847.9083 A2.5,2.5 0 0 1 395.68,845.4083 L395.68,389.4583 A2.5,2.5 0 0 1 398.18,386.9583" fill="none" style="stroke:#000000;stroke-width:1.5;"/><line style="stroke:#000000;stroke-width:1.5;" x1="395.68" x2="465.1448" y1="409.4466" y2="409.4466"/><text fill="#000000" font-family="sans-serif" font-size="14" font-weight="bold" lengthAdjust="spacing" textLength="56.4648" x="399.68" y="402.4934">Agent 2</text></g><!--cluster libp2p Network--><g class="cluster" data-entity="libp2p Network" data-source-line="28" data-uid="ent0021" id="cluster_libp2p Network"><path d="M760.4966,544.7714 C768.0325,531.6347 775.8696,534.5017 784.3171,543.8036 C789.1989,532.86 798.1397,532.5928 805.342,541.324 C814.2184,529.9702 821.5585,533.206 828.7119,543.2094 C834.5531,531.5091 844.9841,528.1728 854.3286,539.2736 C861.1558,527.6495 871.0064,528.4175 877.0637,540.0269 C882.6955,526.5063 894.4186,528.1709 901.9128,538.0492 C910.6659,529.1614 917.3115,530.8619 923.3946,541.0551 C929.2735,531.3253 938.566,528.9712 945.9999,539.3028 C953.6421,528.9534 962.7914,527.9665 969.2566,540.499 C976.2303,529.7388 987.1491,529.3066 993.1893,541.4734 C1000.2111,529.3233 1010.0333,529.3858 1018.5957,539.7336 C1025.6776,530.5462 1034.478,531.1262 1039.474,541.9139 C1048.9123,529.1763 1057.2024,531.4728 1065.2421,543.3765 C1072.7686,534.6597 1079.3634,535.8236 1085.1495,545.2827 C1106.3103,557.1527 1104.705,570.8465 1088.4785,585.7891 C1107.6277,601.2795 1103.4508,613.925 1085.1342,626.3243 C1079.1947,634.7438 1069.4133,636.4488 1064.4095,625.3317 C1057.206,638.8419 1048.5353,638.8262 1038.3818,628.5612 C1032.3443,638.2136 1023.629,638.0868 1017.0085,629.2346 C1013.0247,640.5239 1002.9457,640.9476 995.3863,633.3219 C987.2202,643.6802 980.0142,644.2323 972.0685,633.0829 C966.7652,645.9899 956.0549,645.4458 947.9972,636.0568 C941.2102,649.0723 931.3661,651.0011 922.0052,638.6992 C914.7433,646.6182 907.5243,648.0334 901.8979,636.9671 C891.8804,647.4262 883.2807,646.6599 878.2604,632.2225 C871.1336,643.6581 862.4214,645.8169 854.2758,633.24 C845.8914,642.2486 834.9424,640.6592 831.52,628.0232 C824.0255,639.8561 813.924,640.4933 806.8816,627.5732 C800.2638,636.3627 792.4664,638.3616 785.8427,627.5798 C777.563,637.1865 769.8425,638.8876 762.6006,626.484 C739.3589,618.6015 733.1213,599.6581 754.4289,583.3381 C737.1192,568.7261 741.281,553.6369 760.4966,544.7714" fill="none" style="stroke:#181818;stroke-width:1;"/><text fill="#000000" font-family="sans-serif" font-size="14" font-weight="bold" lengthAdjust="spacing" textLength="111.665" x="865.8475" y="559.9834">libp2p Network</text></g><!--entity API1--><g class="entity" data-entity="API1" data-source-line="4" data-uid="ent0003" id="entity_API1"><rect fill="#F1F1F1" height="46.4883" rx="2.5" ry="2.5" style="stroke:#181818;stroke-width:0.5;" width="141.4316" x="936.96" y="78.4883"/><rect fill="#F1F1F1" height="10" style="stroke:#181818;stroke-width:0.5;" width="15" x="1058.3916" y="83.4883"/><rect fill="#F1F1F1" height="2" style="stroke:#181818;stroke-width:0.5;" width="4" x="1056.3916" y="85.4883"/><rect fill="#F1F1F1" height="2" style="stroke:#181818;stroke-width:0.5;" width="4" x="1056.3916" y="89.4883"/><text fill="#000000" font-family="sans-serif" font-size="14" lengthAdjust="spacing" textLength="101.4316" x="951.96" y="112.0234">HTTP API 8000</text></g><!--entity DSL1--><g class="entity" data-entity="DSL1" data-source-line="5" data-uid="ent0004" id="entity_DSL1"><rect fill="#F1F1F1" height="46.4883" rx="2.5" ry="2.5" style="stroke:#181818;stroke-width:0.5;" width="155.582" x="929.89" y="185.9783"/><rect fill="#F1F1F1" height="10" style="stroke:#181818;stroke-width:0.5;" width="15" x="1065.472" y="190.9783"/><rect fill="#F1F1F1" height="2" style="stroke:#181818;stroke-width:0.5;" width="4" x="1063.472" y="192.9783"/><rect fill="#F1F1F1" height="2" style="stroke:#181818;stroke-width:0.5;" width="4" x="1063.472" y="196.9783"/><text fill="#000000" font-family="sans-serif" font-size="14" lengthAdjust="spacing" textLength="115.582" x="944.89" y="219.5134">DSL Orchestrator</text></g><!--entity Core1--><g class="entity" data-entity="Core1" data-source-line="6" data-uid="ent0005" id="entity_Core1"><rect fill="#F1F1F1" height="46.4883" rx="2.5" ry="2.5" style="stroke:#181818;stroke-width:0.5;" width="116.3574" x="876.5" y="293.4683"/><rect fill="#F1F1F1" height="10" style="stroke:#181818;stroke-width:0.5;" width="15" x="972.8574" y="298.4683"/><rect fill="#F1F1F1" height="2" style="stroke:#181818;stroke-width:0.5;" width="4" x="970.8574" y="300.4683"/><rect fill="#F1F1F1" height="2" style="stroke:#181818;stroke-width:0.5;" width="4" x="970.8574" y="304.4683"/><text fill="#000000" font-family="sans-serif" font-size="14" lengthAdjust="spacing" textLength="76.3574" x="891.5" y="327.0034">Agent Core</text></g><!--entity P2P1--><g class="entity" data-entity="P2P1" data-source-line="7" data-uid="ent0006" id="entity_P2P1"><rect fill="#F1F1F1" height="46.4883" rx="2.5" ry="2.5" style="stroke:#181818;stroke-width:0.5;" width="121.8535" x="876.75" y="421.9583"/><rect fill="#F1F1F1" height="10" style="stroke:#181818;stroke-width:0.5;" width="15" x="978.6035" y="426.9583"/><rect fill="#F1F1F1" height="2" style="stroke:#181818;stroke-width:0.5;" width="4" x="976.6035" y="428.9583"/><rect fill="#F1F1F1" height="2" style="stroke:#181818;stroke-width:0.5;" width="4" x="976.6035" y="432.9583"/><text fill="#000000" font-family="sans-serif" font-size="14" lengthAdjust="spacing" textLength="81.8535" x="891.75" y="455.4934">P2P Handler</text></g><!--entity LLM1--><g class="entity" data-entity="LLM1" data-source-line="8" data-uid="ent0007" id="entity_LLM1"><rect fill="#F1F1F1" height="46.4883" rx="2.5" ry="2.5" style="stroke:#181818;stroke-width:0.5;" width="110.9229" x="1028.22" y="293.4683"/><rect fill="#F1F1F1" height="10" style="stroke:#181818;stroke-width:0.5;" width="15" x="1119.1429" y="298.4683"/><rect fill="#F1F1F1" height="2" style="stroke:#181818;stroke-width:0.5;" width="4" x="1117.1429" y="300.4683"/><rect fill="#F1F1F1" height="2" style="stroke:#181818;stroke-width:0.5;" width="4" x="1117.1429" y="304.4683"/><text fill="#000000" font-family="sans-serif" font-size="14" lengthAdjust="spacing" textLength="70.9229" x="1043.22" y="327.0034">LLM Client</text></g><!--entity API2--><g class="entity" data-entity="API2" data-source-line="17" data-uid="ent0013" id="entity_API2"><rect fill="#F1F1F1" height="46.4883" rx="2.5" ry="2.5" style="stroke:#181818;stroke-width:0.5;" width="141.4316" x="411.96" y="421.9583"/><rect fill="#F1F1F1" height="10" style="stroke:#181818;stroke-width:0.5;" width="15" x="533.3916" y="426.9583"/><rect fill="#F1F1F1" height="2" style="stroke:#181818;stroke-width:0.5;" width="4" x="531.3916" y="428.9583"/><rect fill="#F1F1F1" height="2" style="stroke:#181818;stroke-width:0.5;" width="4" x="531.3916" y="432.9583"/><text fill="#000000" font-family="sans-serif" font-size="14" lengthAdjust="spacing" textLength="101.4316" x="426.96" y="455.4934">HTTP API 8001</text></g><!--entity Core2--><g class="entity" data-entity="Core2" data-source-line="18" data-uid="ent0014" id="entity_Core2"><rect fill="#F1F1F1" height="46.4883" rx="2.5" ry="2.5" style="stroke:#181818;stroke-width:0.5;" width="116.3574" x="562.5" y="568.4483"/><rect fill="#F1F1F1" height="10" style="stroke:#181818;stroke-width:0.5;" width="15" x="658.8574" y="573.4483"/><rect fill="#F1F1F1" height="2" style="stroke:#181818;stroke-width:0.5;" width="4" x="656.8574" y="575.4483"/><rect fill="#F1F1F1" height="2" style="stroke:#181818;stroke-width:0.5;" width="4" x="656.8574" y="579.4483"/><text fill="#000000" font-family="sans-serif" font-size="14" lengthAdjust="spacing" textLength="76.3574" x="577.5" y="601.9834">Agent Core</text></g><!--entity P2P2--><g class="entity" data-entity="P2P2" data-source-line="19" data-uid="ent0015" id="entity_P2P2"><rect fill="#F1F1F1" height="46.4883" rx="2.5" ry="2.5" style="stroke:#181818;stroke-width:0.5;" width="121.8535" x="588.75" y="421.9583"/><rect fill="#F1F1F1" height="10" style="stroke:#181818;stroke-width:0.5;" width="15" x="690.6035" y="426.9583"/><rect fill="#F1F1F1" height="2" style="stroke:#181818;stroke-width:0.5;" width="4" x="688.6035" y="428.9583"/><rect fill="#F1F1F1" height="2" style="stroke:#181818;stroke-width:0.5;" width="4" x="688.6035" y="432.9583"/><text fill="#000000" font-family="sans-serif" font-size="14" lengthAdjust="spacing" textLength="81.8535" x="603.75" y="455.4934">P2P Handler</text></g><!--entity Bridge2--><g class="entity" data-entity="Bridge2" data-source-line="20" data-uid="ent0016" id="entity_Bridge2"><rect fill="#F1F1F1" height="46.4883" rx="2.5" ry="2.5" style="stroke:#181818;stroke-width:0.5;" width="115.7559" x="524.8" y="677.9383"/><rect fill="#F1F1F1" height="10" style="stroke:#181818;stroke-width:0.5;" width="15" x="620.5559" y="682.9383"/><rect fill="#F1F1F1" height="2" style="stroke:#181818;stroke-width:0.5;" width="4" x="618.5559" y="684.9383"/><rect fill="#F1F1F1" height="2" style="stroke:#181818;stroke-width:0.5;" width="4" x="618.5559" y="688.9383"/><text fill="#000000" font-family="sans-serif" font-size="14" lengthAdjust="spacing" textLength="75.7559" x="539.8" y="711.4734">MCP Server</text></g><!--entity FS2--><g class="entity" data-entity="FS2" data-source-line="21" data-uid="ent0017" id="entity_FS2"><rect fill="#F1F1F1" height="46.4883" rx="2.5" ry="2.5" style="stroke:#181818;stroke-width:0.5;" width="152.7588" x="481.3" y="785.4183"/><rect fill="#F1F1F1" height="10" style="stroke:#181818;stroke-width:0.5;" width="15" x="614.0588" y="790.4183"/><rect fill="#F1F1F1" height="2" style="stroke:#181818;stroke-width:0.5;" width="4" x="612.0588" y="792.4183"/><rect fill="#F1F1F1" height="2" style="stroke:#181818;stroke-width:0.5;" width="4" x="612.0588" y="796.4183"/><text fill="#000000" font-family="sans-serif" font-size="14" lengthAdjust="spacing" textLength="112.7588" x="496.3" y="818.9534">Filesystem Tools</text></g><!--entity mDNS--><g class="entity" data-entity="mDNS" data-source-line="29" data-uid="ent0022" id="entity_mDNS"><rect fill="#F1F1F1" height="46.4883" rx="2.5" ry="2.5" style="stroke:#181818;stroke-width:0.5;" width="151.3984" x="924.98" y="568.4483"/><rect fill="#F1F1F1" height="10" style="stroke:#181818;stroke-width:0.5;" width="15" x="1056.3784" y="573.4483"/><rect fill="#F1F1F1" height="2" style="stroke:#181818;stroke-width:0.5;" width="4" x="1054.3784" y="575.4483"/><rect fill="#F1F1F1" height="2" style="stroke:#181818;stroke-width:0.5;" width="4" x="1054.3784" y="579.4483"/><text fill="#000000" font-family="sans-serif" font-size="14" lengthAdjust="spacing" textLength="111.3984" x="939.98" y="601.9834">mDNS Discovery</text></g><!--entity Streams--><g class="entity" data-entity="Streams" data-source-line="30" data-uid="ent0023" id="entity_Streams"><rect fill="#F1F1F1" height="46.4883" rx="2.5" ry="2.5" style="stroke:#181818;stroke-width:0.5;" width="123.002" x="767.18" y="568.4483"/><rect fill="#F1F1F1" height="10" style="stroke:#181818;stroke-width:0.5;" width="15" x="870.182" y="573.4483"/><rect fill="#F1F1F1" height="2" style="stroke:#181818;stroke-width:0.5;" width="4" x="868.182" y="575.4483"/><rect fill="#F1F1F1" height="2" style="stroke:#181818;stroke-width:0.5;" width="4" x="868.182" y="579.4483"/><text fill="#000000" font-family="sans-serif" font-size="14" lengthAdjust="spacing" textLength="83.002" x="782.18" y="601.9834">P2P Streams</text></g><!--entity Volume--><g class="entity" data-entity="Volume" data-source-line="38" data-uid="ent0028" id="entity_Volume"><path d="M402.64,904.9083 C402.64,894.9083 463.6839,894.9083 463.6839,894.9083 C463.6839,894.9083 524.7279,894.9083 524.7279,904.9083 L524.7279,930.3966 C524.7279,940.3966 463.6839,940.3966 463.6839,940.3966 C463.6839,940.3966 402.64,940.3966 402.64,930.3966 L402.64,904.9083" fill="#F1F1F1" style="stroke:#181818;stroke-width:0.5;"/><path d="M402.64,904.9083 C402.64,914.9083 463.6839,914.9083 463.6839,914.9083 C463.6839,914.9083 524.7279,914.9083 524.7279,904.9083" fill="none" style="stroke:#181818;stroke-width:0.5;"/><text fill="#000000" font-family="sans-serif" font-size="14" lengthAdjust="spacing" textLength="102.0879" x="412.64" y="932.4434">Shared Volume</text></g><g class="entity" data-entity="GMN30" data-source-line="41" data-uid="ent0031" id="entity_GMN30"><path d="M6,796.0083 L6,821.3188 L379.3584,821.3188 L379.3584,806.0083 L369.3584,796.0083 L6,796.0083" fill="#FEFFDD" style="stroke:#181818;stroke-width:0.5;"/><path d="M369.3584,796.0083 L369.3584,806.0083 L379.3584,806.0083 L369.3584,796.0083" fill="#FEFFDD" style="stroke:#181818;stroke-width:1;"/><text fill="#000000" font-family="sans-serif" font-size="13" lengthAdjust="spacing" textLength="352.3584" x="12" y="813.5766">Agent 1 focuses on DSL processing and LLM integration</text></g><g class="entity" data-entity="GMN33" data-source-line="42" data-uid="ent0034" id="entity_GMN33"><path d="M43.49,904.9983 L43.49,930.3088 L341.8699,930.3088 L341.8699,914.9983 L331.8699,904.9983 L43.49,904.9983" fill="#FEFFDD" style="stroke:#181818;stroke-width:0.5;"/><path d="M331.8699,904.9983 L331.8699,914.9983 L341.8699,914.9983 L331.8699,904.9983" fill="#FEFFDD" style="stroke:#181818;stroke-width:1;"/><text fill="#000000" font-family="sans-serif" font-size="13" lengthAdjust="spacing" textLength="277.3799" x="49.49" y="922.5666">Agent 2 specializes in filesystem operations</text></g><!--link API1 to DSL1--><g class="link" data-entity-1="API1" data-entity-2="DSL1" data-source-line="10" data-uid="lnk8" id="link_API1_DSL1"><path d="M1007.68,125.3683 C1007.68,143.1683 1007.68,161.8383 1007.68,179.6283" fill="none" id="API1-to-DSL1" style="stroke:#181818;stroke-width:1;"/><polygon fill="#181818" points="1007.68,185.6283,1011.68,176.6283,1007.68,180.6283,1003.68,176.6283,1007.68,185.6283" style="stroke:#181818;stroke-width:1;"/></g><!--link DSL1 to Core1--><g class="link" data-entity-1="DSL1" data-entity-2="Core1" data-source-line="11" data-uid="lnk9" id="link_DSL1_Core1"><path d="M992.02,232.8583 C979.7,250.6483 966.0341,270.3943 953.7241,288.1843" fill="none" id="DSL1-to-Core1" style="stroke:#181818;stroke-width:1;"/><polygon fill="#181818" points="950.31,293.1183,958.7205,287.9934,953.1551,289.0067,952.1419,283.4413,950.31,293.1183" style="stroke:#181818;stroke-width:1;"/></g><!--link DSL1 to LLM1--><g class="link" data-entity-1="DSL1" data-entity-2="LLM1" data-source-line="12" data-uid="lnk10" id="link_DSL1_LLM1"><path d="M1023.98,232.8583 C1036.81,250.6483 1051.084,270.4592 1063.894,288.2492" fill="none" id="DSL1-to-LLM1" style="stroke:#181818;stroke-width:1;"/><polygon fill="#181818" points="1067.4,293.1183,1065.387,283.4773,1064.4783,289.0607,1058.8949,288.1521,1067.4,293.1183" style="stroke:#181818;stroke-width:1;"/></g><!--link Core1 to P2P1--><g class="link" data-entity-1="Core1" data-entity-2="P2P1" data-source-line="13" data-uid="lnk11" id="link_Core1_P2P1"><path d="M935.22,340.3283 C935.76,363.3483 936.4563,392.83 937.0063,415.78" fill="none" id="Core1-to-P2P1" style="stroke:#181818;stroke-width:1;"/><polygon fill="#181818" points="937.15,421.7783,940.9332,412.685,937.0302,416.7797,932.9355,412.8767,937.15,421.7783" style="stroke:#181818;stroke-width:1;"/></g><!--link P2P2 to Core2--><g class="link" data-entity-1="P2P2" data-entity-2="Core2" data-source-line="23" data-uid="lnk18" id="link_P2P2_Core2"><path d="M642.81,468.7583 C640.03,478.4483 636.94,489.9383 634.68,500.4483 C629.75,523.3883 626.6245,544.0098 624.2045,562.3598" fill="none" id="P2P2-to-Core2" style="stroke:#181818;stroke-width:1;"/><polygon fill="#181818" points="623.42,568.3083,628.5624,559.9085,624.0737,563.3512,620.6311,558.8625,623.42,568.3083" style="stroke:#181818;stroke-width:1;"/></g><!--link Core2 to Bridge2--><g class="link" data-entity-1="Core2" data-entity-2="Bridge2" data-source-line="24" data-uid="lnk19" id="link_Core2_Bridge2"><path d="M612.71,615.2183 C606.23,633.5683 599.1216,653.682 592.6316,672.022" fill="none" id="Core2-to-Bridge2" style="stroke:#181818;stroke-width:1;"/><polygon fill="#181818" points="590.63,677.6783,597.4033,670.5282,592.298,672.9647,589.8615,667.8594,590.63,677.6783" style="stroke:#181818;stroke-width:1;"/></g><!--link Bridge2 to FS2--><g class="link" data-entity-1="Bridge2" data-entity-2="FS2" data-source-line="25" data-uid="lnk20" id="link_Bridge2_FS2"><path d="M577.32,724.8083 C573.1,742.6083 568.6348,761.4503 564.4148,779.2403" fill="none" id="Bridge2-to-FS2" style="stroke:#181818;stroke-width:1;"/><polygon fill="#181818" points="563.03,785.0783,568.9993,777.2445,564.184,780.2133,561.2153,775.3981,563.03,785.0783" style="stroke:#181818;stroke-width:1;"/></g><!--link P2P1 to Streams--><g class="link" data-entity-1="P2P1" data-entity-2="Streams" data-source-line="33" data-uid="lnk24" id="link_P2P1_Streams"><path d="M917.0359,473.5677 C896.5559,500.7077 869.6233,536.4083 849.2033,563.4783" fill="none" id="P2P1-Streams" style="stroke:#181818;stroke-width:1;"/><polygon fill="#181818" points="920.65,468.7783,912.0359,473.553,917.6382,472.7694,918.4218,478.3718,920.65,468.7783" style="stroke:#181818;stroke-width:1;"/><polygon fill="#181818" points="845.59,568.2683,854.2033,563.4921,848.6011,564.2766,847.8166,558.6744,845.59,568.2683" style="stroke:#181818;stroke-width:1;"/></g><!--link P2P2 to Streams--><g class="link" data-entity-1="P2P2" data-entity-2="Streams" data-source-line="34" data-uid="lnk25" id="link_P2P2_Streams"><path d="M662.251,473.9958 C670.321,489.8558 680.49,505.0783 697.68,517.4483 C708.53,525.2483 714.47,520.0083 726.68,525.4483 C752.41,536.9083 774.2548,550.7788 793.8948,564.6988" fill="none" id="P2P2-Streams" style="stroke:#181818;stroke-width:1;"/><polygon fill="#181818" points="659.53,468.6483,660.0464,478.4836,661.7975,473.1046,667.1765,474.8556,659.53,468.6483" style="stroke:#181818;stroke-width:1;"/><polygon fill="#181818" points="798.79,568.1683,793.7602,559.7006,794.7107,565.277,789.1343,566.2275,798.79,568.1683" style="stroke:#181818;stroke-width:1;"/></g><!--link P2P1 to mDNS--><g class="link" data-entity-1="P2P1" data-entity-2="mDNS" data-source-line="35" data-uid="lnk26" id="link_P2P1_mDNS"><path d="M949.9192,474.2777 C961.7592,501.4177 976.7024,535.6981 988.5024,562.7681" fill="none" id="P2P1-mDNS" style="stroke:#181818;stroke-width:1;stroke-dasharray:7,7;"/><polygon fill="#181818" points="947.52,468.7783,947.4525,478.6269,949.5193,473.3612,954.7851,475.428,947.52,468.7783" style="stroke:#181818;stroke-width:1;"/><polygon fill="#181818" points="990.9,568.2683,990.9704,558.4197,988.902,563.6848,983.6369,561.6164,990.9,568.2683" style="stroke:#181818;stroke-width:1;"/><text fill="#000000" font-family="sans-serif" font-size="13" lengthAdjust="spacing" textLength="52.5015" x="968.29" y="514.0166">discover</text></g><!--link P2P2 to mDNS--><g class="link" data-entity-1="P2P2" data-entity-2="mDNS" data-source-line="36" data-uid="lnk27" id="link_P2P2_mDNS"><path d="M716.7171,460.6468 C770.3171,473.3968 843.59,494.0983 907.68,525.4483 C931.24,536.9683 950.682,550.447 968.482,564.277" fill="none" id="P2P2-mDNS" style="stroke:#181818;stroke-width:1;stroke-dasharray:7,7;"/><polygon fill="#181818" points="710.88,459.2583,718.71,465.2324,715.7443,460.4154,720.5614,457.4496,710.88,459.2583" style="stroke:#181818;stroke-width:1;"/><polygon fill="#181818" points="973.22,567.9583,968.5672,559.2778,969.2717,564.8906,963.6589,565.5951,973.22,567.9583" style="stroke:#181818;stroke-width:1;"/><text fill="#000000" font-family="sans-serif" font-size="13" lengthAdjust="spacing" textLength="52.5015" x="888.87" y="514.0166">discover</text></g><!--link FS2 to Volume--><g class="link" data-entity-1="FS2" data-entity-2="Volume" data-source-line="39" data-uid="lnk29" id="link_FS2_Volume"><path d="M537.74,832.3583 C521.58,850.7583 502.8914,872.0319 486.9014,890.2219" fill="none" id="FS2-to-Volume" style="stroke:#181818;stroke-width:1;"/><polygon fill="#181818" points="482.94,894.7283,491.8863,890.6096,486.2411,890.973,485.8778,885.3278,482.94,894.7283" style="stroke:#181818;stroke-width:1;"/></g><!--link GMN30 to Volume--><g class="link" data-entity-1="GMN30" data-entity-2="Volume" data-source-line="41" data-uid="lnk32" id="link_GMN30_Volume"><path d="M223.24,821.7283 C267.88,839.3583 351.68,872.4383 407.6,894.5083" fill="none" id="GMN30-Volume" style="stroke:#181818;stroke-width:1;stroke-dasharray:7,7;"/></g><!--link GMN30 to GMN33--><g class="link" data-entity-1="GMN30" data-entity-2="GMN33" data-source-line="42" data-uid="lnk35" id="link_GMN30_GMN33"><path d="M192.68,821.5283 C192.68,842.0883 192.68,884.1383 192.68,904.7383" fill="none" id="GMN30-GMN33" style="stroke:#181818;stroke-width:1;stroke-dasharray:7,7;"/></g><!--SRC=[TL9HQy8m47xlhpXyLxHFOmp1AU90NQ6obx67s9urcFPA4hUviV- -v98gR0g5vhwx- -xxSh7IAeHCYqzf84ipc5JOMCXFnc8D4rtifSN27ZKcIIkAWwWGUg5cr8Fl1E1riTcujkm9xeR3uHi8uuEHpypo9Jmx2ZHM2qkQamxaP22PaaQ6_O5nBs8Xcb9Xg7Snuylb2gPAkYQ6NUXXz_bfqE-FEsR_uxYZF0EnXt46cFlddxFqYhDHvooz8Jwz8PxnrJI37FLxX1-rBAlGCPSAJRZj3P4od9_dQV3c-yzUqgWz81UEU6BKTpf3XQ9Z2JqbjstQmXhj1-b3T5NFrZdCf2d8oJdnF0zrydEhKTH1HpnxHdzLyE17T21h-ukuci5Wp8Hm3sMS4cklPP9IMB4Lnbr-lXSQItWXTQonv-U7O-9CiRaO9WrP14kjuubF4NPK70qQeCQl6rfD1HeZcmhSDlpYGJOMA_SC9JM1O4lMKdtcIC6qM4YXv9VZaGtiBfkX5aEdINu1]--></g></svg>