<svg xmlns="http://www.w3.org/2000/svg" xmlns:xlink="http://www.w3.org/1999/xlink" contentStyleType="text/css" data-diagram-type="DESCRIPTION" height="1366px" preserveAspectRatio="none" style="width:784px;height:1366px;background:#FFFFFF;" version="1.1" viewBox="0 0 784 1366" width="784px" zoomAndPan="magnify"><defs/><g><!--cluster Agent 1--><g class="cluster" data-entity="Agent 1" data-source-line="3" data-uid="ent0002" id="cluster_Agent 1"><path d="M318.5,11 L380.5449,11 A3.75,3.75 0 0 1 383.0449,13.5 L390.0449,34.0146 L774.5,34.0146 A2.5,2.5 0 0 1 777,36.5146 L777,479.56 A2.5,2.5 0 0 1 774.5,482.06 L318.5,482.06 A2.5,2.5 0 0 1 316,479.56 L316,13.5 A2.5,2.5 0 0 1 318.5,11" fill="#FFFFFF" style="stroke:#000000;stroke-width:1;"/><line style="stroke:#000000;stroke-width:1;" x1="316" x2="390.0449" y1="34.0146" y2="34.0146"/><text fill="#000000" font-family="Verdana" font-size="14" font-weight="bold" lengthAdjust="spacing" textLength="61.0449" x="320" y="27.0752">Agent 1</text></g><!--cluster Agent 2--><g class="cluster" data-entity="Agent 2" data-source-line="12" data-uid="ent0009" id="cluster_Agent 2"><path d="M13.5,655.07 L75.5449,655.07 A3.75,3.75 0 0 1 78.0449,657.57 L85.0449,678.0846 L476.5,678.0846 A2.5,2.5 0 0 1 479,680.5846 L479,1247.65 A2.5,2.5 0 0 1 476.5,1250.15 L13.5,1250.15 A2.5,2.5 0 0 1 11,1247.65 L11,657.57 A2.5,2.5 0 0 1 13.5,655.07" fill="#FFFFFF" style="stroke:#000000;stroke-width:1;"/><line style="stroke:#000000;stroke-width:1;" x1="11" x2="85.0449" y1="678.0846" y2="678.0846"/><text fill="#000000" font-family="Verdana" font-size="14" font-weight="bold" lengthAdjust="spacing" textLength="61.0449" x="15" y="671.1452">Agent 2</text></g><!--entity API1--><g class="entity" data-entity="API1" data-source-line="4" data-uid="ent0003" id="entity_API1"><rect fill="#FFFFFF" height="47.0146" rx="2.5" ry="2.5" style="stroke:#000000;stroke-width:1;" width="105.0439" x="332.48" y="47"/><rect fill="#FFFFFF" height="10" style="stroke:#000000;stroke-width:1;" width="15" x="417.5239" y="52"/><rect fill="#FFFFFF" height="2" style="stroke:#000000;stroke-width:1;" width="4" x="415.5239" y="54"/><rect fill="#FFFFFF" height="2" style="stroke:#000000;stroke-width:1;" width="4" x="415.5239" y="58"/><text fill="#000000" font-family="Verdana" font-size="14" lengthAdjust="spacing" textLength="65.0439" x="347.48" y="81.0752">HTTP API</text></g><!--entity DSL1--><g class="entity" data-entity="DSL1" data-source-line="5" data-uid="ent0004" id="entity_DSL1"><rect fill="#FFFFFF" height="47.0146" rx="2.5" ry="2.5" style="stroke:#000000;stroke-width:1;" width="133.707" x="332.15" y="171.01"/><rect fill="#FFFFFF" height="10" style="stroke:#000000;stroke-width:1;" width="15" x="445.857" y="176.01"/><rect fill="#FFFFFF" height="2" style="stroke:#000000;stroke-width:1;" width="4" x="443.857" y="178.01"/><rect fill="#FFFFFF" height="2" style="stroke:#000000;stroke-width:1;" width="4" x="443.857" y="182.01"/><text fill="#000000" font-family="Verdana" font-size="14" lengthAdjust="spacing" textLength="93.707" x="347.15" y="205.0852">DSL Analyzer</text></g><!--entity Core1--><g class="entity" data-entity="Core1" data-source-line="6" data-uid="ent0005" id="entity_Core1"><rect fill="#FFFFFF" height="47.0146" rx="2.5" ry="2.5" style="stroke:#000000;stroke-width:1;" width="118.5176" x="339.74" y="295.03"/><rect fill="#FFFFFF" height="10" style="stroke:#000000;stroke-width:1;" width="15" x="438.2576" y="300.03"/><rect fill="#FFFFFF" height="2" style="stroke:#000000;stroke-width:1;" width="4" x="436.2576" y="302.03"/><rect fill="#FFFFFF" height="2" style="stroke:#000000;stroke-width:1;" width="4" x="436.2576" y="306.03"/><text fill="#000000" font-family="Verdana" font-size="14" lengthAdjust="spacing" textLength="78.5176" x="354.74" y="329.1052">Agent Core</text></g><!--entity P2P1--><g class="entity" data-entity="P2P1" data-source-line="7" data-uid="ent0006" id="entity_P2P1"><rect fill="#FFFFFF" height="47.0146" rx="2.5" ry="2.5" style="stroke:#000000;stroke-width:1;" width="127.2676" x="335.37" y="419.04"/><rect fill="#FFFFFF" height="10" style="stroke:#000000;stroke-width:1;" width="15" x="442.6376" y="424.04"/><rect fill="#FFFFFF" height="2" style="stroke:#000000;stroke-width:1;" width="4" x="440.6376" y="426.04"/><rect fill="#FFFFFF" height="2" style="stroke:#000000;stroke-width:1;" width="4" x="440.6376" y="430.04"/><text fill="#000000" font-family="Verdana" font-size="14" lengthAdjust="spacing" textLength="87.2676" x="350.37" y="453.1152">P2P Protocol</text></g><!--entity MCP1--><g class="entity" data-entity="MCP1" data-source-line="8" data-uid="ent0007" id="entity_MCP1"><rect fill="#FFFFFF" height="47.0146" rx="2.5" ry="2.5" style="stroke:#000000;stroke-width:1;" width="121.4229" x="472.29" y="47"/><rect fill="#FFFFFF" height="10" style="stroke:#000000;stroke-width:1;" width="15" x="573.7129" y="52"/><rect fill="#FFFFFF" height="2" style="stroke:#000000;stroke-width:1;" width="4" x="571.7129" y="54"/><rect fill="#FFFFFF" height="2" style="stroke:#000000;stroke-width:1;" width="4" x="571.7129" y="58"/><text fill="#000000" font-family="Verdana" font-size="14" lengthAdjust="spacing" textLength="81.4229" x="487.29" y="81.0752">MCP Server</text></g><!--entity Tools1--><g class="entity" data-entity="Tools1" data-source-line="9" data-uid="ent0008" id="entity_Tools1"><rect fill="#FFFFFF" height="47.0146" rx="2.5" ry="2.5" style="stroke:#000000;stroke-width:1;" width="132.0938" x="628.95" y="47"/><rect fill="#FFFFFF" height="10" style="stroke:#000000;stroke-width:1;" width="15" x="741.0438" y="52"/><rect fill="#FFFFFF" height="2" style="stroke:#000000;stroke-width:1;" width="4" x="739.0438" y="54"/><rect fill="#FFFFFF" height="2" style="stroke:#000000;stroke-width:1;" width="4" x="739.0438" y="58"/><text fill="#000000" font-family="Verdana" font-size="14" lengthAdjust="spacing" textLength="92.0938" x="643.95" y="81.0752">Tool Registry</text></g><!--entity API2--><g class="entity" data-entity="API2" data-source-line="13" data-uid="ent0010" id="entity_API2"><rect fill="#FFFFFF" height="47.0146" rx="2.5" ry="2.5" style="stroke:#000000;stroke-width:1;" width="105.0439" x="27.48" y="691.07"/><rect fill="#FFFFFF" height="10" style="stroke:#000000;stroke-width:1;" width="15" x="112.5239" y="696.07"/><rect fill="#FFFFFF" height="2" style="stroke:#000000;stroke-width:1;" width="4" x="110.5239" y="698.07"/><rect fill="#FFFFFF" height="2" style="stroke:#000000;stroke-width:1;" width="4" x="110.5239" y="702.07"/><text fill="#000000" font-family="Verdana" font-size="14" lengthAdjust="spacing" textLength="65.0439" x="42.48" y="725.1452">HTTP API</text></g><!--entity DSL2--><g class="entity" data-entity="DSL2" data-source-line="14" data-uid="ent0011" id="entity_DSL2"><rect fill="#FFFFFF" height="47.0146" rx="2.5" ry="2.5" style="stroke:#000000;stroke-width:1;" width="133.707" x="167.15" y="691.07"/><rect fill="#FFFFFF" height="10" style="stroke:#000000;stroke-width:1;" width="15" x="280.857" y="696.07"/><rect fill="#FFFFFF" height="2" style="stroke:#000000;stroke-width:1;" width="4" x="278.857" y="698.07"/><rect fill="#FFFFFF" height="2" style="stroke:#000000;stroke-width:1;" width="4" x="278.857" y="702.07"/><text fill="#000000" font-family="Verdana" font-size="14" lengthAdjust="spacing" textLength="93.707" x="182.15" y="725.1452">DSL Analyzer</text></g><!--entity Core2--><g class="entity" data-entity="Core2" data-source-line="15" data-uid="ent0012" id="entity_Core2"><rect fill="#FFFFFF" height="47.0146" rx="2.5" ry="2.5" style="stroke:#000000;stroke-width:1;" width="118.5176" x="317.74" y="815.09"/><rect fill="#FFFFFF" height="10" style="stroke:#000000;stroke-width:1;" width="15" x="416.2576" y="820.09"/><rect fill="#FFFFFF" height="2" style="stroke:#000000;stroke-width:1;" width="4" x="414.2576" y="822.09"/><rect fill="#FFFFFF" height="2" style="stroke:#000000;stroke-width:1;" width="4" x="414.2576" y="826.09"/><text fill="#000000" font-family="Verdana" font-size="14" lengthAdjust="spacing" textLength="78.5176" x="332.74" y="849.1652">Agent Core</text></g><!--entity P2P2--><g class="entity" data-entity="P2P2" data-source-line="16" data-uid="ent0013" id="entity_P2P2"><rect fill="#FFFFFF" height="47.0146" rx="2.5" ry="2.5" style="stroke:#000000;stroke-width:1;" width="127.2676" x="335.37" y="691.07"/><rect fill="#FFFFFF" height="10" style="stroke:#000000;stroke-width:1;" width="15" x="442.6376" y="696.07"/><rect fill="#FFFFFF" height="2" style="stroke:#000000;stroke-width:1;" width="4" x="440.6376" y="698.07"/><rect fill="#FFFFFF" height="2" style="stroke:#000000;stroke-width:1;" width="4" x="440.6376" y="702.07"/><text fill="#000000" font-family="Verdana" font-size="14" lengthAdjust="spacing" textLength="87.2676" x="350.37" y="725.1452">P2P Protocol</text></g><!--entity MCP2--><g class="entity" data-entity="MCP2" data-source-line="17" data-uid="ent0014" id="entity_MCP2"><rect fill="#FFFFFF" height="47.0146" rx="2.5" ry="2.5" style="stroke:#000000;stroke-width:1;" width="121.4229" x="316.29" y="939.1"/><rect fill="#FFFFFF" height="10" style="stroke:#000000;stroke-width:1;" width="15" x="417.7129" y="944.1"/><rect fill="#FFFFFF" height="2" style="stroke:#000000;stroke-width:1;" width="4" x="415.7129" y="946.1"/><rect fill="#FFFFFF" height="2" style="stroke:#000000;stroke-width:1;" width="4" x="415.7129" y="950.1"/><text fill="#000000" font-family="Verdana" font-size="14" lengthAdjust="spacing" textLength="81.4229" x="331.29" y="973.1752">MCP Server</text></g><!--entity Tools2--><g class="entity" data-entity="Tools2" data-source-line="18" data-uid="ent0015" id="entity_Tools2"><rect fill="#FFFFFF" height="47.0146" rx="2.5" ry="2.5" style="stroke:#000000;stroke-width:1;" width="132.0938" x="310.95" y="1063.12"/><rect fill="#FFFFFF" height="10" style="stroke:#000000;stroke-width:1;" width="15" x="423.0438" y="1068.12"/><rect fill="#FFFFFF" height="2" style="stroke:#000000;stroke-width:1;" width="4" x="421.0438" y="1070.12"/><rect fill="#FFFFFF" height="2" style="stroke:#000000;stroke-width:1;" width="4" x="421.0438" y="1074.12"/><text fill="#000000" font-family="Verdana" font-size="14" lengthAdjust="spacing" textLength="92.0938" x="325.95" y="1097.1952">Tool Registry</text></g><!--entity FS2--><g class="entity" data-entity="FS2" data-source-line="19" data-uid="ent0016" id="entity_FS2"><rect fill="#FFFFFF" height="47.0146" rx="2.5" ry="2.5" style="stroke:#000000;stroke-width:1;" width="156.0947" x="298.95" y="1187.13"/><rect fill="#FFFFFF" height="10" style="stroke:#000000;stroke-width:1;" width="15" x="435.0447" y="1192.13"/><rect fill="#FFFFFF" height="2" style="stroke:#000000;stroke-width:1;" width="4" x="433.0447" y="1194.13"/><rect fill="#FFFFFF" height="2" style="stroke:#000000;stroke-width:1;" width="4" x="433.0447" y="1198.13"/><text fill="#000000" font-family="Verdana" font-size="14" lengthAdjust="spacing" textLength="116.0947" x="313.95" y="1221.2052">Filesystem Tools</text></g><!--entity Network--><g class="entity" data-entity="Network" data-source-line="22" data-uid="ent0017" id="entity_Network"><path d="M340.12,555.1372 C342.0981,548.5165 347.942,546.0646 352.8183,552.2672 C356.1763,546.6146 361.3349,547.7412 364.4342,552.5543 C366.8938,546.5117 372.3974,546.2174 375.8298,551.5826 C378.876,544.6369 383.0667,543.4447 388.4782,549.2333 C392.3942,543.3651 396.4735,543.8547 400.0496,549.5727 C402.8115,543.7129 407.7283,544.4474 411.0369,548.9957 C415.9074,544.6702 421.2207,545.1426 423.8294,551.6634 C427.3071,546.1353 432.8027,546.6557 436.2394,551.7115 C441.0105,546.8241 444.2619,547.9471 447.1644,553.6409 C451.1362,547.8554 456.8808,548.997 459.4707,555.0744 C467.6436,556.6728 470.5676,560.6674 466.4058,568.5934 C473.6907,576.9964 469.7274,581.9586 461.0278,585.1782 C458.2491,591.3716 451.9316,591.6378 448.0192,586.477 C443.1374,592.6659 439.0318,591.6644 435.2984,585.3121 C432.9085,591.4939 426.7269,591.2088 423.1468,586.6599 C420.4813,592.5489 415.4871,593.2951 411.6909,587.7974 C408.2861,592.606 402.2581,593.7321 399.5895,587.0238 C396.3774,591.1991 390.8676,592.1291 388.6008,586.0144 C385.5589,592.77 379.5661,592.3133 375.323,587.3786 C371.0254,591.2964 367.4889,590.6469 364.808,585.5026 C361.308,591.9926 356.4394,591.6653 351.9058,586.6629 C347.3695,591.7013 342.1372,590.665 339.7644,584.3493 C330.0433,582.9414 327.4396,577.8456 332.1596,569.1921 C327.6148,561.9711 331.2478,554.7592 340.12,555.1372" fill="#FFFFFF" style="stroke:#000000;stroke-width:1;"/><text fill="#000000" font-family="Verdana" font-size="14" lengthAdjust="spacing" textLength="106.2168" x="345.89" y="574.1352">libp2p Network</text></g><!--entity Shared Volume--><g class="entity" data-entity="Shared Volume" data-source-line="33" data-uid="ent0027" id="entity_Shared Volume"><rect fill="#FFFFFF" height="47.0146" rx="2.5" ry="2.5" style="stroke:#000000;stroke-width:1;" width="147.5225" x="303.24" y="1313.15"/><rect fill="#FFFFFF" height="10" style="stroke:#000000;stroke-width:1;" width="15" x="430.7625" y="1318.15"/><rect fill="#FFFFFF" height="2" style="stroke:#000000;stroke-width:1;" width="4" x="428.7625" y="1320.15"/><rect fill="#FFFFFF" height="2" style="stroke:#000000;stroke-width:1;" width="4" x="428.7625" y="1324.15"/><text fill="#000000" font-family="Verdana" font-size="14" lengthAdjust="spacing" textLength="107.5225" x="318.24" y="1347.2252">Shared Volume</text></g><!--link API1 to DSL1--><g class="link" data-entity-1="API1" data-entity-2="DSL1" data-source-line="24" data-uid="lnk18" id="link_API1_DSL1"><path d="M387.63,94.46 C390.14,116.27 393.1958,142.9291 395.6958,164.7091" fill="none" id="API1-to-DSL1" style="stroke:#000000;stroke-width:1;"/><polygon fill="#000000" points="396.38,170.67,399.3276,161.2726,395.8098,165.7026,391.3798,162.1849,396.38,170.67" style="stroke:#000000;stroke-width:1;"/><text fill="#000000" font-family="Verdana" font-size="13" lengthAdjust="spacing" textLength="83.459" x="393.84" y="138.0798">DSL Request</text></g><!--link DSL1 to Core1--><g class="link" data-entity-1="DSL1" data-entity-2="Core1" data-source-line="25" data-uid="lnk19" id="link_DSL1_Core1"><path d="M399,218.47 C399,240.29 399,266.91 399,288.69" fill="none" id="DSL1-to-Core1" style="stroke:#000000;stroke-width:1;"/><polygon fill="#000000" points="399,294.69,403,285.69,399,289.69,395,285.69,399,294.69" style="stroke:#000000;stroke-width:1;"/><text fill="#000000" font-family="Verdana" font-size="13" lengthAdjust="spacing" textLength="114.772" x="400" y="262.0998">Parsed Command</text></g><!--link Core1 to P2P1--><g class="link" data-entity-1="Core1" data-entity-2="P2P1" data-source-line="26" data-uid="lnk20" id="link_Core1_P2P1"><path d="M399,342.49 C399,364.3 399,390.92 399,412.7" fill="none" id="Core1-to-P2P1" style="stroke:#000000;stroke-width:1;"/><polygon fill="#000000" points="399,418.7,403,409.7,399,413.7,395,409.7,399,418.7" style="stroke:#000000;stroke-width:1;"/><text fill="#000000" font-family="Verdana" font-size="13" lengthAdjust="spacing" textLength="110.7031" x="400" y="386.1098">Remote Tool Call</text></g><!--link P2P1 to Network--><g class="link" data-entity-1="P2P1" data-entity-2="Network" data-source-line="27" data-uid="lnk21" id="link_P2P1_Network"><path d="M399,472.3 C399,494.67 399,516.64 399,538.96" fill="none" id="P2P1-Network" style="stroke:#000000;stroke-width:1;"/><polygon fill="#000000" points="399,466.3,395,475.3,399,471.3,403,475.3,399,466.3" style="stroke:#000000;stroke-width:1;"/><polygon fill="#000000" points="399,544.96,403,535.96,399,539.96,395,535.96,399,544.96" style="stroke:#000000;stroke-width:1;"/><text fill="#000000" font-family="Verdana" font-size="13" lengthAdjust="spacing" textLength="130.1777" x="400" y="512.1298">P2P Communication</text></g><!--link Network to P2P2--><g class="link" data-entity-1="Network" data-entity-2="P2P2" data-source-line="28" data-uid="lnk22" id="link_Network_P2P2"><path d="M399,598.38 C399,625.35 399,657.95 399,684.87" fill="none" id="Network-P2P2" style="stroke:#000000;stroke-width:1;"/><polygon fill="#000000" points="399,592.38,395,601.38,399,597.38,403,601.38,399,592.38" style="stroke:#000000;stroke-width:1;"/><polygon fill="#000000" points="399,690.87,403,681.87,399,685.87,395,681.87,399,690.87" style="stroke:#000000;stroke-width:1;"/><text fill="#000000" font-family="Verdana" font-size="13" lengthAdjust="spacing" textLength="130.1777" x="400" y="636.1398">P2P Communication</text></g><!--link P2P2 to Core2--><g class="link" data-entity-1="P2P2" data-entity-2="Core2" data-source-line="29" data-uid="lnk23" id="link_P2P2_Core2"><path d="M394.86,738.53 C390.93,760.34 386.1154,787.0654 382.1854,808.8454" fill="none" id="P2P2-to-Core2" style="stroke:#000000;stroke-width:1;"/><polygon fill="#000000" points="381.12,814.75,386.6546,806.6033,382.0079,809.8295,378.7817,805.1827,381.12,814.75" style="stroke:#000000;stroke-width:1;"/><text fill="#000000" font-family="Verdana" font-size="13" lengthAdjust="spacing" textLength="84.6777" x="390.32" y="782.1598">Tool Request</text></g><!--link Core2 to MCP2--><g class="link" data-entity-1="Core2" data-entity-2="MCP2" data-source-line="30" data-uid="lnk24" id="link_Core2_MCP2"><path d="M377,862.54 C377,884.36 377,910.98 377,932.76" fill="none" id="Core2-to-MCP2" style="stroke:#000000;stroke-width:1;"/><polygon fill="#000000" points="377,938.76,381,929.76,377,933.76,373,929.76,377,938.76" style="stroke:#000000;stroke-width:1;"/><text fill="#000000" font-family="Verdana" font-size="13" lengthAdjust="spacing" textLength="83.4526" x="378" y="906.1698">Execute Tool</text></g><!--link MCP2 to Tools2--><g class="link" data-entity-1="MCP2" data-entity-2="Tools2" data-source-line="31" data-uid="lnk25" id="link_MCP2_Tools2"><path d="M377,986.56 C377,1008.37 377,1035 377,1056.78" fill="none" id="MCP2-to-Tools2" style="stroke:#000000;stroke-width:1;"/><polygon fill="#000000" points="377,1062.78,381,1053.78,377,1057.78,373,1053.78,377,1062.78" style="stroke:#000000;stroke-width:1;"/><text fill="#000000" font-family="Verdana" font-size="13" lengthAdjust="spacing" textLength="82.6973" x="378" y="1030.1898">Find Handler</text></g><!--link Tools2 to FS2--><g class="link" data-entity-1="Tools2" data-entity-2="FS2" data-source-line="32" data-uid="lnk26" id="link_Tools2_FS2"><path d="M377,1110.57 C377,1132.39 377,1159.01 377,1180.79" fill="none" id="Tools2-to-FS2" style="stroke:#000000;stroke-width:1;"/><polygon fill="#000000" points="377,1186.79,381,1177.79,377,1181.79,373,1177.79,377,1186.79" style="stroke:#000000;stroke-width:1;"/><text fill="#000000" font-family="Verdana" font-size="13" lengthAdjust="spacing" textLength="60.3345" x="378" y="1154.1998">write_file</text></g><!--link FS2 to Shared Volume--><g class="link" data-entity-1="FS2" data-entity-2="Shared Volume" data-source-line="33" data-uid="lnk28" id="link_FS2_Shared Volume"><path d="M377,1234.38 C377,1256.76 377,1284.72 377,1307.05" fill="none" id="FS2-to-Shared Volume" style="stroke:#000000;stroke-width:1;"/><polygon fill="#000000" points="377,1313.05,381,1304.05,377,1308.05,373,1304.05,377,1313.05" style="stroke:#000000;stroke-width:1;"/><text fill="#000000" font-family="Verdana" font-size="13" lengthAdjust="spacing" textLength="69.9639" x="378" y="1280.2198">Create File</text></g><!--SRC=[VP51JyCm38Nl-HMcznsMupGXJOLfI82gTU8o8HHQiqLBcvAcZ87uxzXkTsBbbEHzZlFySXNtM24qpjXQgSOK1xD3I1Oxh2DC4_XM0DlLPfF18hjx1jFoEcNn9h-7HMtSwGk30184z7TJ7r1ateYUwGoouACll1D2We27D8CSmyVGXuuYRxntiCQTRMCu2M6bdQgVFqRrY54zPbIF6DLZHlLbe_eVeyAMrc5xQYDMlIXucMiUed2-Ao5nzhNH3JnYFFfmIBXWs2l5OSDaSYtXmemNUkczmpOgaPX9mWGp4reiwLXLfYvLBtC11qryZPMFA3uWDSufqUTSCJp8JMXuxj3LjZ3H-bgTsNnefIzM2JYxuP8XbTvhBpBcq8ZUVcBH3MQKQ0pxt0WlRLt2YgPm6DIWSW4bH_GORCINDufMiS1Wc-zDeE6VlEig-iyPf04DFS0Ve7u1]--></g></svg>
