<svg xmlns="http://www.w3.org/2000/svg" xmlns:xlink="http://www.w3.org/1999/xlink" contentStyleType="text/css" data-diagram-type="ACTIVITY" height="583px" preserveAspectRatio="none" style="width:635px;height:583px;background:#FFFFFF;" version="1.1" viewBox="0 0 635 583" width="635px" zoomAndPan="magnify"><title>System Health Check</title><defs/><g><g class="title" data-source-line="1"><text fill="#000000" font-family="sans-serif" font-size="14" font-weight="bold" lengthAdjust="spacing" textLength="151.2178" x="240.7163" y="33.5352">System Health Check</text></g><ellipse cx="416.1434" cy="57.4883" fill="#222222" rx="10" ry="10" style="stroke:#222222;stroke-width:1;"/><rect fill="#F1F1F1" height="34.1328" rx="12.5" ry="12.5" style="stroke:#181818;stroke-width:0.5;" width="112.1855" x="360.0507" y="87.4883"/><text fill="#000000" font-family="sans-serif" font-size="12" lengthAdjust="spacing" textLength="92.1855" x="370.0507" y="109.0898">Check HTTP API</text><polygon fill="#F1F1F1" points="373.3976,141.6211,458.8893,141.6211,470.8893,153.6211,458.8893,165.6211,373.3976,165.6211,361.3976,153.6211,373.3976,141.6211" style="stroke:#181818;stroke-width:0.5;"/><text fill="#000000" font-family="sans-serif" font-size="11" lengthAdjust="spacing" textLength="85.4917" x="373.3976" y="157.7783">API responding?</text><text fill="#000000" font-family="sans-serif" font-size="11" lengthAdjust="spacing" textLength="17.4829" x="343.9147" y="151.3008">yes</text><text fill="#000000" font-family="sans-serif" font-size="11" lengthAdjust="spacing" textLength="13.5835" x="470.8893" y="151.3008">no</text><rect fill="#F1F1F1" height="34.1328" rx="12.5" ry="12.5" style="stroke:#181818;stroke-width:0.5;" width="154.1797" x="196.199" y="175.6211"/><text fill="#000000" font-family="sans-serif" font-size="12" lengthAdjust="spacing" textLength="134.1797" x="206.199" y="197.2227">Check P2P connections</text><polygon fill="#F1F1F1" points="227.519,229.7539,319.0586,229.7539,331.0586,241.7539,319.0586,253.7539,227.519,253.7539,215.519,241.7539,227.519,229.7539" style="stroke:#181818;stroke-width:0.5;"/><text fill="#000000" font-family="sans-serif" font-size="11" lengthAdjust="spacing" textLength="91.5396" x="227.519" y="245.9111">Peers connected?</text><text fill="#000000" font-family="sans-serif" font-size="11" lengthAdjust="spacing" textLength="17.4829" x="198.0361" y="239.4336">yes</text><text fill="#000000" font-family="sans-serif" font-size="11" lengthAdjust="spacing" textLength="13.5835" x="331.0586" y="239.4336">no</text><rect fill="#F1F1F1" height="34.1328" rx="12.5" ry="12.5" style="stroke:#181818;stroke-width:0.5;" width="123.9805" x="91.1421" y="263.7539"/><text fill="#000000" font-family="sans-serif" font-size="12" lengthAdjust="spacing" textLength="103.9805" x="101.1421" y="285.3555">Check MCP server</text><polygon fill="#F1F1F1" points="107.4082,317.8867,198.8564,317.8867,210.8564,329.8867,198.8564,341.8867,107.4082,341.8867,95.4082,329.8867,107.4082,317.8867" style="stroke:#181818;stroke-width:0.5;"/><text fill="#000000" font-family="sans-serif" font-size="11" lengthAdjust="spacing" textLength="91.4482" x="107.4082" y="334.0439">Tools registered?</text><text fill="#000000" font-family="sans-serif" font-size="11" lengthAdjust="spacing" textLength="17.4829" x="77.9253" y="327.5664">yes</text><text fill="#000000" font-family="sans-serif" font-size="11" lengthAdjust="spacing" textLength="13.5835" x="210.8564" y="327.5664">no</text><rect fill="#F1F1F1" height="34.1328" rx="12.5" ry="12.5" style="stroke:#181818;stroke-width:0.5;" width="113.3105" x="20.8408" y="351.8867"/><text fill="#000000" font-family="sans-serif" font-size="12" lengthAdjust="spacing" textLength="93.3105" x="30.8408" y="373.4883">Status HEALTHY</text><rect fill="#90EE90" height="34.1328" rx="12.5" ry="12.5" style="stroke:#181818;stroke-width:0.5;" width="132.9922" x="11" y="406.0195"/><text fill="#000000" font-family="sans-serif" font-size="12" lengthAdjust="spacing" textLength="112.9922" x="21" y="427.6211">System Operational</text><rect fill="#F1F1F1" height="34.1328" rx="12.5" ry="12.5" style="stroke:#181818;stroke-width:0.5;" width="123.9395" x="166.7988" y="351.8867"/><text fill="#000000" font-family="sans-serif" font-size="12" lengthAdjust="spacing" textLength="103.9395" x="176.7988" y="373.4883">Status DEGRADED</text><rect fill="#FFFFE0" height="34.1328" rx="12.5" ry="12.5" style="stroke:#181818;stroke-width:0.5;" width="129.5527" x="163.9922" y="406.0195"/><text fill="#000000" font-family="sans-serif" font-size="12" lengthAdjust="spacing" textLength="109.5527" x="173.9922" y="427.6211">Tools not available</text><polygon fill="#F1F1F1" points="153.1323,446.1523,165.1323,458.1523,153.1323,470.1523,141.1323,458.1523,153.1323,446.1523" style="stroke:#181818;stroke-width:0.5;"/><rect fill="#F1F1F1" height="34.1328" rx="12.5" ry="12.5" style="stroke:#181818;stroke-width:0.5;" width="116.4277" x="335.2314" y="263.7539"/><text fill="#000000" font-family="sans-serif" font-size="12" lengthAdjust="spacing" textLength="96.4277" x="345.2314" y="285.3555">Status ISOLATED</text><rect fill="#FFFFE0" height="34.1328" rx="12.5" ry="12.5" style="stroke:#181818;stroke-width:0.5;" width="139.8008" x="323.5449" y="317.8867"/><text fill="#000000" font-family="sans-serif" font-size="12" lengthAdjust="spacing" textLength="119.8008" x="333.5449" y="339.4883">No peer connections</text><polygon fill="#F1F1F1" points="273.2888,476.1523,285.2888,488.1523,273.2888,500.1523,261.2888,488.1523,273.2888,476.1523" style="stroke:#181818;stroke-width:0.5;"/><rect fill="#F1F1F1" height="34.1328" rx="12.5" ry="12.5" style="stroke:#181818;stroke-width:0.5;" width="130.4902" x="493.7529" y="175.6211"/><text fill="#000000" font-family="sans-serif" font-size="12" lengthAdjust="spacing" textLength="110.4902" x="503.7529" y="197.2227">Status UNHEALTHY</text><rect fill="#FFB6C1" height="34.1328" rx="12.5" ry="12.5" style="stroke:#181818;stroke-width:0.5;" width="131.3047" x="493.3457" y="229.7539"/><text fill="#000000" font-family="sans-serif" font-size="12" lengthAdjust="spacing" textLength="111.3047" x="503.3457" y="251.3555">API not responding</text><polygon fill="#F1F1F1" points="416.1434,506.1523,428.1434,518.1523,416.1434,530.1523,404.1434,518.1523,416.1434,506.1523" style="stroke:#181818;stroke-width:0.5;"/><ellipse cx="416.1434" cy="561.1523" fill="none" rx="11" ry="11" style="stroke:#222222;stroke-width:1;"/><ellipse cx="416.1434" cy="561.1523" fill="#222222" rx="6" ry="6" style="stroke:#222222;stroke-width:1;"/><line style="stroke:#181818;stroke-width:1;" x1="416.1434" x2="416.1434" y1="67.4883" y2="87.4883"/><polygon fill="#181818" points="412.1434,77.4883,416.1434,87.4883,420.1434,77.4883,416.1434,81.4883" style="stroke:#181818;stroke-width:1;"/><line style="stroke:#181818;stroke-width:1;" x1="77.4961" x2="77.4961" y1="386.0195" y2="406.0195"/><polygon fill="#181818" points="73.4961,396.0195,77.4961,406.0195,81.4961,396.0195,77.4961,400.0195" style="stroke:#181818;stroke-width:1;"/><line style="stroke:#181818;stroke-width:1;" x1="228.7686" x2="228.7686" y1="386.0195" y2="406.0195"/><polygon fill="#181818" points="224.7686,396.0195,228.7686,406.0195,232.7686,396.0195,228.7686,400.0195" style="stroke:#181818;stroke-width:1;"/><line style="stroke:#181818;stroke-width:1;" x1="95.4082" x2="77.4961" y1="329.8867" y2="329.8867"/><line style="stroke:#181818;stroke-width:1;" x1="77.4961" x2="77.4961" y1="329.8867" y2="351.8867"/><polygon fill="#181818" points="73.4961,341.8867,77.4961,351.8867,81.4961,341.8867,77.4961,345.8867" style="stroke:#181818;stroke-width:1;"/><line style="stroke:#181818;stroke-width:1;" x1="210.8564" x2="228.7686" y1="329.8867" y2="329.8867"/><line style="stroke:#181818;stroke-width:1;" x1="228.7686" x2="228.7686" y1="329.8867" y2="351.8867"/><polygon fill="#181818" points="224.7686,341.8867,228.7686,351.8867,232.7686,341.8867,228.7686,345.8867" style="stroke:#181818;stroke-width:1;"/><line style="stroke:#181818;stroke-width:1;" x1="77.4961" x2="77.4961" y1="440.1523" y2="458.1523"/><line style="stroke:#181818;stroke-width:1;" x1="77.4961" x2="141.1323" y1="458.1523" y2="458.1523"/><polygon fill="#181818" points="131.1323,454.1523,141.1323,458.1523,131.1323,462.1523,135.1323,458.1523" style="stroke:#181818;stroke-width:1;"/><line style="stroke:#181818;stroke-width:1;" x1="228.7686" x2="228.7686" y1="440.1523" y2="458.1523"/><line style="stroke:#181818;stroke-width:1;" x1="228.7686" x2="165.1323" y1="458.1523" y2="458.1523"/><polygon fill="#181818" points="175.1323,454.1523,165.1323,458.1523,175.1323,462.1523,171.1323,458.1523" style="stroke:#181818;stroke-width:1;"/><line style="stroke:#181818;stroke-width:1;" x1="153.1323" x2="153.1323" y1="297.8867" y2="317.8867"/><polygon fill="#181818" points="149.1323,307.8867,153.1323,317.8867,157.1323,307.8867,153.1323,311.8867" style="stroke:#181818;stroke-width:1;"/><line style="stroke:#181818;stroke-width:1;" x1="393.4453" x2="393.4453" y1="297.8867" y2="317.8867"/><polygon fill="#181818" points="389.4453,307.8867,393.4453,317.8867,397.4453,307.8867,393.4453,311.8867" style="stroke:#181818;stroke-width:1;"/><line style="stroke:#181818;stroke-width:1;" x1="215.519" x2="153.1323" y1="241.7539" y2="241.7539"/><line style="stroke:#181818;stroke-width:1;" x1="153.1323" x2="153.1323" y1="241.7539" y2="263.7539"/><polygon fill="#181818" points="149.1323,253.7539,153.1323,263.7539,157.1323,253.7539,153.1323,257.7539" style="stroke:#181818;stroke-width:1;"/><line style="stroke:#181818;stroke-width:1;" x1="331.0586" x2="393.4453" y1="241.7539" y2="241.7539"/><line style="stroke:#181818;stroke-width:1;" x1="393.4453" x2="393.4453" y1="241.7539" y2="263.7539"/><polygon fill="#181818" points="389.4453,253.7539,393.4453,263.7539,397.4453,253.7539,393.4453,257.7539" style="stroke:#181818;stroke-width:1;"/><line style="stroke:#181818;stroke-width:1;" x1="153.1323" x2="153.1323" y1="470.1523" y2="488.1523"/><line style="stroke:#181818;stroke-width:1;" x1="153.1323" x2="261.2888" y1="488.1523" y2="488.1523"/><polygon fill="#181818" points="251.2888,484.1523,261.2888,488.1523,251.2888,492.1523,255.2888,488.1523" style="stroke:#181818;stroke-width:1;"/><line style="stroke:#181818;stroke-width:1;" x1="393.4453" x2="393.4453" y1="352.0195" y2="488.1523"/><line style="stroke:#181818;stroke-width:1;" x1="393.4453" x2="285.2888" y1="488.1523" y2="488.1523"/><polygon fill="#181818" points="295.2888,484.1523,285.2888,488.1523,295.2888,492.1523,291.2888,488.1523" style="stroke:#181818;stroke-width:1;"/><line style="stroke:#181818;stroke-width:1;" x1="273.2888" x2="273.2888" y1="209.7539" y2="229.7539"/><polygon fill="#181818" points="269.2888,219.7539,273.2888,229.7539,277.2888,219.7539,273.2888,223.7539" style="stroke:#181818;stroke-width:1;"/><line style="stroke:#181818;stroke-width:1;" x1="558.998" x2="558.998" y1="209.7539" y2="229.7539"/><polygon fill="#181818" points="554.998,219.7539,558.998,229.7539,562.998,219.7539,558.998,223.7539" style="stroke:#181818;stroke-width:1;"/><line style="stroke:#181818;stroke-width:1;" x1="361.3976" x2="273.2888" y1="153.6211" y2="153.6211"/><line style="stroke:#181818;stroke-width:1;" x1="273.2888" x2="273.2888" y1="153.6211" y2="175.6211"/><polygon fill="#181818" points="269.2888,165.6211,273.2888,175.6211,277.2888,165.6211,273.2888,169.6211" style="stroke:#181818;stroke-width:1;"/><line style="stroke:#181818;stroke-width:1;" x1="470.8893" x2="558.998" y1="153.6211" y2="153.6211"/><line style="stroke:#181818;stroke-width:1;" x1="558.998" x2="558.998" y1="153.6211" y2="175.6211"/><polygon fill="#181818" points="554.998,165.6211,558.998,175.6211,562.998,165.6211,558.998,169.6211" style="stroke:#181818;stroke-width:1;"/><line style="stroke:#181818;stroke-width:1;" x1="273.2888" x2="273.2888" y1="500.1523" y2="518.1523"/><line style="stroke:#181818;stroke-width:1;" x1="273.2888" x2="404.1434" y1="518.1523" y2="518.1523"/><polygon fill="#181818" points="394.1434,514.1523,404.1434,518.1523,394.1434,522.1523,398.1434,518.1523" style="stroke:#181818;stroke-width:1;"/><line style="stroke:#181818;stroke-width:1;" x1="558.998" x2="558.998" y1="263.8867" y2="518.1523"/><line style="stroke:#181818;stroke-width:1;" x1="558.998" x2="428.1434" y1="518.1523" y2="518.1523"/><polygon fill="#181818" points="438.1434,514.1523,428.1434,518.1523,438.1434,522.1523,434.1434,518.1523" style="stroke:#181818;stroke-width:1;"/><line style="stroke:#181818;stroke-width:1;" x1="416.1434" x2="416.1434" y1="121.6211" y2="141.6211"/><polygon fill="#181818" points="412.1434,131.6211,416.1434,141.6211,420.1434,131.6211,416.1434,135.6211" style="stroke:#181818;stroke-width:1;"/><line style="stroke:#181818;stroke-width:1;" x1="416.1434" x2="416.1434" y1="530.1523" y2="550.1523"/><polygon fill="#181818" points="412.1434,540.1523,416.1434,550.1523,420.1434,540.1523,416.1434,544.1523" style="stroke:#181818;stroke-width:1;"/><!--SRC=[RP71JiCm38RlUGfBNBfRuO2qze1A6-YaiKMq73Y6pbiZGb8bPjBUddHjnrGjfyJE__ctJOeqGdNoX3zGejJKGjvYyysO9-c8iUJyXBAk1MHYbJArXoXSmA7lhDafStXQ0BLe83gXNp20KI8U13JM66n8MUFJaEcr0j7vAO6xkVWYVyi5U7H7TEavt6jhQxKFbGyg67Qtn45UaQHV3oNFrdNvcOxXksNC-J9Enbwt7JhP-v9w-87Q8qJ6pZ45VttF2bvSE2_Xy3WPh1XB88zIQVcbSGI5cUpP73ZXLjLsdTKJRe9jB7HXBFDn3QXhq8Jvs5or5oZFZ_bzqc-bD_I_cPGDYB1Csx4_]--></g></svg>
