<svg xmlns="http://www.w3.org/2000/svg" xmlns:xlink="http://www.w3.org/1999/xlink" contentStyleType="text/css" data-diagram-type="SEQUENCE" height="568px" preserveAspectRatio="none" style="width:573px;height:568px;background:#FFFFFF;" version="1.1" viewBox="0 0 573 568" width="573px" zoomAndPan="magnify"><title>Tool Discovery When Peers Join</title><defs/><g><text fill="#000000" font-family="sans-serif" font-size="14" font-weight="bold" lengthAdjust="spacing" textLength="228.6143" x="168.3538" y="28.5352">Tool Discovery When Peers Join</text><g><title>New Agent</title><rect fill="#000000" fill-opacity="0.00000" height="458.7266" width="8" x="117.7363" y="73.9766"/><line style="stroke:#181818;stroke-width:0.5;stroke-dasharray:5,5;" x1="121" x2="121" y1="73.9766" y2="532.7031"/></g><g><title>Network</title><rect fill="#000000" fill-opacity="0.00000" height="458.7266" width="8" x="278.5156" y="73.9766"/><line style="stroke:#181818;stroke-width:0.5;stroke-dasharray:5,5;" x1="282.1772" x2="282.1772" y1="73.9766" y2="532.7031"/></g><g><title>Agent 1</title><rect fill="#000000" fill-opacity="0.00000" height="458.7266" width="8" x="357.5518" y="73.9766"/><line style="stroke:#181818;stroke-width:0.5;stroke-dasharray:5,5;" x1="360.854" x2="360.854" y1="73.9766" y2="532.7031"/></g><g><title>Agent 2</title><rect fill="#000000" fill-opacity="0.00000" height="458.7266" width="8" x="434.9473" y="73.9766"/><line style="stroke:#181818;stroke-width:0.5;stroke-dasharray:5,5;" x1="438.2495" x2="438.2495" y1="73.9766" y2="532.7031"/></g><g class="participant participant-head" data-participant="New"><rect fill="#E2E2F0" height="30.4883" rx="2.5" ry="2.5" style="stroke:#181818;stroke-width:0.5;" width="87.4727" x="78" y="42.4883"/><text fill="#000000" font-family="sans-serif" font-size="14" lengthAdjust="spacing" textLength="73.4727" x="85" y="63.0234">New Agent</text></g><g class="participant participant-tail" data-participant="New"><rect fill="#E2E2F0" height="30.4883" rx="2.5" ry="2.5" style="stroke:#181818;stroke-width:0.5;" width="87.4727" x="78" y="531.7031"/><text fill="#000000" font-family="sans-serif" font-size="14" lengthAdjust="spacing" textLength="73.4727" x="85" y="552.2383">New Agent</text></g><g class="participant participant-head" data-participant="Net"><rect fill="#E2E2F0" height="30.4883" rx="2.5" ry="2.5" style="stroke:#181818;stroke-width:0.5;" width="70.6768" x="247.1772" y="42.4883"/><text fill="#000000" font-family="sans-serif" font-size="14" lengthAdjust="spacing" textLength="56.6768" x="254.1772" y="63.0234">Network</text></g><g class="participant participant-tail" data-participant="Net"><rect fill="#E2E2F0" height="30.4883" rx="2.5" ry="2.5" style="stroke:#181818;stroke-width:0.5;" width="70.6768" x="247.1772" y="531.7031"/><text fill="#000000" font-family="sans-serif" font-size="14" lengthAdjust="spacing" textLength="56.6768" x="254.1772" y="552.2383">Network</text></g><g class="participant participant-head" data-participant="A1"><rect fill="#E2E2F0" height="30.4883" rx="2.5" ry="2.5" style="stroke:#181818;stroke-width:0.5;" width="67.3955" x="327.854" y="42.4883"/><text fill="#000000" font-family="sans-serif" font-size="14" lengthAdjust="spacing" textLength="53.3955" x="334.854" y="63.0234">Agent 1</text></g><g class="participant participant-tail" data-participant="A1"><rect fill="#E2E2F0" height="30.4883" rx="2.5" ry="2.5" style="stroke:#181818;stroke-width:0.5;" width="67.3955" x="327.854" y="531.7031"/><text fill="#000000" font-family="sans-serif" font-size="14" lengthAdjust="spacing" textLength="53.3955" x="334.854" y="552.2383">Agent 1</text></g><g class="participant participant-head" data-participant="A2"><rect fill="#E2E2F0" height="30.4883" rx="2.5" ry="2.5" style="stroke:#181818;stroke-width:0.5;" width="67.3955" x="405.2495" y="42.4883"/><text fill="#000000" font-family="sans-serif" font-size="14" lengthAdjust="spacing" textLength="53.3955" x="412.2495" y="63.0234">Agent 2</text></g><g class="participant participant-tail" data-participant="A2"><rect fill="#E2E2F0" height="30.4883" rx="2.5" ry="2.5" style="stroke:#181818;stroke-width:0.5;" width="67.3955" x="405.2495" y="531.7031"/><text fill="#000000" font-family="sans-serif" font-size="14" lengthAdjust="spacing" textLength="53.3955" x="412.2495" y="552.2383">Agent 2</text></g><rect fill="#EEEEEE" height="3" style="stroke:#EEEEEE;stroke-width:1;" width="566.3218" x="0" y="104.6318"/><line style="stroke:#000000;stroke-width:1;" x1="0" x2="566.3218" y1="104.6318" y2="104.6318"/><line style="stroke:#000000;stroke-width:1;" x1="0" x2="566.3218" y1="107.6318" y2="107.6318"/><rect fill="#EEEEEE" height="23.3105" style="stroke:#000000;stroke-width:2;" width="129.1084" x="218.6067" y="93.9766"/><text fill="#000000" font-family="sans-serif" font-size="13" font-weight="bold" lengthAdjust="spacing" textLength="110.8237" x="224.6067" y="110.5449">New Agent Joins</text><g class="message" data-participant-1="New" data-participant-2="Net"><polygon fill="#181818" points="270.5156,144.5977,280.5156,148.5977,270.5156,152.5977,274.5156,148.5977" style="stroke:#181818;stroke-width:1;"/><line style="stroke:#181818;stroke-width:1;" x1="121.7363" x2="276.5156" y1="148.5977" y2="148.5977"/><text fill="#000000" font-family="sans-serif" font-size="13" lengthAdjust="spacing" textLength="136.7793" x="128.7363" y="143.8555">Start mDNS Discovery</text></g><g class="message" data-participant-1="New" data-participant-2="Net"><polygon fill="#181818" points="270.5156,173.9082,280.5156,177.9082,270.5156,181.9082,274.5156,177.9082" style="stroke:#181818;stroke-width:1;"/><line style="stroke:#181818;stroke-width:1;" x1="121.7363" x2="276.5156" y1="177.9082" y2="177.9082"/><text fill="#000000" font-family="sans-serif" font-size="13" lengthAdjust="spacing" textLength="109.5352" x="128.7363" y="173.166">Broadcast Service</text></g><g class="message" data-participant-1="A1" data-participant-2="New"><polygon fill="#181818" points="132.7363,203.2188,122.7363,207.2188,132.7363,211.2188,128.7363,207.2188" style="stroke:#181818;stroke-width:1;"/><line style="stroke:#181818;stroke-width:1;" x1="126.7363" x2="360.5518" y1="207.2188" y2="207.2188"/><text fill="#000000" font-family="sans-serif" font-size="13" lengthAdjust="spacing" textLength="51.8794" x="138.7363" y="202.4766">Connect</text></g><g class="message" data-participant-1="A2" data-participant-2="New"><polygon fill="#181818" points="132.7363,232.5293,122.7363,236.5293,132.7363,240.5293,128.7363,236.5293" style="stroke:#181818;stroke-width:1;"/><line style="stroke:#181818;stroke-width:1;" x1="126.7363" x2="437.9473" y1="236.5293" y2="236.5293"/><text fill="#000000" font-family="sans-serif" font-size="13" lengthAdjust="spacing" textLength="51.8794" x="138.7363" y="231.7871">Connect</text></g><rect fill="#EEEEEE" height="3" style="stroke:#EEEEEE;stroke-width:1;" width="566.3218" x="0" y="265.1846"/><line style="stroke:#000000;stroke-width:1;" x1="0" x2="566.3218" y1="265.1846" y2="265.1846"/><line style="stroke:#000000;stroke-width:1;" x1="0" x2="566.3218" y1="268.1846" y2="268.1846"/><rect fill="#EEEEEE" height="23.3105" style="stroke:#000000;stroke-width:2;" width="117.3145" x="224.5037" y="254.5293"/><text fill="#000000" font-family="sans-serif" font-size="13" font-weight="bold" lengthAdjust="spacing" textLength="99.0298" x="230.5037" y="271.0977">Card Exchange</text><g class="message" data-participant-1="New" data-participant-2="A1"><polygon fill="#181818" points="132.7363,308.1504,122.7363,312.1504,132.7363,316.1504,128.7363,312.1504" style="stroke:#181818;stroke-width:1;"/><polygon fill="#181818" points="349.5518,308.1504,359.5518,312.1504,349.5518,316.1504,353.5518,312.1504" style="stroke:#181818;stroke-width:1;"/><line style="stroke:#181818;stroke-width:1;" x1="126.7363" x2="355.5518" y1="312.1504" y2="312.1504"/><text fill="#000000" font-family="sans-serif" font-size="13" lengthAdjust="spacing" textLength="100.7563" x="138.7363" y="307.4082">Exchange Cards</text></g><path d="M5,292.8398 L5,317.8398 L117,317.8398 L117,302.8398 L107,292.8398 L5,292.8398" fill="#FEFFDD" style="stroke:#181818;stroke-width:0.5;"/><path d="M107,292.8398 L107,302.8398 L117,302.8398 L107,292.8398" fill="#FEFFDD" style="stroke:#181818;stroke-width:0.5;"/><text fill="#000000" font-family="sans-serif" font-size="13" lengthAdjust="spacing" textLength="91.3745" x="11" y="310.4082">Learn A1 tools</text><g class="message" data-participant-1="New" data-participant-2="A2"><polygon fill="#181818" points="132.7363,343.4609,122.7363,347.4609,132.7363,351.4609,128.7363,347.4609" style="stroke:#181818;stroke-width:1;"/><polygon fill="#181818" points="426.9473,343.4609,436.9473,347.4609,426.9473,351.4609,430.9473,347.4609" style="stroke:#181818;stroke-width:1;"/><line style="stroke:#181818;stroke-width:1;" x1="126.7363" x2="432.9473" y1="347.4609" y2="347.4609"/><text fill="#000000" font-family="sans-serif" font-size="13" lengthAdjust="spacing" textLength="100.7563" x="138.7363" y="342.7188">Exchange Cards</text></g><path d="M443,328.1504 L443,353.1504 L555,353.1504 L555,338.1504 L545,328.1504 L443,328.1504" fill="#FEFFDD" style="stroke:#181818;stroke-width:0.5;"/><path d="M545,328.1504 L545,338.1504 L555,338.1504 L545,328.1504" fill="#FEFFDD" style="stroke:#181818;stroke-width:0.5;"/><text fill="#000000" font-family="sans-serif" font-size="13" lengthAdjust="spacing" textLength="91.3745" x="449" y="345.7188">Learn A2 tools</text><rect fill="#EEEEEE" height="3" style="stroke:#EEEEEE;stroke-width:1;" width="566.3218" x="0" y="379.1162"/><line style="stroke:#000000;stroke-width:1;" x1="0" x2="566.3218" y1="379.1162" y2="379.1162"/><line style="stroke:#000000;stroke-width:1;" x1="0" x2="566.3218" y1="382.1162" y2="382.1162"/><rect fill="#EEEEEE" height="23.3105" style="stroke:#000000;stroke-width:2;" width="125.395" x="220.4634" y="368.4609"/><text fill="#000000" font-family="sans-serif" font-size="13" font-weight="bold" lengthAdjust="spacing" textLength="107.1104" x="226.4634" y="385.0293">Registry Update</text><g class="message" data-participant-1="New" data-participant-2="New"><line style="stroke:#181818;stroke-width:1;" x1="121.7363" x2="163.7363" y1="423.082" y2="423.082"/><line style="stroke:#181818;stroke-width:1;" x1="163.7363" x2="163.7363" y1="423.082" y2="436.082"/><line style="stroke:#181818;stroke-width:1;" x1="122.7363" x2="163.7363" y1="436.082" y2="436.082"/><polygon fill="#181818" points="132.7363,432.082,122.7363,436.082,132.7363,440.082,128.7363,436.082" style="stroke:#181818;stroke-width:1;"/><text fill="#000000" font-family="sans-serif" font-size="13" lengthAdjust="spacing" textLength="131.7583" x="128.7363" y="418.3398">Update Tool Registry</text></g><rect fill="#EEEEEE" height="3" style="stroke:#EEEEEE;stroke-width:1;" width="566.3218" x="0" y="464.7373"/><line style="stroke:#000000;stroke-width:1;" x1="0" x2="566.3218" y1="464.7373" y2="464.7373"/><line style="stroke:#000000;stroke-width:1;" x1="0" x2="566.3218" y1="467.7373" y2="467.7373"/><rect fill="#EEEEEE" height="23.3105" style="stroke:#000000;stroke-width:2;" width="153.6992" x="206.3113" y="454.082"/><text fill="#000000" font-family="sans-serif" font-size="13" font-weight="bold" lengthAdjust="spacing" textLength="135.4146" x="212.3113" y="470.6504">Ready for Operation</text><path d="M42,492.3926 L42,517.3926 L200,517.3926 L200,502.3926 L190,492.3926 L42,492.3926" fill="#FEFFDD" style="stroke:#181818;stroke-width:0.5;"/><path d="M190,492.3926 L190,502.3926 L200,502.3926 L190,492.3926" fill="#FEFFDD" style="stroke:#181818;stroke-width:0.5;"/><text fill="#000000" font-family="sans-serif" font-size="13" lengthAdjust="spacing" textLength="137.249" x="48" y="509.9609">Can use any peer tool</text><!--SRC=[RL5DJyCm3BtdLrYxSsYF4qKg6vS93KH1dAtKQoEAKoLcfV-U96kf2ZlcVUGzssAa8tYrjeEzyTgUoOtmtXB3Cv7pSB26bUhHYT6cHnRO76c0iY6M3Q27yFfBos3TnqJAcam-o19PPjUu_CBbIXK5_4Qb7XwAGaNevYx-l8LAWXy-zyTgARyIt3kBjKOlK94x6qsgp2xai8MTPIOjgip_GJ5xXww6Xs_T8ZSq9zy6PPbj5pogl68h11sTGkGZeUEW0GaxzMfnvTTTpZJjOijdMoZmGetn4ixnrjSej1e-T9tGTBfPElcm7k5a7Jprv52CvUXDQN55qwZ8yEK9a4VemwbJiFe1]--></g></svg>