<svg xmlns="http://www.w3.org/2000/svg" xmlns:xlink="http://www.w3.org/1999/xlink" contentStyleType="text/css" data-diagram-type="ACTIVITY" height="785px" preserveAspectRatio="none" style="width:839px;height:785px;background:#FFFFFF;" version="1.1" viewBox="0 0 839 785" width="839px" zoomAndPan="magnify"><title>Tool Execution Decision Tree</title><defs/><g><g class="title" data-source-line="1"><text fill="#000000" font-family="sans-serif" font-size="14" font-weight="bold" lengthAdjust="spacing" textLength="210.1709" x="313.1011" y="33.5352">Tool Execution Decision Tree</text></g><ellipse cx="315.5652" cy="57.4883" fill="#222222" rx="10" ry="10" style="stroke:#222222;stroke-width:1;"/><rect fill="#F1F1F1" height="34.1328" rx="12.5" ry="12.5" style="stroke:#181818;stroke-width:0.5;" width="143.4277" x="243.8513" y="87.4883"/><text fill="#000000" font-family="sans-serif" font-size="12" lengthAdjust="spacing" textLength="123.4277" x="253.8513" y="109.0898">Receive Tool Request</text><polygon fill="#F1F1F1" points="260.1731,141.6211,370.9573,141.6211,382.9573,153.6211,370.9573,165.6211,260.1731,165.6211,248.1731,153.6211,260.1731,141.6211" style="stroke:#181818;stroke-width:0.5;"/><text fill="#000000" font-family="sans-serif" font-size="11" lengthAdjust="spacing" textLength="110.7842" x="260.1731" y="157.7783">Local Tool Available?</text><text fill="#000000" font-family="sans-serif" font-size="11" lengthAdjust="spacing" textLength="18.5894" x="229.5837" y="151.3008">Yes</text><text fill="#000000" font-family="sans-serif" font-size="11" lengthAdjust="spacing" textLength="14.8833" x="382.9573" y="151.3008">No</text><rect fill="#F1F1F1" height="34.1328" rx="12.5" ry="12.5" style="stroke:#181818;stroke-width:0.5;" width="145.1563" x="11" y="175.6211"/><text fill="#000000" font-family="sans-serif" font-size="12" lengthAdjust="spacing" textLength="125.1563" x="21" y="197.2227">Get local tool handler</text><rect fill="#F1F1F1" height="34.1328" rx="12.5" ry="12.5" style="stroke:#181818;stroke-width:0.5;" width="139.748" x="13.7041" y="229.7539"/><text fill="#000000" font-family="sans-serif" font-size="12" lengthAdjust="spacing" textLength="119.748" x="23.7041" y="251.3555">Execute tool handler</text><rect fill="#F1F1F1" height="34.1328" rx="12.5" ry="12.5" style="stroke:#181818;stroke-width:0.5;" width="95.4805" x="35.8379" y="298.8867"/><text fill="#000000" font-family="sans-serif" font-size="12" lengthAdjust="spacing" textLength="75.4805" x="45.8379" y="320.4883">Return result</text><rect fill="#F1F1F1" height="34.1328" rx="12.5" ry="12.5" style="stroke:#181818;stroke-width:0.5;" width="136.0391" x="509.5327" y="175.6211"/><text fill="#000000" font-family="sans-serif" font-size="12" lengthAdjust="spacing" textLength="116.0391" x="519.5327" y="197.2227">Search peer registry</text><polygon fill="#F1F1F1" points="519.8533,229.7539,635.2512,229.7539,647.2512,241.7539,635.2512,253.7539,519.8533,253.7539,507.8533,241.7539,519.8533,229.7539" style="stroke:#181818;stroke-width:0.5;"/><text fill="#000000" font-family="sans-serif" font-size="11" lengthAdjust="spacing" textLength="115.3979" x="519.8533" y="245.9111">Found peer with tool?</text><text fill="#000000" font-family="sans-serif" font-size="11" lengthAdjust="spacing" textLength="18.5894" x="489.2639" y="239.4336">Yes</text><text fill="#000000" font-family="sans-serif" font-size="11" lengthAdjust="spacing" textLength="14.8833" x="647.2512" y="239.4336">No</text><rect fill="#F1F1F1" height="34.1328" rx="12.5" ry="12.5" style="stroke:#181818;stroke-width:0.5;" width="137.293" x="302.7314" y="263.7539"/><text fill="#000000" font-family="sans-serif" font-size="12" lengthAdjust="spacing" textLength="117.293" x="312.7314" y="285.3555">Get peer connection</text><polygon fill="#F1F1F1" points="328.4119,332.8867,414.344,332.8867,426.344,344.8867,414.344,356.8867,328.4119,356.8867,316.4119,344.8867,328.4119,332.8867" style="stroke:#181818;stroke-width:0.5;"/><text fill="#000000" font-family="sans-serif" font-size="11" lengthAdjust="spacing" textLength="85.9321" x="328.4119" y="349.0439">Peer connected?</text><text fill="#000000" font-family="sans-serif" font-size="11" lengthAdjust="spacing" textLength="18.5894" x="297.8225" y="342.5664">Yes</text><text fill="#000000" font-family="sans-serif" font-size="11" lengthAdjust="spacing" textLength="14.8833" x="426.344" y="342.5664">No</text><rect fill="#F1F1F1" height="34.1328" rx="12.5" ry="12.5" style="stroke:#181818;stroke-width:0.5;" width="146.9785" x="166.1563" y="366.8867"/><text fill="#000000" font-family="sans-serif" font-size="12" lengthAdjust="spacing" textLength="126.9785" x="176.1563" y="388.4883">Send P2P tool request</text><rect fill="#F1F1F1" height="34.1328" rx="12.5" ry="12.5" style="stroke:#181818;stroke-width:0.5;" width="122.0234" x="178.6338" y="421.0195"/><text fill="#000000" font-family="sans-serif" font-size="12" lengthAdjust="spacing" textLength="102.0234" x="188.6338" y="442.6211">Wait for response</text><rect fill="#F1F1F1" height="34.1328" rx="12.5" ry="12.5" style="stroke:#181818;stroke-width:0.5;" width="140.6211" x="169.335" y="490.1523"/><text fill="#000000" font-family="sans-serif" font-size="12" lengthAdjust="spacing" textLength="120.6211" x="179.335" y="511.7539">Return remote result</text><rect fill="#F1F1F1" height="34.1328" rx="12.5" ry="12.5" style="stroke:#181818;stroke-width:0.5;" width="135.002" x="435.6094" y="366.8867"/><text fill="#000000" font-family="sans-serif" font-size="12" lengthAdjust="spacing" textLength="115.002" x="445.6094" y="388.4883">Attempt connection</text><polygon fill="#F1F1F1" points="441.1709,421.0195,565.0498,421.0195,577.0498,433.0195,565.0498,445.0195,441.1709,445.0195,429.1709,433.0195,441.1709,421.0195" style="stroke:#181818;stroke-width:0.5;"/><text fill="#000000" font-family="sans-serif" font-size="11" lengthAdjust="spacing" textLength="123.8789" x="441.1709" y="437.1768">Connection successful?</text><text fill="#000000" font-family="sans-serif" font-size="11" lengthAdjust="spacing" textLength="18.5894" x="410.5815" y="430.6992">Yes</text><text fill="#000000" font-family="sans-serif" font-size="11" lengthAdjust="spacing" textLength="14.8833" x="577.0498" y="430.6992">No</text><rect fill="#F1F1F1" height="34.1328" rx="12.5" ry="12.5" style="stroke:#181818;stroke-width:0.5;" width="138.793" x="347.2275" y="455.0195"/><text fill="#000000" font-family="sans-serif" font-size="12" lengthAdjust="spacing" textLength="118.793" x="357.2275" y="476.6211">Exchange A2A cards</text><rect fill="#F1F1F1" height="34.1328" rx="12.5" ry="12.5" style="stroke:#181818;stroke-width:0.5;" width="146.9785" x="343.1348" y="524.1523"/><text fill="#000000" font-family="sans-serif" font-size="12" lengthAdjust="spacing" textLength="126.9785" x="353.1348" y="545.7539">Send P2P tool request</text><rect fill="#F1F1F1" height="34.1328" rx="12.5" ry="12.5" style="stroke:#181818;stroke-width:0.5;" width="140.6211" x="346.3135" y="578.2852"/><text fill="#000000" font-family="sans-serif" font-size="12" lengthAdjust="spacing" textLength="120.6211" x="356.3135" y="599.8867">Return remote result</text><rect fill="#F1F1F1" height="34.1328" rx="12.5" ry="12.5" style="stroke:#181818;stroke-width:0.5;" width="158.9668" x="510.1133" y="455.0195"/><text fill="#000000" font-family="sans-serif" font-size="12" lengthAdjust="spacing" textLength="138.9668" x="520.1133" y="476.6211">Return connection error</text><polygon fill="#F1F1F1" points="503.1104,618.418,515.1104,630.418,503.1104,642.418,491.1104,630.418,503.1104,618.418" style="stroke:#181818;stroke-width:0.5;"/><polygon fill="#F1F1F1" points="371.3779,648.418,383.3779,660.418,371.3779,672.418,359.3779,660.418,371.3779,648.418" style="stroke:#181818;stroke-width:0.5;"/><rect fill="#F1F1F1" height="34.1328" rx="12.5" ry="12.5" style="stroke:#181818;stroke-width:0.5;" width="149.293" x="679.0801" y="263.7539"/><text fill="#000000" font-family="sans-serif" font-size="12" lengthAdjust="spacing" textLength="129.293" x="689.0801" y="285.3555">Return Tool not found</text><polygon fill="#F1F1F1" points="577.5522,678.418,589.5522,690.418,577.5522,702.418,565.5522,690.418,577.5522,678.418" style="stroke:#181818;stroke-width:0.5;"/><polygon fill="#F1F1F1" points="315.5652,708.418,327.5652,720.418,315.5652,732.418,303.5652,720.418,315.5652,708.418" style="stroke:#181818;stroke-width:0.5;"/><ellipse cx="315.5652" cy="763.418" fill="none" rx="11" ry="11" style="stroke:#222222;stroke-width:1;"/><ellipse cx="315.5652" cy="763.418" fill="#222222" rx="6" ry="6" style="stroke:#222222;stroke-width:1;"/><line style="stroke:#181818;stroke-width:1;" x1="315.5652" x2="315.5652" y1="67.4883" y2="87.4883"/><polygon fill="#181818" points="311.5652,77.4883,315.5652,87.4883,319.5652,77.4883,315.5652,81.4883" style="stroke:#181818;stroke-width:1;"/><line style="stroke:#181818;stroke-width:1;" x1="83.5781" x2="83.5781" y1="209.7539" y2="229.7539"/><polygon fill="#181818" points="79.5781,219.7539,83.5781,229.7539,87.5781,219.7539,83.5781,223.7539" style="stroke:#181818;stroke-width:1;"/><line style="stroke:#181818;stroke-width:1;" x1="83.5781" x2="83.5781" y1="263.8867" y2="298.8867"/><polygon fill="#181818" points="79.5781,288.8867,83.5781,298.8867,87.5781,288.8867,83.5781,292.8867" style="stroke:#181818;stroke-width:1;"/><line style="stroke:#181818;stroke-width:1;" x1="239.6455" x2="239.6455" y1="401.0195" y2="421.0195"/><polygon fill="#181818" points="235.6455,411.0195,239.6455,421.0195,243.6455,411.0195,239.6455,415.0195" style="stroke:#181818;stroke-width:1;"/><line style="stroke:#181818;stroke-width:1;" x1="239.6455" x2="239.6455" y1="455.1523" y2="490.1523"/><polygon fill="#181818" points="235.6455,480.1523,239.6455,490.1523,243.6455,480.1523,239.6455,484.1523" style="stroke:#181818;stroke-width:1;"/><line style="stroke:#181818;stroke-width:1;" x1="416.624" x2="416.624" y1="489.1523" y2="524.1523"/><polygon fill="#181818" points="412.624,514.1523,416.624,524.1523,420.624,514.1523,416.624,518.1523" style="stroke:#181818;stroke-width:1;"/><line style="stroke:#181818;stroke-width:1;" x1="416.624" x2="416.624" y1="558.2852" y2="578.2852"/><polygon fill="#181818" points="412.624,568.2852,416.624,578.2852,420.624,568.2852,416.624,572.2852" style="stroke:#181818;stroke-width:1;"/><line style="stroke:#181818;stroke-width:1;" x1="429.1709" x2="416.624" y1="433.0195" y2="433.0195"/><line style="stroke:#181818;stroke-width:1;" x1="416.624" x2="416.624" y1="433.0195" y2="455.0195"/><polygon fill="#181818" points="412.624,445.0195,416.624,455.0195,420.624,445.0195,416.624,449.0195" style="stroke:#181818;stroke-width:1;"/><line style="stroke:#181818;stroke-width:1;" x1="577.0498" x2="589.5967" y1="433.0195" y2="433.0195"/><line style="stroke:#181818;stroke-width:1;" x1="589.5967" x2="589.5967" y1="433.0195" y2="455.0195"/><polygon fill="#181818" points="585.5967,445.0195,589.5967,455.0195,593.5967,445.0195,589.5967,449.0195" style="stroke:#181818;stroke-width:1;"/><line style="stroke:#181818;stroke-width:1;" x1="416.624" x2="416.624" y1="612.418" y2="630.418"/><line style="stroke:#181818;stroke-width:1;" x1="416.624" x2="491.1104" y1="630.418" y2="630.418"/><polygon fill="#181818" points="481.1104,626.418,491.1104,630.418,481.1104,634.418,485.1104,630.418" style="stroke:#181818;stroke-width:1;"/><line style="stroke:#181818;stroke-width:1;" x1="589.5967" x2="589.5967" y1="489.1523" y2="630.418"/><line style="stroke:#181818;stroke-width:1;" x1="589.5967" x2="515.1104" y1="630.418" y2="630.418"/><polygon fill="#181818" points="525.1104,626.418,515.1104,630.418,525.1104,634.418,521.1104,630.418" style="stroke:#181818;stroke-width:1;"/><line style="stroke:#181818;stroke-width:1;" x1="503.1104" x2="503.1104" y1="401.0195" y2="421.0195"/><polygon fill="#181818" points="499.1104,411.0195,503.1104,421.0195,507.1104,411.0195,503.1104,415.0195" style="stroke:#181818;stroke-width:1;"/><line style="stroke:#181818;stroke-width:1;" x1="316.4119" x2="239.6455" y1="344.8867" y2="344.8867"/><line style="stroke:#181818;stroke-width:1;" x1="239.6455" x2="239.6455" y1="344.8867" y2="366.8867"/><polygon fill="#181818" points="235.6455,356.8867,239.6455,366.8867,243.6455,356.8867,239.6455,360.8867" style="stroke:#181818;stroke-width:1;"/><line style="stroke:#181818;stroke-width:1;" x1="426.344" x2="503.1104" y1="344.8867" y2="344.8867"/><line style="stroke:#181818;stroke-width:1;" x1="503.1104" x2="503.1104" y1="344.8867" y2="366.8867"/><polygon fill="#181818" points="499.1104,356.8867,503.1104,366.8867,507.1104,356.8867,503.1104,360.8867" style="stroke:#181818;stroke-width:1;"/><line style="stroke:#181818;stroke-width:1;" x1="239.6455" x2="239.6455" y1="524.2852" y2="660.418"/><line style="stroke:#181818;stroke-width:1;" x1="239.6455" x2="359.3779" y1="660.418" y2="660.418"/><polygon fill="#181818" points="349.3779,656.418,359.3779,660.418,349.3779,664.418,353.3779,660.418" style="stroke:#181818;stroke-width:1;"/><line style="stroke:#181818;stroke-width:1;" x1="503.1104" x2="503.1104" y1="642.418" y2="660.418"/><line style="stroke:#181818;stroke-width:1;" x1="503.1104" x2="383.3779" y1="660.418" y2="660.418"/><polygon fill="#181818" points="393.3779,656.418,383.3779,660.418,393.3779,664.418,389.3779,660.418" style="stroke:#181818;stroke-width:1;"/><line style="stroke:#181818;stroke-width:1;" x1="371.3779" x2="371.3779" y1="297.8867" y2="332.8867"/><polygon fill="#181818" points="367.3779,322.8867,371.3779,332.8867,375.3779,322.8867,371.3779,326.8867" style="stroke:#181818;stroke-width:1;"/><line style="stroke:#181818;stroke-width:1;" x1="507.8533" x2="371.3779" y1="241.7539" y2="241.7539"/><line style="stroke:#181818;stroke-width:1;" x1="371.3779" x2="371.3779" y1="241.7539" y2="263.7539"/><polygon fill="#181818" points="367.3779,253.7539,371.3779,263.7539,375.3779,253.7539,371.3779,257.7539" style="stroke:#181818;stroke-width:1;"/><line style="stroke:#181818;stroke-width:1;" x1="647.2512" x2="753.7266" y1="241.7539" y2="241.7539"/><line style="stroke:#181818;stroke-width:1;" x1="753.7266" x2="753.7266" y1="241.7539" y2="263.7539"/><polygon fill="#181818" points="749.7266,253.7539,753.7266,263.7539,757.7266,253.7539,753.7266,257.7539" style="stroke:#181818;stroke-width:1;"/><line style="stroke:#181818;stroke-width:1;" x1="371.3779" x2="371.3779" y1="672.418" y2="690.418"/><line style="stroke:#181818;stroke-width:1;" x1="371.3779" x2="565.5522" y1="690.418" y2="690.418"/><polygon fill="#181818" points="555.5522,686.418,565.5522,690.418,555.5522,694.418,559.5522,690.418" style="stroke:#181818;stroke-width:1;"/><line style="stroke:#181818;stroke-width:1;" x1="753.7266" x2="753.7266" y1="297.8867" y2="690.418"/><line style="stroke:#181818;stroke-width:1;" x1="753.7266" x2="589.5522" y1="690.418" y2="690.418"/><polygon fill="#181818" points="599.5522,686.418,589.5522,690.418,599.5522,694.418,595.5522,690.418" style="stroke:#181818;stroke-width:1;"/><line style="stroke:#181818;stroke-width:1;" x1="577.5522" x2="577.5522" y1="209.7539" y2="229.7539"/><polygon fill="#181818" points="573.5522,219.7539,577.5522,229.7539,581.5522,219.7539,577.5522,223.7539" style="stroke:#181818;stroke-width:1;"/><line style="stroke:#181818;stroke-width:1;" x1="248.1731" x2="83.5781" y1="153.6211" y2="153.6211"/><line style="stroke:#181818;stroke-width:1;" x1="83.5781" x2="83.5781" y1="153.6211" y2="175.6211"/><polygon fill="#181818" points="79.5781,165.6211,83.5781,175.6211,87.5781,165.6211,83.5781,169.6211" style="stroke:#181818;stroke-width:1;"/><line style="stroke:#181818;stroke-width:1;" x1="382.9573" x2="577.5522" y1="153.6211" y2="153.6211"/><line style="stroke:#181818;stroke-width:1;" x1="577.5522" x2="577.5522" y1="153.6211" y2="175.6211"/><polygon fill="#181818" points="573.5522,165.6211,577.5522,175.6211,581.5522,165.6211,577.5522,169.6211" style="stroke:#181818;stroke-width:1;"/><line style="stroke:#181818;stroke-width:1;" x1="83.5781" x2="83.5781" y1="333.0195" y2="720.418"/><line style="stroke:#181818;stroke-width:1;" x1="83.5781" x2="303.5652" y1="720.418" y2="720.418"/><polygon fill="#181818" points="293.5652,716.418,303.5652,720.418,293.5652,724.418,297.5652,720.418" style="stroke:#181818;stroke-width:1;"/><line style="stroke:#181818;stroke-width:1;" x1="577.5522" x2="577.5522" y1="702.418" y2="720.418"/><line style="stroke:#181818;stroke-width:1;" x1="577.5522" x2="327.5652" y1="720.418" y2="720.418"/><polygon fill="#181818" points="337.5652,716.418,327.5652,720.418,337.5652,724.418,333.5652,720.418" style="stroke:#181818;stroke-width:1;"/><line style="stroke:#181818;stroke-width:1;" x1="315.5652" x2="315.5652" y1="121.6211" y2="141.6211"/><polygon fill="#181818" points="311.5652,131.6211,315.5652,141.6211,319.5652,131.6211,315.5652,135.6211" style="stroke:#181818;stroke-width:1;"/><line style="stroke:#181818;stroke-width:1;" x1="315.5652" x2="315.5652" y1="732.418" y2="752.418"/><polygon fill="#181818" points="311.5652,742.418,315.5652,752.418,319.5652,742.418,315.5652,746.418" style="stroke:#181818;stroke-width:1;"/><!--SRC=[VPBDJiCm48JlVeezjjSUcmEA-BiW59LAYADn9eqbrmxski3ROpjjMWZg9R8oixlVhCsQ3MZhdA7xBwZ8sbcwWz8X7xOU42Amz2p4UWC5VJYwD_Y825m9eJjQF3abpIZK1wcDV3UuMHBtiBHuGrWAelKZc4mnSZRsqhO6lihIE1jpOGEEtf97Y2ODWmcWnRCh_LuWlUff07mox7HW_vsBCj23YxOTfK_DVMdy5-Y8L4pAMGkLqrT5oJsQ2m7jlBeWf2dDgXd1_MadH_LLQgREPRemE1imALEilKkfJ-coT9cmM6jcx0UU4OwCjzDV2b4fXD15ynzgMR9Agzs1wbLDIlesL6VnQfAhn7Fci_qCJV3U-Qd2jheJbwVVFKxrvKLPbxUOxZDNZ_xncrwc6yGF]--></g></svg>
