<svg xmlns="http://www.w3.org/2000/svg" xmlns:xlink="http://www.w3.org/1999/xlink" contentStyleType="text/css" data-diagram-type="ACTIVITY" height="543px" preserveAspectRatio="none" style="width:411px;height:543px;background:#FFFFFF;" version="1.1" viewBox="0 0 411 543" width="411px" zoomAndPan="magnify"><defs/><g><ellipse cx="178.9724" cy="15" fill="#FFFFFF" rx="10" ry="10" style="stroke:#000000;stroke-width:1;"/><rect fill="#FFFFFF" height="34.584" rx="12.5" ry="12.5" style="stroke:#000000;stroke-width:1;" width="148.8184" x="104.5632" y="45"/><text fill="#000000" font-family="Verdana" font-size="12" lengthAdjust="spacing" textLength="128.8184" x="114.5632" y="67.0645">Receive Tool Request</text><polygon fill="#FFFFFF" points="148.3867,99.584,209.5581,99.584,221.5581,111.584,209.5581,123.584,148.3867,123.584,136.3867,111.584,148.3867,99.584" style="stroke:#000000;stroke-width:1;"/><text fill="#000000" font-family="Verdana" font-size="11" lengthAdjust="spacing" textLength="61.1714" x="148.3867" y="115.9587">Local Tool?</text><text fill="#000000" font-family="Verdana" font-size="11" lengthAdjust="spacing" textLength="18.7935" x="117.5933" y="109.2744">yes</text><text fill="#000000" font-family="Verdana" font-size="11" lengthAdjust="spacing" textLength="13.6372" x="221.5581" y="109.2744">no</text><rect fill="#FFFFFF" height="34.584" rx="12.5" ry="12.5" style="stroke:#000000;stroke-width:1;" width="121.7305" x="6" y="133.584"/><text fill="#000000" font-family="Verdana" font-size="12" lengthAdjust="spacing" textLength="101.7305" x="16" y="155.6484">Get Tool Handler</text><rect fill="#FFFFFF" height="34.584" rx="12.5" ry="12.5" style="stroke:#000000;stroke-width:1;" width="118.6367" x="7.5469" y="188.168"/><text fill="#000000" font-family="Verdana" font-size="12" lengthAdjust="spacing" textLength="98.6367" x="17.5469" y="210.2324">Execute Handler</text><rect fill="#FFFFFF" height="34.584" rx="12.5" ry="12.5" style="stroke:#000000;stroke-width:1;" width="102.1074" x="15.8115" y="257.752"/><text fill="#000000" font-family="Verdana" font-size="12" lengthAdjust="spacing" textLength="82.1074" x="25.8115" y="279.8164">Return Result</text><rect fill="#FFFFFF" height="34.584" rx="12.5" ry="12.5" style="stroke:#000000;stroke-width:1;" width="135.2598" x="223.4497" y="133.584"/><text fill="#000000" font-family="Verdana" font-size="12" lengthAdjust="spacing" textLength="115.2598" x="233.4497" y="155.6484">Find Peer with Tool</text><polygon fill="#FFFFFF" points="257.043,188.168,325.1162,188.168,337.1162,200.168,325.1162,212.168,257.043,212.168,245.043,200.168,257.043,188.168" style="stroke:#000000;stroke-width:1;"/><text fill="#000000" font-family="Verdana" font-size="11" lengthAdjust="spacing" textLength="68.0732" x="257.043" y="204.5427">Peer Found?</text><text fill="#000000" font-family="Verdana" font-size="11" lengthAdjust="spacing" textLength="18.7935" x="226.2495" y="197.8584">yes</text><text fill="#000000" font-family="Verdana" font-size="11" lengthAdjust="spacing" textLength="13.6372" x="337.1162" y="197.8584">no</text><rect fill="#FFFFFF" height="34.584" rx="12.5" ry="12.5" style="stroke:#000000;stroke-width:1;" width="126.2832" x="160.9912" y="222.168"/><text fill="#000000" font-family="Verdana" font-size="12" lengthAdjust="spacing" textLength="106.2832" x="170.9912" y="244.2324">Open P2P Stream</text><rect fill="#FFFFFF" height="34.584" rx="12.5" ry="12.5" style="stroke:#000000;stroke-width:1;" width="132.8047" x="157.7305" y="291.752"/><text fill="#000000" font-family="Verdana" font-size="12" lengthAdjust="spacing" textLength="112.8047" x="167.7305" y="313.8164">Send Tool Request</text><rect fill="#FFFFFF" height="34.584" rx="12.5" ry="12.5" style="stroke:#000000;stroke-width:1;" width="128.1523" x="160.0566" y="346.3359"/><text fill="#000000" font-family="Verdana" font-size="12" lengthAdjust="spacing" textLength="108.1523" x="170.0566" y="368.4004">Receive Response</text><rect fill="#FFFFFF" height="34.584" rx="12.5" ry="12.5" style="stroke:#000000;stroke-width:1;" width="102.1074" x="173.0791" y="400.9199"/><text fill="#000000" font-family="Verdana" font-size="12" lengthAdjust="spacing" textLength="82.1074" x="183.0791" y="422.9844">Return Result</text><rect fill="#FFFFFF" height="34.584" rx="12.5" ry="12.5" style="stroke:#000000;stroke-width:1;" width="94.9824" x="310.5352" y="222.168"/><text fill="#000000" font-family="Verdana" font-size="12" lengthAdjust="spacing" textLength="74.9824" x="320.5352" y="244.2324">Return Error</text><polygon fill="#FFFFFF" points="291.0796,441.5039,303.0796,453.5039,291.0796,465.5039,279.0796,453.5039,291.0796,441.5039" style="stroke:#000000;stroke-width:1;"/><polygon fill="#FFFFFF" points="178.9724,471.5039,190.9724,483.5039,178.9724,495.5039,166.9724,483.5039,178.9724,471.5039" style="stroke:#000000;stroke-width:1;"/><ellipse cx="178.9724" cy="526.5039" fill="none" rx="11" ry="11" style="stroke:#000000;stroke-width:1;"/><ellipse cx="178.9724" cy="526.5039" fill="#FFFFFF" rx="6" ry="6" style="stroke:#000000;stroke-width:1;"/><line style="stroke:#000000;stroke-width:1;" x1="178.9724" x2="178.9724" y1="25" y2="45"/><polygon fill="#000000" points="174.9724,35,178.9724,45,182.9724,35,178.9724,39" style="stroke:#000000;stroke-width:1;"/><line style="stroke:#000000;stroke-width:1;" x1="66.8652" x2="66.8652" y1="168.168" y2="188.168"/><polygon fill="#000000" points="62.8652,178.168,66.8652,188.168,70.8652,178.168,66.8652,182.168" style="stroke:#000000;stroke-width:1;"/><line style="stroke:#000000;stroke-width:1;" x1="66.8652" x2="66.8652" y1="222.752" y2="257.752"/><polygon fill="#000000" points="62.8652,247.752,66.8652,257.752,70.8652,247.752,66.8652,251.752" style="stroke:#000000;stroke-width:1;"/><line style="stroke:#000000;stroke-width:1;" x1="224.1328" x2="224.1328" y1="256.752" y2="291.752"/><polygon fill="#000000" points="220.1328,281.752,224.1328,291.752,228.1328,281.752,224.1328,285.752" style="stroke:#000000;stroke-width:1;"/><line style="stroke:#000000;stroke-width:1;" x1="224.1328" x2="224.1328" y1="326.3359" y2="346.3359"/><polygon fill="#000000" points="220.1328,336.3359,224.1328,346.3359,228.1328,336.3359,224.1328,340.3359" style="stroke:#000000;stroke-width:1;"/><line style="stroke:#000000;stroke-width:1;" x1="224.1328" x2="224.1328" y1="380.9199" y2="400.9199"/><polygon fill="#000000" points="220.1328,390.9199,224.1328,400.9199,228.1328,390.9199,224.1328,394.9199" style="stroke:#000000;stroke-width:1;"/><line style="stroke:#000000;stroke-width:1;" x1="245.043" x2="224.1328" y1="200.168" y2="200.168"/><line style="stroke:#000000;stroke-width:1;" x1="224.1328" x2="224.1328" y1="200.168" y2="222.168"/><polygon fill="#000000" points="220.1328,212.168,224.1328,222.168,228.1328,212.168,224.1328,216.168" style="stroke:#000000;stroke-width:1;"/><line style="stroke:#000000;stroke-width:1;" x1="337.1162" x2="358.0264" y1="200.168" y2="200.168"/><line style="stroke:#000000;stroke-width:1;" x1="358.0264" x2="358.0264" y1="200.168" y2="222.168"/><polygon fill="#000000" points="354.0264,212.168,358.0264,222.168,362.0264,212.168,358.0264,216.168" style="stroke:#000000;stroke-width:1;"/><line style="stroke:#000000;stroke-width:1;" x1="224.1328" x2="224.1328" y1="435.5039" y2="453.5039"/><line style="stroke:#000000;stroke-width:1;" x1="224.1328" x2="279.0796" y1="453.5039" y2="453.5039"/><polygon fill="#000000" points="269.0796,449.5039,279.0796,453.5039,269.0796,457.5039,273.0796,453.5039" style="stroke:#000000;stroke-width:1;"/><line style="stroke:#000000;stroke-width:1;" x1="358.0264" x2="358.0264" y1="256.752" y2="453.5039"/><line style="stroke:#000000;stroke-width:1;" x1="358.0264" x2="303.0796" y1="453.5039" y2="453.5039"/><polygon fill="#000000" points="313.0796,449.5039,303.0796,453.5039,313.0796,457.5039,309.0796,453.5039" style="stroke:#000000;stroke-width:1;"/><line style="stroke:#000000;stroke-width:1;" x1="291.0796" x2="291.0796" y1="168.168" y2="188.168"/><polygon fill="#000000" points="287.0796,178.168,291.0796,188.168,295.0796,178.168,291.0796,182.168" style="stroke:#000000;stroke-width:1;"/><line style="stroke:#000000;stroke-width:1;" x1="136.3867" x2="66.8652" y1="111.584" y2="111.584"/><line style="stroke:#000000;stroke-width:1;" x1="66.8652" x2="66.8652" y1="111.584" y2="133.584"/><polygon fill="#000000" points="62.8652,123.584,66.8652,133.584,70.8652,123.584,66.8652,127.584" style="stroke:#000000;stroke-width:1;"/><line style="stroke:#000000;stroke-width:1;" x1="221.5581" x2="291.0796" y1="111.584" y2="111.584"/><line style="stroke:#000000;stroke-width:1;" x1="291.0796" x2="291.0796" y1="111.584" y2="133.584"/><polygon fill="#000000" points="287.0796,123.584,291.0796,133.584,295.0796,123.584,291.0796,127.584" style="stroke:#000000;stroke-width:1;"/><line style="stroke:#000000;stroke-width:1;" x1="66.8652" x2="66.8652" y1="292.3359" y2="483.5039"/><line style="stroke:#000000;stroke-width:1;" x1="66.8652" x2="166.9724" y1="483.5039" y2="483.5039"/><polygon fill="#000000" points="156.9724,479.5039,166.9724,483.5039,156.9724,487.5039,160.9724,483.5039" style="stroke:#000000;stroke-width:1;"/><line style="stroke:#000000;stroke-width:1;" x1="291.0796" x2="291.0796" y1="465.5039" y2="483.5039"/><line style="stroke:#000000;stroke-width:1;" x1="291.0796" x2="190.9724" y1="483.5039" y2="483.5039"/><polygon fill="#000000" points="200.9724,479.5039,190.9724,483.5039,200.9724,487.5039,196.9724,483.5039" style="stroke:#000000;stroke-width:1;"/><line style="stroke:#000000;stroke-width:1;" x1="178.9724" x2="178.9724" y1="79.584" y2="99.584"/><polygon fill="#000000" points="174.9724,89.584,178.9724,99.584,182.9724,89.584,178.9724,93.584" style="stroke:#000000;stroke-width:1;"/><line style="stroke:#000000;stroke-width:1;" x1="178.9724" x2="178.9724" y1="495.5039" y2="515.5039"/><polygon fill="#000000" points="174.9724,505.5039,178.9724,515.5039,182.9724,505.5039,178.9724,509.5039" style="stroke:#000000;stroke-width:1;"/><!--SRC=[NP2v3i8m44HxVyNIXPQI55GS1H9HmWzOoI0i6JlOQuw_P-E88pIM_5OpExCpFkC2wgqsJgd8Eh1QrcXXRg2ZzvPgN1CYbqgP4nLxtsgR1wivYTPHyKISAwBb5ZmgTjfr5g4SuFg1DZ4ch0QduCGu9Yk-i15KE9zDDiPrL061xeRFsM_G3AiptVZakl_LeZlqygyM5JKSe2_bI1k8sxH5vk-24g7tBkA39y68VgDzv-iGV6uYxkQanbTkvtlr0W00]--></g></svg>
