<svg xmlns="http://www.w3.org/2000/svg" xmlns:xlink="http://www.w3.org/1999/xlink" contentStyleType="text/css" data-diagram-type="ACTIVITY" height="499px" preserveAspectRatio="none" style="width:652px;height:499px;background:#FFFFFF;" version="1.1" viewBox="0 0 652 499" width="652px" zoomAndPan="magnify"><title>Adding New Tool to Agent</title><defs/><g><g class="title" data-source-line="1"><text fill="#000000" font-family="sans-serif" font-size="14" font-weight="bold" lengthAdjust="spacing" textLength="190.668" x="229.3252" y="33.5352">Adding New Tool to Agent</text></g><ellipse cx="327.9624" cy="57.4883" fill="#222222" rx="10" ry="10" style="stroke:#222222;stroke-width:1;"/><path d="M439.3052,91.8994 L439.3052,100.5547 L419.3052,104.5547 L439.3052,108.5547 L439.3052,117.21 A0,0 0 0 0 439.3052,117.21 L640.3184,117.21 A0,0 0 0 0 640.3184,117.21 L640.3184,101.8994 L630.3184,91.8994 L439.3052,91.8994 A0,0 0 0 0 439.3052,91.8994" fill="#FEFFDD" style="stroke:#181818;stroke-width:0.5;"/><path d="M630.3184,91.8994 L630.3184,101.8994 L640.3184,101.8994 L630.3184,91.8994" fill="#FEFFDD" style="stroke:#181818;stroke-width:0.5;"/><text fill="#000000" font-family="sans-serif" font-size="13" lengthAdjust="spacing" textLength="180.0132" x="445.3052" y="109.4678">Implement Handler interface</text><rect fill="#F1F1F1" height="34.1328" rx="12.5" ry="12.5" style="stroke:#181818;stroke-width:0.5;" width="182.6855" x="236.6196" y="87.4883"/><text fill="#000000" font-family="sans-serif" font-size="12" lengthAdjust="spacing" textLength="162.6855" x="246.6196" y="109.0898">Create Tool Implementation</text><path d="M10,146.0322 L10,171.3428 A0,0 0 0 0 10,171.3428 L225.5493,171.3428 A0,0 0 0 0 225.5493,171.3428 L225.5493,164.0322 L245.5493,158.6875 L225.5493,156.0322 L225.5493,156.0322 L215.5493,146.0322 L10,146.0322 A0,0 0 0 0 10,146.0322" fill="#FEFFDD" style="stroke:#181818;stroke-width:0.5;"/><path d="M215.5493,146.0322 L215.5493,156.0322 L225.5493,156.0322 L215.5493,146.0322" fill="#FEFFDD" style="stroke:#181818;stroke-width:0.5;"/><text fill="#000000" font-family="sans-serif" font-size="13" lengthAdjust="spacing" textLength="194.5493" x="16" y="163.6006">Name, description, parameters</text><rect fill="#F1F1F1" height="34.1328" rx="12.5" ry="12.5" style="stroke:#181818;stroke-width:0.5;" width="164.8262" x="245.5493" y="141.6211"/><text fill="#000000" font-family="sans-serif" font-size="12" lengthAdjust="spacing" textLength="144.8262" x="255.5493" y="163.2227">Define Tool Specification</text><rect fill="#F1F1F1" height="34.1328" rx="12.5" ry="12.5" style="stroke:#181818;stroke-width:0.5;" width="150.8691" x="252.5278" y="195.7539"/><text fill="#000000" font-family="sans-serif" font-size="12" lengthAdjust="spacing" textLength="130.8691" x="262.5278" y="217.3555">Register in MCP Server</text><rect fill="#F1F1F1" height="34.1328" rx="12.5" ry="12.5" style="stroke:#181818;stroke-width:0.5;" width="130.5898" x="262.6675" y="249.8867"/><text fill="#000000" font-family="sans-serif" font-size="12" lengthAdjust="spacing" textLength="110.5898" x="272.6675" y="271.4883">Update Agent Card</text><rect fill="#F1F1F1" height="34.1328" rx="12.5" ry="12.5" style="stroke:#181818;stroke-width:0.5;" width="160.502" x="247.7114" y="304.0195"/><text fill="#000000" font-family="sans-serif" font-size="12" lengthAdjust="spacing" textLength="140.502" x="257.7114" y="325.6211">Broadcast Updated Card</text><rect fill="#F1F1F1" height="34.1328" rx="12.5" ry="12.5" style="stroke:#181818;stroke-width:0.5;" width="143.3164" x="256.3042" y="358.1523"/><text fill="#000000" font-family="sans-serif" font-size="12" lengthAdjust="spacing" textLength="123.3164" x="266.3042" y="379.7539">Peers Receive Update</text><rect fill="#F1F1F1" height="34.1328" rx="12.5" ry="12.5" style="stroke:#181818;stroke-width:0.5;" width="195.207" x="230.3589" y="412.2852"/><text fill="#000000" font-family="sans-serif" font-size="12" lengthAdjust="spacing" textLength="175.207" x="240.3589" y="433.8867">Tool Available for Remote Use</text><ellipse cx="327.9624" cy="477.418" fill="none" rx="11" ry="11" style="stroke:#222222;stroke-width:1;"/><ellipse cx="327.9624" cy="477.418" fill="#222222" rx="6" ry="6" style="stroke:#222222;stroke-width:1;"/><line style="stroke:#181818;stroke-width:1;" x1="327.9624" x2="327.9624" y1="67.4883" y2="87.4883"/><polygon fill="#181818" points="323.9624,77.4883,327.9624,87.4883,331.9624,77.4883,327.9624,81.4883" style="stroke:#181818;stroke-width:1;"/><line style="stroke:#181818;stroke-width:1;" x1="327.9624" x2="327.9624" y1="121.6211" y2="141.6211"/><polygon fill="#181818" points="323.9624,131.6211,327.9624,141.6211,331.9624,131.6211,327.9624,135.6211" style="stroke:#181818;stroke-width:1;"/><line style="stroke:#181818;stroke-width:1;" x1="327.9624" x2="327.9624" y1="175.7539" y2="195.7539"/><polygon fill="#181818" points="323.9624,185.7539,327.9624,195.7539,331.9624,185.7539,327.9624,189.7539" style="stroke:#181818;stroke-width:1;"/><line style="stroke:#181818;stroke-width:1;" x1="327.9624" x2="327.9624" y1="229.8867" y2="249.8867"/><polygon fill="#181818" points="323.9624,239.8867,327.9624,249.8867,331.9624,239.8867,327.9624,243.8867" style="stroke:#181818;stroke-width:1;"/><line style="stroke:#181818;stroke-width:1;" x1="327.9624" x2="327.9624" y1="284.0195" y2="304.0195"/><polygon fill="#181818" points="323.9624,294.0195,327.9624,304.0195,331.9624,294.0195,327.9624,298.0195" style="stroke:#181818;stroke-width:1;"/><line style="stroke:#181818;stroke-width:1;" x1="327.9624" x2="327.9624" y1="338.1523" y2="358.1523"/><polygon fill="#181818" points="323.9624,348.1523,327.9624,358.1523,331.9624,348.1523,327.9624,352.1523" style="stroke:#181818;stroke-width:1;"/><line style="stroke:#181818;stroke-width:1;" x1="327.9624" x2="327.9624" y1="392.2852" y2="412.2852"/><polygon fill="#181818" points="323.9624,402.2852,327.9624,412.2852,331.9624,402.2852,327.9624,406.2852" style="stroke:#181818;stroke-width:1;"/><line style="stroke:#181818;stroke-width:1;" x1="327.9624" x2="327.9624" y1="446.418" y2="466.418"/><polygon fill="#181818" points="323.9624,456.418,327.9624,466.418,331.9624,456.418,327.9624,460.418" style="stroke:#181818;stroke-width:1;"/><!--SRC=[JP1BRiCm34JtFWKFa1CagzHTj8i6GJu7OAMnIq2M18fmhr_A2Tgk2CmRF0neOWbqZ57oJ2TyqwsKH5ReE2FRC3HZzRCV5MnuqFUb9YoEsQJamv2B4vNvo_P_ZDuunmGboGQTEC0jhvWaFotNYY2JXF-IXCaT9rwmeuWML6gdEwgi7hgekUM2MPfjQleOptI5hj23atkDVUMsdKRMsCCNBHm3DwC7Zh_a31VI1G6ouabxlkqxhYo9F_qxKr4lBNtWlVL2irA77m00]--></g></svg>